<svg width="198" height="223" viewBox="0 0 198 223" fill="none" xmlns="http://www.w3.org/2000/svg">
<g id="Group">
<g id="Group_2">
<path id="Vector" d="M171.209 102.799C172.358 104.095 173.211 104.899 173.85 105.817C184.004 120.317 191.779 135.949 196.503 153.09C198.701 161.045 196.945 167.803 191.565 173.856C187.251 178.711 182.085 182.5 176.54 185.781C166.928 191.472 156.48 195.426 146.31 199.969C129.907 207.285 113.111 213.649 95.9699 219.046C89.4416 221.096 82.7985 222.589 75.9094 222.556C73.5638 222.539 71.1854 222.375 68.8726 221.949C64.1814 221.079 60.4088 218.668 57.4563 214.863C54.4381 210.975 52.5026 206.53 50.6983 202.036C45.7447 189.75 41.3159 177.284 37.9697 164.441C37.5925 162.964 36.7395 161.488 37.8221 159.635C41.5948 160.307 45.433 159.733 49.2384 158.913C54.1101 157.847 58.9653 156.748 63.7713 155.485C84.3568 150.023 104.221 142.559 123.461 133.505C134.976 128.109 146.212 122.138 156.89 115.183C161.991 111.87 167.388 108.802 171.209 102.799Z" fill="#FAF5F2"/>
<path id="Vector_2" d="M117.885 49.9165C120.164 49.9985 120.919 51.6388 121.706 53.0986C123.248 55.9855 124.692 58.938 126.135 61.8741C130.547 70.7972 134.993 79.7203 139.307 88.6927C140.668 91.5139 141.882 94.45 142.718 97.4682C144.933 105.424 140.323 110.59 133.598 114.068C116.654 122.876 98.0535 130.028 79.6824 135.26C73.6298 136.982 67.4788 138.311 61.3441 139.689C58.2276 140.394 57.7355 140.148 56.5709 137.179C54.0777 130.831 51.7485 124.434 49.3209 118.054C46.0403 109.475 42.7434 100.929 39.4464 92.3505C38.9707 91.1203 38.4622 89.9065 38.167 88.6435C37.7897 87.0688 38.6099 85.9698 40.2173 86.101C44.6953 86.4619 48.8124 85.1333 52.8475 83.6078C64.1326 79.3759 75.4669 75.2096 86.6044 70.6004C92.6406 68.1072 98.4964 65.0563 104.123 61.7265C109.404 58.6592 114.834 55.5427 117.885 49.9165Z" fill="#FAF5F2"/>
<path id="Vector_3" d="M95.6581 60.6111C94.1327 61.3492 92.6236 62.153 91.0489 62.7927C81.5845 66.6309 72.0873 70.42 62.6065 74.209C61.8848 74.5042 61.1139 74.7011 60.3594 74.9307C56.2423 76.1609 54.766 75.8165 52.322 72.2406C50.6325 69.7638 49.2055 67.0738 47.9916 64.3345C45.5804 58.9544 43.3825 53.4759 41.1189 48.0466C40.8728 47.4397 40.6432 46.8163 40.4628 46.193C39.8887 44.1755 40.2988 43.2406 42.1851 42.486C43.1529 42.1088 44.1862 41.8627 45.1868 41.5675C55.2745 38.697 65.231 35.4 74.6954 30.8072C78.1071 29.1506 81.3385 27.1494 84.6519 25.2959C85.226 24.9679 85.7181 24.525 86.3086 24.2297C87.7684 23.4752 88.769 23.7541 89.6547 25.0991C89.868 25.4271 90.0648 25.7716 90.2124 26.1325C92.7549 32.4475 95.4121 38.7298 97.7413 45.1269C98.6763 47.6693 99.1519 50.4578 99.3487 53.1642C99.5784 56.2315 98.4302 58.856 95.6581 60.6111Z" fill="#FAF5F2"/>
</g>
<g id="Group_3">
<path id="Vector_4" d="M56.5049 139.509C71.4314 137.032 86.0299 132.423 100.349 126.895C107.796 124.024 115.358 121.384 122.723 118.316C127.053 116.512 131.285 114.347 135.287 111.886C140.536 108.639 141.586 106.26 141.537 100.109C141.881 99.8466 142.242 99.3874 142.701 99.2234C148.147 97.2386 153.691 95.7295 159.58 96.0248C162.91 96.1888 166.043 97.0254 168.913 98.7805C173.194 101.389 173.637 104.39 170.324 108.064C167.65 111.033 164.353 113.166 160.974 115.183C151.1 121.121 141.094 126.846 130.76 131.98C120.18 137.245 109.141 141.362 97.9055 145.003C85.8166 148.924 73.7442 152.86 61.6553 156.781C56.1604 158.569 50.6491 160.258 44.8917 160.898C42.9726 161.111 40.9386 161.111 39.0523 160.734C35.5585 160.028 34.5087 157.83 35.9522 154.616C36.5919 153.205 37.4612 151.843 38.429 150.63C42.7429 145.217 48.3855 141.378 54.0773 137.622C54.2905 137.475 54.5529 137.261 54.7662 137.278C55.4879 137.327 56.1932 137.491 56.9149 137.606C56.7509 138.278 56.6197 138.984 56.5049 139.509Z" fill="#F1C231"/>
<path id="Vector_5" d="M109.978 61.054C108.059 62.4155 105.992 63.58 103.909 64.6298C89.081 72.0603 73.7608 78.9167 57.9485 84.0015C53.2245 85.527 48.3365 86.5604 43.4977 87.6921C42.2511 87.9874 40.8732 87.971 39.6102 87.7741C37.4286 87.4297 36.5757 85.7238 37.4942 83.657C37.8551 82.8533 38.4292 82.0332 39.1181 81.4755C41.5621 79.5071 44.0553 77.6044 46.6142 75.7837C47.8936 74.8816 49.4027 74.3075 50.6821 73.4217C51.9451 72.536 53.1425 72.4211 54.2579 73.4217C55.5373 74.5535 56.8823 74.4059 58.3094 73.9958C60.0645 73.4709 61.836 72.9788 63.5746 72.4047C72.6454 69.3702 81.6997 66.2373 90.3604 62.1366C92.1319 61.3001 93.7886 60.2175 95.4616 59.2005C96.8395 58.3476 97.9385 57.2158 98.2993 55.5755C98.6438 54.0172 99.5788 52.9346 100.973 52.4097C104.27 51.1467 107.6 49.9657 110.962 48.9488C112.028 48.6207 113.324 48.7027 114.456 48.9324C118.393 49.7033 117.474 53.4267 115.604 55.8215C114.013 57.8391 112.094 59.5614 109.978 61.054Z" fill="#F1C231"/>
<path id="Vector_6" d="M83.7831 28.4125C79.7152 30.348 75.4177 32.546 70.9726 34.4651C63.2797 37.7785 55.4555 40.731 47.287 42.6665C45.7615 43.0273 44.2033 43.257 42.645 43.4374C41.8741 43.5358 41.0703 43.4866 40.3158 43.3226C38.8559 42.9945 38.085 41.4035 39.0364 40.3209C40.2174 38.9759 41.6444 37.7621 43.2027 36.8599C51.0268 32.2999 59.4086 28.9538 67.9873 26.1161C72.0715 24.7546 76.2543 23.6393 80.4206 22.5731C81.9132 22.1958 83.5371 22.1302 85.079 22.245C86.9981 22.409 87.7034 24.1149 86.5388 25.6732C85.8663 26.5918 84.9149 27.3135 83.7831 28.4125Z" fill="#F1C231"/>
</g>
<g id="Group_4">
<path id="Vector_7" d="M110.536 168.984C108.978 169.444 107.879 169.788 106.764 170.083C105.156 170.51 103.582 170.657 102.597 168.755C102.204 168 101.646 167.869 100.941 168.082C100.317 168.279 99.6613 168.443 99.0544 168.673C97.4634 169.28 96.0199 169.411 94.7733 167.721C94.4617 167.311 93.4447 166.95 93.0346 167.147C90.607 168.328 88.7371 166.245 86.5883 165.884C86.5555 165.884 86.4735 165.048 86.6211 164.966C87.2937 164.605 87.6545 164.293 87.0804 163.44C86.7196 162.915 86.4735 162.226 86.4243 161.587C86.3751 160.947 86.9 159.864 86.7196 159.749C86.0798 159.356 85.2597 159.257 84.4887 159.11C83.8326 158.979 83.1273 159.044 82.5368 158.765C82.2416 158.634 81.9299 157.847 82.0448 157.535C82.8649 155.206 82.8977 155.206 81.4706 154.025C81.159 153.762 80.7818 153.582 80.4701 153.32C79.6008 152.581 79.5679 152.04 80.6669 151.63C81.5855 151.286 81.8479 151.056 81.6183 149.957C81.3066 148.563 81.7167 148.251 83.0125 148.415C85.1285 148.661 87.2444 148.956 89.0979 150.269C89.9837 150.892 90.8202 150.892 91.4599 149.859C92.2473 148.596 93.4283 148.678 94.6093 149.285C95.577 149.777 96.43 150.466 97.3649 151.007C98.2671 151.548 98.8084 151.335 99.038 150.252C99.1692 149.645 99.4481 148.727 99.8581 148.628C100.531 148.448 101.433 148.645 102.122 148.973C102.958 149.367 103.664 150.072 104.451 150.63C105.944 151.696 105.944 151.679 106.567 150.006C107.469 147.562 108.06 147.333 110.323 148.514C110.569 148.645 110.782 148.792 111.028 148.924C113.226 150.203 113.226 150.203 113.44 147.792C113.571 146.266 114.621 145.528 115.867 146.381C117.754 147.677 119.46 149.252 121.231 150.728C121.969 151.351 122.396 151.269 122.576 150.318C122.74 149.432 122.412 148.3 123.495 147.874C124.61 147.431 125.611 148.021 126.447 148.743C127.891 149.99 129.219 151.368 130.63 152.647C130.777 152.778 131.155 152.795 131.351 152.696C131.548 152.598 131.762 152.303 131.745 152.089C131.68 151.154 131.434 150.203 131.45 149.285C131.483 147.841 132.516 147.037 133.845 147.464C134.862 147.775 135.862 148.268 136.748 148.874C137.863 149.629 138.88 150.58 139.93 151.45C141.226 152.516 141.275 152.532 142.046 150.646C142.44 149.695 143.145 149.383 143.883 149.973C145.031 150.892 146.032 152.04 147.082 153.09C148.017 154.025 148.328 154.009 149.231 152.992C150.625 151.433 151.281 151.302 152.839 152.549C154.119 153.566 155.25 154.747 156.481 155.829C156.645 155.977 157.055 156.042 157.219 155.928C157.383 155.829 157.448 155.452 157.399 155.206C157.268 154.271 156.907 153.32 156.94 152.401C156.973 151.679 157.317 150.826 157.826 150.367C158.515 149.744 159.351 150.236 159.942 150.876C161.139 152.188 162.271 153.566 163.452 154.894C164.403 155.977 164.731 155.928 165.322 154.632C166.306 152.499 167.438 152.188 169.193 153.697C169.898 154.304 170.571 155.075 171.013 155.895C172.654 158.897 174.212 161.931 175.737 164.982C176.033 165.572 176.279 166.294 176.23 166.934C176.016 170.28 175.754 173.626 175.393 176.956C175.278 178.006 174.852 179.023 174.409 179.991C173.211 182.566 171.801 182.812 169.472 180.925C168.127 179.843 167.913 179.859 167.077 181.204C166.371 182.32 165.814 183.55 165.01 184.567C164.206 185.584 163.238 186.486 162.205 187.257C161.172 188.011 160.27 187.749 159.761 186.322C159.203 184.78 158.564 184.731 157.465 185.485C157.252 185.633 157.022 185.781 156.776 185.863C154.889 186.535 154.381 186.273 153.594 184.19C153.069 182.812 152.97 182.763 152.003 183.386C151.117 183.96 150.313 184.665 149.378 185.108C147.902 185.814 146.836 185.075 146.705 183.337C146.672 182.943 146.803 182.533 146.77 182.139C146.721 181.106 146.36 180.843 145.556 181.237C145.081 181.467 144.671 181.811 144.195 182.024C142.145 183.009 141.784 182.992 140.143 181.073C139.405 180.204 138.848 180.056 137.781 180.286C135.19 180.843 135.141 180.761 133.861 177.809C133.467 176.907 132.91 176.956 132.303 177.35C131.532 177.842 130.843 178.465 130.089 178.99C129.334 179.515 128.596 180.073 127.759 180.45C125.348 181.565 124.167 180.794 123.905 177.989C123.773 176.546 123.544 176.382 122.215 176.808C121.838 176.923 121.477 177.104 121.116 177.235C120.87 177.333 120.64 177.448 120.378 177.514C118.36 178.071 117.77 177.907 116.523 175.808C115.982 174.922 115.457 174.692 114.604 174.856C113.456 175.086 112.308 175.48 111.127 175.48C109.651 175.496 108.65 174.086 109.06 172.642C109.388 171.543 109.913 170.51 110.536 168.984Z" fill="#AEB75A"/>
<path id="Vector_8" d="M20.5995 116.282C21.2064 117.365 21.3705 117.758 21.6165 118.07C22.1742 118.825 22.7483 120.104 23.3552 120.153C24.6018 120.268 24.1589 118.775 24.4706 117.988C25.1759 116.167 26.4717 115.921 27.6691 117.578C28.6041 118.907 29.3258 120.399 30.0311 121.876C30.5396 122.942 30.9497 123.286 32.1307 122.728C33.9022 121.908 34.5419 122.187 35.4276 123.663C35.8377 124.369 36.1001 125.156 36.461 125.894C36.8055 126.567 37.3468 126.993 38.0849 126.731C40.0204 126.058 41.103 127.157 41.9887 128.699C42.3988 129.404 42.8089 130.126 43.1205 130.881C43.4814 131.734 43.9735 132.258 44.9413 132.012C47.5985 131.373 49.1732 133.226 49.9441 135.162C51.1579 138.246 52.5849 141.132 54.4713 143.839C55.4062 145.167 54.9469 146.152 53.4707 146.545C49.78 147.497 46.0894 148.448 42.3988 149.367C40.4633 149.842 38.5934 150.138 36.625 148.891C35.8377 148.382 34.5911 148.497 33.5741 148.563C31.5894 148.678 29.8015 148.678 29.211 146.102C29.129 145.758 28.44 145.381 27.9972 145.282C27.3575 145.135 26.6686 145.282 26.0124 145.233C23.7161 145.036 23.306 144.757 23.0108 142.346C22.8795 141.346 22.6007 140.854 21.6821 140.69C21.2885 140.624 20.8948 140.575 20.5011 140.476C18.582 140.05 17.2698 139.115 17.483 136.868C17.5814 135.834 16.9745 135.424 16.0724 135.293C15.0226 135.129 13.9564 134.998 12.9066 134.768C10.8727 134.325 9.52766 131.963 11.414 130.159C11.6928 129.88 12.0045 129.618 12.2341 129.322C12.841 128.551 12.3489 128.076 11.66 127.813C10.643 127.436 9.56047 127.272 8.5763 126.846C7.47732 126.37 6.34552 125.829 5.39416 125.074C4.06554 124.024 4.16393 122.335 5.42695 121.269C5.52536 121.187 5.65659 121.137 5.73861 121.039C6.39472 120.317 8.18262 120.498 7.83816 119.202C7.62492 118.398 6.23069 117.89 5.37774 117.234C4.08192 116.249 2.73689 115.314 1.50669 114.232C0.916185 113.707 0.358497 112.969 0.128858 112.231C-0.0843782 111.558 -0.0351599 110.607 0.292896 110.033C0.506132 109.672 1.52309 109.524 2.04798 109.705C3.17977 110.082 4.32797 110.59 5.32854 111.279C7.32967 112.674 9.24881 114.215 11.1843 115.708C11.7256 116.118 12.1685 116.676 12.7098 117.053C12.9886 117.234 13.5299 117.348 13.7432 117.201C13.9892 117.02 14.0876 116.528 14.0712 116.167C14.0384 115.232 13.776 114.281 13.8252 113.363C13.8908 111.968 15.203 111.23 16.4004 111.935C17.319 112.477 18.0899 113.264 18.91 113.986C19.2053 114.248 19.4185 114.626 19.6482 114.97C20.1403 115.61 20.5995 116.282 20.5995 116.282Z" fill="#AEB75A"/>
<path id="Vector_9" d="M103.844 116.184C101.991 113.69 101.384 112.017 103.254 110.443C104.008 109.803 103.664 109.032 103.27 108.261C102.466 106.686 101.548 105.145 100.941 103.488C100.416 102.061 100.285 100.47 102.04 99.7316C103.073 99.3051 102.843 98.5998 102.597 97.7797C102.204 96.4839 101.761 95.1716 101.597 93.843C101.384 91.9567 101.876 91.1365 103.729 90.6773C104.861 90.3984 105.32 90.0048 105.156 88.8402C104.861 86.7406 105.255 85.0839 107.666 84.6738C107.978 84.6246 108.256 83.8865 108.338 83.4272C108.437 82.9188 108.24 82.3447 108.289 81.8198C108.42 80.4583 108.962 79.9827 110.323 79.9171C110.963 79.9006 111.832 80.2123 112.16 79.9007C112.537 79.5562 112.423 78.6704 112.521 78.0143C112.537 77.8831 112.554 77.7519 112.587 77.6206C112.931 76.3412 113.965 75.8492 114.982 76.6365C116.031 77.473 116.901 78.5392 117.868 79.4906C118.443 80.0483 119 80.1631 119.525 79.4742C119.853 79.0641 120.148 78.6212 120.542 78.2768C121.297 77.6207 121.969 77.7847 122.494 78.6704C122.625 78.9001 122.691 79.1789 122.74 79.4414C122.953 80.4747 123.495 80.7536 124.462 80.3927C125.43 80.0319 126.414 79.6546 127.431 79.4906C128.465 79.3266 129.268 80.4091 128.825 81.3605C128.202 82.6563 127.349 83.8209 126.677 85.1003C126.414 85.6088 126.578 86.1993 127.284 86.2649C128.514 86.4125 130.269 85.576 130.63 87.4295C130.81 88.3809 129.924 89.6111 129.301 90.5625C128.727 91.4646 128.94 91.8091 129.728 92.4816C131.352 93.843 131.368 94.7288 130.072 96.0902C129.711 96.4675 129.285 96.7791 128.858 97.0908C127.809 97.8289 127.612 98.6326 128.481 99.7644C129.301 100.831 128.94 101.815 128.022 102.586C127.415 103.078 126.693 103.439 126.103 103.947C125.742 104.259 125.168 104.882 125.282 105.161C126.152 107.457 124.692 108.327 123.167 109.229C122.232 109.787 121.969 110.426 122.724 111.509C123.708 112.936 122.97 114.018 121.936 115.003C118.557 118.201 114.342 119.579 109.831 120.202C109.011 120.317 107.912 119.956 107.223 119.431C105.829 118.25 104.517 116.823 103.844 116.184Z" fill="#AEB75A"/>
<path id="Vector_10" d="M111.848 2.62725C112.619 4.44796 113.604 6.69514 114.506 8.95873C114.965 10.0905 115.211 11.3043 115.638 12.4525C115.818 12.9118 116.228 13.2891 116.54 13.7155C116.901 13.4039 117.36 13.1742 117.606 12.7806C118.36 11.5504 118.934 10.2053 119.771 9.04075C120.083 8.59787 121.116 8.17139 121.428 8.36823C122.002 8.74549 122.691 9.64764 122.625 10.2381C122.428 12.2229 121.953 14.1748 121.51 16.1267C121.149 17.7014 120.493 19.1941 122.953 19.9158C124.118 20.2602 124.216 21.6545 123.855 22.7371C123.314 24.3773 122.592 25.9356 122.002 27.5595C121.903 27.8383 122.084 28.2648 122.248 28.5929C122.281 28.6585 122.74 28.5928 122.97 28.5108C123.806 28.1664 124.593 27.6907 125.463 27.4611C126.266 27.2314 127.021 28.0188 127.021 28.9045C127.021 29.167 127.021 29.4458 126.972 29.7082C126.791 30.6104 126.299 31.5454 126.431 32.4147C126.627 33.6941 128.153 32.7756 128.743 33.4809C129.219 34.055 129.777 34.9079 129.678 35.5148C129.498 36.6794 128.957 37.7784 128.432 38.8446C127.874 39.9764 127.776 40.8293 129.203 41.4198C130.302 41.8627 130.367 42.8633 130.17 43.831C130.006 44.602 129.826 45.4713 129.367 46.0618C127.464 48.555 125.463 50.999 123.462 53.4102C122.855 54.1484 122.002 54.6077 120.985 54.1648C119.131 53.361 117.212 52.6557 115.473 51.6059C113.587 50.4578 113.472 49.2932 114.916 47.4232C115.638 46.4719 115.227 45.9962 114.424 45.5533C113.111 44.8316 111.766 44.2083 110.471 43.4538C108.289 42.1744 106.878 40.4685 107.699 37.7784C108.027 36.6958 107.6 35.9741 106.731 35.3672C106.288 35.0555 105.878 34.6783 105.501 34.2846C103.745 32.4639 103.68 31.4797 105.468 29.5278C106.206 28.7241 106.55 28.1008 105.714 27.1494C105.353 26.7393 105.009 26.3129 104.713 25.8536C103.434 23.8032 103.598 22.9011 105.517 21.5069C105.829 21.2772 106.354 21.2116 106.501 20.9164C106.698 20.5391 106.796 19.883 106.6 19.5549C105.681 18.0623 104.484 16.7172 103.68 15.1754C103.106 14.0764 104.156 13.0266 105.386 13.3383C106.025 13.5023 106.649 13.7811 107.256 14.06C107.748 14.2732 108.191 14.6013 108.683 14.7981C108.896 14.8801 109.24 14.8309 109.421 14.6833C109.568 14.5521 109.667 14.1912 109.601 14.0108C109.158 12.7314 108.634 11.4683 108.191 10.1725C107.305 7.58089 106.534 4.95645 106.78 2.21718C106.862 1.29863 106.928 0.068423 108.01 0.00281186C108.798 -0.0463965 109.716 0.560511 110.487 1.01979C110.897 1.24943 111.176 1.80711 111.848 2.62725Z" fill="#AEB75A"/>
</g>
<g id="Group_5">
<path id="Vector_11" d="M67.265 134.801C67.5438 133.932 67.7407 133.21 68.0195 132.537C68.364 131.701 68.6592 130.782 69.2333 130.11C70.89 128.158 73.2684 128.601 74.1214 131.028C74.515 132.127 74.5642 133.341 74.8103 134.489C74.9087 134.965 75.0891 135.408 75.3352 136.244C76.0405 135.637 76.4834 135.211 76.9754 134.834C77.6808 134.276 78.3533 133.604 79.1734 133.259C81.0925 132.455 82.2079 132.98 83.2413 134.965C83.471 135.408 83.6678 135.851 83.8974 136.31C85.3573 135.605 86.6367 134.981 87.7029 134.456C89.6548 134.67 90.0649 135.884 90.1141 137.278C90.1797 139.049 89.5564 140.657 88.523 142.035C87.506 143.38 86.3414 144.626 84.98 146.217C85.9314 146.299 86.6367 146.431 87.3256 146.381C88.769 146.299 90.1961 146.07 91.6231 146.004C93.1486 145.938 94.5428 146.299 95.1661 147.907C95.8058 149.563 94.7397 150.695 93.6899 151.663C91.7872 153.418 89.3759 154.091 86.8663 154.419C85.6033 154.583 84.3403 154.697 82.4868 154.894C83.7006 156.289 84.5535 157.224 85.3737 158.191C86.5547 159.586 87.8341 160.931 88.8347 162.456C89.54 163.522 90.0648 164.802 90.3273 166.048C91.1474 169.919 88.9331 171.97 85.1933 170.789C83.8482 170.362 82.6016 169.542 81.3714 168.837C80.4036 168.279 79.5179 167.59 78.3041 166.754C78.2057 170.034 79.8295 173.167 77.3363 175.759C75.1711 176.858 73.4324 175.89 72.0874 174.381C70.9884 173.134 70.1519 171.592 69.4302 170.067C68.7576 168.673 68.3804 167.131 67.8391 165.573C66.4777 165.622 66.248 166.819 65.6247 167.541C63.5908 169.952 61.4912 170.772 59.5065 169.87C57.7678 169.083 56.8493 166.901 57.3577 164.031C57.653 162.374 58.3583 160.783 58.8832 159.175C59.162 158.355 59.4573 157.535 59.8837 156.321C58.1942 156.781 56.9804 157.174 55.7338 157.453C53.9459 157.847 52.1416 158.224 50.3209 158.437C49.304 158.569 48.2214 158.454 47.188 158.29C44.1863 157.83 42.5132 156.485 42.3 154.501C42.0867 152.45 43.3825 150.597 46.1546 149.695C48.3854 148.973 50.731 148.628 53.0438 148.218C54.1756 148.022 55.3566 148.038 57.0625 147.923C56.3079 147.07 55.8979 146.529 55.4058 146.07C53.8803 144.643 52.1416 143.396 50.813 141.821C49.0579 139.738 49.0251 137.376 50.3209 136.097C51.4855 134.949 53.6343 135.031 55.7995 136.425C56.8984 137.13 57.8498 138.049 58.8996 138.836C59.3753 139.197 59.9329 139.459 60.9171 140.066C60.3594 136.162 57.1117 133.013 59.7197 129.29C64.1977 128.273 64.4437 133.079 67.265 134.801Z" fill="#4169DF"/>
<path id="Vector_12" d="M134.238 70.6496C136.961 73.192 141.783 72.5359 142.948 76.9483C142.193 79.1299 140.438 79.4579 138.519 79.2118C136.862 78.9986 135.238 78.5394 133.336 78.1293C133.45 79.2939 133.565 80.1632 133.631 81.049C133.729 82.2136 133.86 83.3946 133.86 84.5756C133.844 85.6745 133.5 86.6915 132.302 87.0524C131.302 87.364 130.498 86.8719 129.875 86.1338C129.038 85.1333 128.218 84.0999 127.529 83.0009C126.856 81.9019 126.348 80.7045 125.725 79.4415C124.445 79.868 124.445 81.049 124.035 81.9019C122.953 84.1983 121.673 86.2815 119.41 87.6101C117.146 88.9387 115.096 88.1514 114.784 85.5597C114.587 83.9195 114.915 82.1972 115.21 80.5569C115.407 79.4415 115.981 78.3753 116.556 76.7842C114.948 77.0959 113.751 77.3583 112.553 77.5716C110.273 77.9652 109.01 77.5552 108.403 76.2758C107.813 75.0456 108.354 73.6185 110.06 72.2735C110.765 71.6994 111.553 71.2237 112.356 70.7644C113.029 70.3872 113.751 70.1083 114.702 69.6818C114.095 68.3204 112.816 67.8283 111.93 66.9754C110.634 65.7124 109.699 64.3509 110.815 62.5138C113.062 61.8413 113.062 61.8413 117.802 63.1043C117.425 61.8905 117.031 60.8571 116.785 59.791C116.473 58.3967 116.129 56.9697 116.063 55.5591C115.981 53.9516 116.785 52.8034 117.966 52.4425C119.262 52.0489 120.328 52.5573 121.083 53.5579C122.1 54.9193 122.969 56.3792 123.904 57.7898C124.183 58.2163 124.478 58.61 124.888 59.1841C126.807 57.3142 126.561 53.4431 130.252 53.6071C132.417 54.8209 132.499 56.6908 132.187 58.7576C131.958 60.2502 131.121 61.6773 131.482 63.7112C132.515 62.9731 133.204 62.4646 133.926 61.9889C134.795 61.4148 135.665 60.808 136.6 60.3651C137.617 59.873 138.666 59.9878 139.519 60.7915C140.372 61.6117 140.471 62.7271 140.028 63.7112C139.552 64.761 138.88 65.7616 138.125 66.6309C136.928 67.9924 135.599 69.239 134.238 70.6496Z" fill="#4169DF"/>
</g>
<g id="Group_6">
<path id="Vector_13" d="M73.17 154.566C70.6931 156.338 66.9861 155.698 65.067 153.188C63.2299 150.777 63.7876 146.972 66.248 145.069C68.774 143.117 72.7927 143.806 74.6298 146.48C76.3521 149.006 75.6796 152.778 73.17 154.566Z" fill="#152045"/>
<path id="Vector_14" d="M127.808 72.6836C126.02 73.9795 123.182 73.553 121.821 71.7815C120.394 69.9116 120.902 66.7786 122.854 65.532C124.707 64.3346 127.512 64.9087 128.775 66.7459C130.088 68.6322 129.645 71.355 127.808 72.6836Z" fill="#152045"/>
</g>
</g>
</svg>
