<svg width="169" height="197" viewBox="0 0 169 197" fill="none" xmlns="http://www.w3.org/2000/svg">
<g id="Group">
<g id="Group_2">
<path id="Vector" d="M124.737 151.675C125.049 150.346 127.034 148.509 127.87 147.41C129.068 145.852 130.314 144.326 131.676 142.916C134.07 140.406 137.023 137.814 140.385 136.732C141.944 136.24 143.666 136.141 145.175 136.748C146.684 137.355 147.947 138.716 148.144 140.324C148.439 142.653 146.717 144.671 145.241 146.262C139.418 152.528 133.382 158.613 127.165 164.518C125.557 166.06 123.884 167.635 122.966 169.668C121.44 173.031 122.244 176.804 122.244 180.347C122.26 184.398 122.146 188.482 122.146 192.534C122.146 194.141 121.637 196.29 120.046 196.274C119.488 196.274 118.98 195.962 118.504 195.65C113.895 192.714 109.286 189.778 104.677 186.842C101.987 185.136 99.2309 183.381 96.1144 182.692C92.4238 181.872 88.6019 182.61 84.8949 183.348C78.3502 184.661 71.8055 185.956 65.2608 187.269C63.7353 187.564 62.1607 187.876 60.6516 187.482C59.159 187.088 57.7811 185.76 57.8631 184.218C57.9287 183.119 58.6833 182.184 59.4706 181.413C64.7851 176.197 72.5928 174.671 79.9249 173.392C71.3954 168.832 62.5215 164.928 53.4016 161.68C52.3846 161.319 51.3184 160.942 50.5803 160.155C49.8422 159.368 49.5633 158.039 50.2687 157.219C51.138 156.218 52.7619 156.595 54.0085 157.055C73.8558 164.502 93.0143 173.786 111.139 184.759C110.467 184.447 109.614 182.167 109.22 181.511C108.646 180.56 108.056 179.609 107.465 178.674C106.005 176.344 104.513 174.048 103.036 171.735C100.133 167.208 97.2626 162.648 94.671 157.924C89.6845 148.837 85.305 139.405 81.5979 129.744C80.1709 126.037 78.8423 122.297 77.6285 118.541C76.4803 114.998 73.0357 113.669 70.0504 111.914C66.5238 109.831 62.9644 107.764 59.569 105.484C54.2217 101.909 49.1697 97.7095 45.5118 92.395C44.1832 90.4595 42.2313 86.7525 44.4457 84.7513C45.6595 83.6523 47.5622 84.0296 49.0877 84.6201C57.8139 88.0318 63.8829 96.0364 71.9859 100.744C69.7879 89.7214 67.5736 78.4691 69.017 67.3316C69.099 66.6427 69.2139 65.9373 69.6403 65.396C70.0668 64.8547 70.8705 64.5431 71.4446 64.9204C72.0023 65.2812 72.0844 66.0357 72.1336 66.6918C72.9373 80.831 75.3649 94.8882 79.3344 108.486C83.3203 122.15 88.848 135.37 95.8028 147.804C95.9996 148.148 96.5737 149.821 97.2298 149.345C97.3938 149.214 97.4758 149.001 97.5414 148.804C98.4436 145.917 98.9685 142.932 99.9855 140.078C101.002 137.24 102.593 134.468 105.12 132.795C106.202 132.09 107.465 131.581 108.761 131.712C113.255 132.205 111.877 139.405 111.484 142.374C111.09 145.343 110.286 148.246 109.483 151.117C107.924 156.71 106.169 162.615 107.629 168.422C109.187 174.589 114.026 179.264 117.635 184.513C117.323 168.307 119.111 152.068 122.966 136.322C124.344 130.712 125.984 125.135 128.658 120.017C129.002 119.345 129.412 118.656 130.052 118.246C130.691 117.852 131.676 117.869 132.102 118.492C132.463 119.017 132.332 119.738 132.184 120.362C129.724 130.794 127.23 141.226 124.737 151.675Z" fill="#AEB75A"/>
</g>
<g id="Group_3">
<path id="Vector_2" d="M73.544 35.6578C75.9552 31.2127 77.8415 27.3252 80.1215 23.6674C81.7782 21.0265 83.8122 18.5661 85.9445 16.2861C87.1583 14.9903 88.7822 13.9077 90.4389 13.2188C94.5724 11.4965 98.4762 13.7109 99.3292 18.1233C99.8705 20.9117 99.3784 23.6346 98.2958 26.2098C96.9672 29.3428 95.4745 32.4101 93.7358 36.2155C95.0809 35.4118 95.901 34.9689 96.6555 34.4604C99.4932 32.5249 102.413 30.7042 105.923 30.3925C107.58 30.2449 109.368 30.2941 110.942 30.7862C114.206 31.8032 115.519 34.7065 114.518 37.987C113.928 39.9061 112.779 41.4972 111.369 42.9078C108.744 45.5487 105.529 47.3366 102.282 49.0589C101.248 49.6002 100.166 50.0758 98.8535 50.6827C99.8705 51.5193 100.789 51.06 101.609 51.1092C104.48 51.3061 107.367 51.3717 110.221 51.7325C111.32 51.8638 112.484 52.4542 113.386 53.1432C115.519 54.7998 115.683 57.2603 113.911 59.3434C112.435 61.0821 110.549 62.2303 108.433 63.0669C104.184 64.7564 99.7556 65.0188 95.2777 64.6743C93.3421 64.5267 91.423 64.2807 88.7986 64.0182C89.6351 65.0352 90.0288 65.6257 90.5373 66.1014C92.1447 67.6433 93.8507 69.0867 95.3761 70.7106C97.0164 72.4493 98.2794 74.4668 98.6567 76.878C99.198 80.1749 97.3772 82.2417 94.0311 82.1269C91.6035 82.0449 89.4219 81.1591 87.4371 79.8141C86.5842 79.24 85.7641 78.6331 84.4026 77.6653C84.6815 78.9776 84.7799 79.6829 84.9767 80.3554C85.436 81.9957 85.9937 83.6031 86.3874 85.2598C86.617 86.2768 86.7154 87.343 86.6826 88.3763C86.5022 92.5919 83.4677 94.1665 79.9247 91.8045C78.5305 90.8696 77.2346 89.6558 76.2669 88.2943C74.7414 86.1784 73.5112 83.8492 72.199 81.5856C71.7561 80.8311 71.3952 80.0274 70.7555 78.7643C70.0502 80.3062 69.6401 81.3723 69.0989 82.3565C67.9671 84.4069 66.8189 86.4736 65.5395 88.442C65.0638 89.1801 64.2928 89.8034 63.5383 90.2791C61.7668 91.3781 59.7985 90.9352 58.8471 89.0653C58.273 87.9335 57.8301 86.5393 57.945 85.3255C58.1582 83.0127 58.6831 80.6834 59.29 78.4363C59.6673 77.0584 60.4546 75.8118 61.3239 73.8927C60.1265 74.516 59.3884 74.8112 58.7323 75.2541C56.0914 77.0092 53.303 78.5019 50.2193 79.2236C48.3329 79.6665 46.3154 79.9945 44.3963 79.8633C39.0818 79.5024 36.8674 75.2213 39.6231 70.6285C40.6072 68.9718 42.0179 67.4792 43.5269 66.2654C45.7577 64.4611 48.2345 62.952 50.6293 61.3446C51.3839 60.8361 52.1712 60.3932 53.631 59.4911C52.2368 59.3763 51.5807 59.2286 50.941 59.2942C46.3482 59.7371 41.7882 59.7371 37.2939 58.3921C35.1123 57.736 33.1604 56.6862 31.5693 55.0787C28.2067 51.6341 28.6824 47.1726 32.8979 44.8762C34.8006 43.8264 37.0478 43.2687 39.213 42.8914C42.7232 42.2681 46.2826 42.6946 49.7764 43.3671C53.5982 44.1052 57.3873 44.9418 61.7504 45.8603C60.9139 44.7449 60.3562 44.0724 59.8641 43.3507C56.8624 38.8891 53.7458 34.5096 50.9246 29.9497C48.2673 25.6685 46.7419 20.9281 46.0366 15.9253C45.4953 12.0378 46.1022 8.36361 47.9557 4.88622C50.6621 -0.165837 55.8618 -1.47808 60.5858 1.78607C62.8658 3.36074 64.7685 5.3455 66.2612 7.7075C68.4427 11.1849 70.001 14.9575 70.7883 18.9598C71.7233 23.7166 72.4122 28.5226 73.2159 33.3122C73.2159 33.8863 73.3308 34.4932 73.544 35.6578Z" fill="#4169DF"/>
<path id="Vector_3" d="M17.4462 129.629C16.7737 128.12 16.2817 127.087 15.8388 126.037C14.4773 122.822 13.854 119.509 14.6906 116.048C14.9366 115.047 15.3139 114.014 15.888 113.177C17.5119 110.815 20.0707 110.176 22.3999 111.832C24.073 113.03 25.6312 114.555 26.7794 116.261C28.8134 119.312 30.4864 122.593 32.3072 125.775C33.0125 127.005 33.7014 128.252 34.784 130.154C35.0464 128.694 35.1612 127.973 35.3089 127.267C35.9158 124.331 36.3423 121.33 37.2444 118.475C37.7693 116.786 38.8191 115.129 40.0493 113.833C42.8213 110.914 46.7416 111.455 48.4967 115.047C49.3989 116.884 50.0222 119.033 50.0714 121.067C50.1534 124.315 49.6941 127.579 49.3989 130.843C49.2841 132.008 48.956 133.14 48.6443 134.714C50.6947 132.582 52.3514 130.63 54.2541 128.973C56.1076 127.349 58.1251 125.824 60.2575 124.594C62.5047 123.314 65.0143 122.888 67.2779 124.725C69.5579 126.578 70.0172 129.121 69.5907 131.844C69.1478 134.616 67.77 137.011 66.2609 139.34C65.8509 139.98 65.3588 140.586 64.5878 141.653C65.8344 141.521 66.6382 141.439 67.4419 141.374C69.7875 141.193 72.1495 140.701 74.4459 140.914C78.2513 141.259 80.1213 144.08 79.4488 147.869C79.1371 149.592 78.3334 151.051 77.1196 152.331C75.1676 154.381 72.8056 155.743 70.214 156.727C65.5064 158.515 60.602 159.302 55.5827 159.482C54.5493 159.515 53.516 159.532 52.2037 159.548C52.5974 161.221 53.7784 162.156 54.5657 163.288C56.7145 166.339 58.5024 169.521 58.7156 173.326C58.7977 174.737 58.6992 176.23 58.2892 177.575C57.4854 180.15 55.6483 181.38 52.9091 181.298C49.5629 181.2 46.84 179.756 44.9045 177.001C43.8711 175.524 43.0018 173.95 41.7716 171.932C41.4107 173.441 41.2139 174.442 40.9186 175.409C40.1969 177.788 39.6884 180.265 38.6222 182.479C37.3756 185.038 35.3909 187.006 32.1431 186.678C29.7483 186.432 27.8456 184.234 27.1567 180.79C26.8942 179.51 26.8286 178.182 26.8122 176.886C26.7958 175.59 26.9271 174.278 27.0255 172.555C26.3038 173.13 25.7789 173.523 25.2704 173.933C23.5317 175.311 21.9406 176.968 20.0215 178.001C15.806 180.265 11.9841 178.001 11.7217 173.228C11.5577 170.407 12.263 167.733 13.854 165.387C14.871 163.878 16.0684 162.501 17.2002 161.024C16.7409 159.991 15.806 160.565 15.1663 160.581C12.3942 160.663 9.67134 160.434 6.99768 159.614C4.79971 158.925 2.99542 157.662 1.60118 155.841C-0.892042 152.593 -0.334348 148.509 3.06103 146.213C4.43886 145.278 6.12834 144.802 7.71941 144.244C8.67077 143.916 9.70415 143.834 11.1804 143.555C10.0978 142.588 9.32689 141.964 8.62157 141.275C6.76805 139.438 4.83251 137.65 3.14302 135.649C2.06044 134.37 1.20751 132.828 0.567797 131.27C-1.15449 127.054 1.17471 123.856 5.75108 124.233C7.39136 124.364 9.08084 125.004 10.5899 125.725C12.7879 126.792 14.8546 128.137 17.4462 129.629Z" fill="#4169DF"/>
<path id="Vector_4" d="M140.943 90.9516C142.124 89.5082 142.764 88.7044 143.42 87.9171C146.422 84.3249 149.981 81.4872 154.426 79.929C155.755 79.4697 157.231 79.158 158.642 79.158C161.529 79.158 163.316 81.1428 162.906 84.0132C162.693 85.5059 162.168 87.1462 161.266 88.3436C159.544 90.64 157.575 92.756 155.525 94.7571C153.754 96.4794 151.72 97.9392 149.374 99.8911C150.555 100.072 151.244 100.236 151.966 100.268C155.394 100.432 158.773 100.974 161.906 102.368C163.546 103.106 165.203 104.057 166.466 105.32C169.025 107.863 168.5 110.979 165.4 112.882C163.562 114.014 161.496 114.391 159.38 114.473C157.969 114.522 156.542 114.473 154.656 114.473C156.821 115.9 158.691 116.966 160.348 118.295C161.742 119.443 163.136 120.755 164.055 122.265C166.088 125.611 164.661 128.547 160.823 129.252C158.461 129.679 156.132 129.4 153.836 128.678C150.293 127.579 147.078 125.857 144.027 123.774C143.289 123.281 142.534 122.822 141.222 121.986C141.829 123.823 142.288 125.02 142.633 126.25C143.01 127.628 143.485 129.039 143.567 130.45C143.715 133.14 141.763 134.927 139.073 134.632C136.728 134.386 134.759 133.287 133.66 131.171C132.709 129.318 132.036 127.317 131.347 125.348C130.97 124.266 130.79 123.101 130.412 121.559C129.379 122.281 128.543 122.789 127.804 123.396C124.212 126.316 120.358 128.744 115.912 130.171C113.37 130.991 110.795 131.286 108.17 130.614C103.463 129.416 101.888 125.069 104.89 121.215C105.989 119.804 107.432 118.64 109.105 116.999C107.744 116.852 106.776 116.72 105.808 116.655C103.709 116.507 101.658 116.146 99.7392 115.162C95.1629 112.817 94.5396 108.273 98.6075 105.124C100.313 103.795 102.511 103.057 104.529 102.188C105.595 101.728 106.776 101.581 108.072 101.269C108.006 99.9568 106.924 99.5631 106.268 98.8742C104.299 96.7746 102.708 94.429 104.02 91.4765C105.251 88.7045 107.973 88.2452 110.68 88.196C113.6 88.1304 116.421 88.688 119.111 89.8526C121.506 90.9024 123.868 92.0178 126.591 93.2644C126.492 92.0998 126.492 91.2305 126.328 90.3939C125.606 86.3917 124.753 82.4222 124.097 78.4199C123.458 74.4832 123.753 70.5794 124.885 66.7411C125.639 64.1659 126.984 61.9351 128.92 60.098C132.545 56.637 137.138 57.3095 139.286 61.7875C140.353 63.9855 140.976 66.4787 141.386 68.9063C142.354 74.6309 142.222 80.3883 141.55 86.1456C141.386 87.4086 141.222 88.7045 140.943 90.9516Z" fill="#4169DF"/>
</g>
<g id="Group_4">
<path id="Vector_5" d="M76.9712 46.1884C83.0567 48.944 83.9752 57.7195 78.6771 62.3287C73.8875 66.495 67.146 64.7399 64.9808 58.7693C63.4062 54.439 65.2104 49.1737 69.1143 46.7297C71.6403 45.155 74.2648 44.8925 76.9712 46.1884Z" fill="#152045"/>
<path id="Vector_6" d="M34.6853 158.925C30.1089 156.874 28.2062 151.642 30.355 147.049C32.3069 142.883 37.4082 140.947 41.6565 142.751C46.2001 144.687 48.3324 150.149 46.2985 154.594C44.3302 158.941 39.0813 160.893 34.6853 158.925Z" fill="#152045"/>
<path id="Vector_7" d="M126.18 104.32C128.132 100.252 132.741 98.5788 136.776 100.482C140.746 102.351 142.534 107.141 140.746 111.127C138.909 115.195 133.84 116.999 129.756 115.014C125.787 113.079 124.228 108.404 126.18 104.32Z" fill="#152045"/>
</g>
</g>
</svg>
