<svg width="190" height="252" viewBox="0 0 190 252" fill="none" xmlns="http://www.w3.org/2000/svg">
<g id="Group">
<g id="Group_2">
<path id="Vector" d="M68.0352 93.4155C67.7266 92.1129 68.4868 91.5682 69.2674 91.7858C72.9865 92.8023 76.7053 91.037 80.5048 92.1286C87.6895 94.1857 94.9987 95.7766 101.854 98.8309C112.629 103.632 122.247 110.122 130.427 118.633C135.327 123.725 140.435 128.671 144.976 134.071C156.124 147.324 166.397 161.235 175.153 176.198C176.211 178.01 177.095 179.921 178.178 181.707C180.388 185.4 180.713 189.339 179.866 193.467C179.203 196.723 177.977 199.785 176.133 202.499C173.546 206.276 170.983 210.167 167.818 213.424C162.079 219.316 155.138 223.572 147.266 226.074C141.161 228.008 135.567 227.267 130.133 223.423C120.706 216.739 111.809 209.457 103.175 201.797C93.5445 193.246 84.6944 183.969 76.2297 174.269C67.2467 163.974 60.27 152.531 56.1438 139.436C53.7673 131.902 52.5454 124.133 51.6384 116.316C51.4762 114.889 51.596 113.515 52.1498 112.084C52.599 110.938 52.3809 109.549 52.4985 108.263C52.5663 107.503 52.6073 106.718 52.8056 105.98C52.8658 105.765 53.4366 105.606 53.788 105.563C53.9743 105.546 54.2998 105.81 54.374 106.01C54.5202 106.498 54.5741 107.02 54.6223 107.527C54.834 110.266 55.1032 113.018 55.2112 115.76C55.2929 117.724 56.2359 118.756 58.0014 119.553C61.6475 121.174 65.3609 122.175 69.375 122.242C76.6603 122.355 82.25 117.428 82.8731 110.198C83.2324 106.076 82.6217 102.121 81.2294 98.2283C80.6493 96.5715 79.6408 95.5987 77.8928 95.3202C75.0435 94.8557 72.2077 94.3336 69.372 93.8116C68.8615 93.7561 68.413 93.5377 68.0352 93.4155Z" fill="#AEB75A"/>
</g>
<g id="Group_3">
<path id="Vector_2" d="M134.825 147.357C137.934 151.067 141.043 154.776 144.158 158.502C144.753 159.208 145.342 159.899 145.85 160.656C148.429 164.492 148.402 167.389 145.664 171.135C144.666 172.503 143.57 173.837 142.331 174.979C137.615 179.337 132.867 183.654 128.059 187.905C126.703 189.109 125.139 190.127 123.55 191.031C119.955 193.083 116.984 192.716 113.816 190.025C113.223 189.511 112.614 189.002 112.061 188.455C105.364 181.633 98.6484 174.852 92.0019 167.977C90.8349 166.765 89.9184 165.286 89.0189 163.852C86.9337 160.497 86.9961 157.885 89.5769 154.845C92.2983 151.665 95.1747 148.62 98.1583 145.675C102.448 141.441 107.114 137.609 112.069 134.178C112.931 133.578 113.837 133.049 114.755 132.551C116.774 131.487 118.851 131.521 120.754 132.687C122.185 133.572 123.575 134.631 124.727 135.848C128.241 139.565 131.619 143.385 135.037 147.173C134.956 147.238 134.89 147.297 134.825 147.357Z" fill="#F1C231"/>
<path id="Vector_3" d="M79.709 121.048C77.5187 122.736 74.8306 123.979 71.6745 123.96C67.4548 123.952 63.3292 123.349 59.2631 122.199C55.0186 120.992 52.2201 118.497 50.7444 114.286C48.0059 106.484 44.4177 99.0328 40.1775 91.9461C35.8055 84.6458 31.1738 77.4944 25.4779 71.1054C23.7144 69.1356 21.8617 67.4438 19.018 66.9947C16.6387 66.6182 15.9761 64.9745 17.273 62.9534C20.2161 58.3442 24.1791 54.7386 29.1171 52.3457C30.9862 51.4419 32.6349 52.1597 32.6749 53.9644C32.7874 58.2268 35.3718 60.9942 38.1526 63.5837C48.5565 73.229 59.6759 81.9264 72.2976 88.5439C74.0359 89.4558 75.7838 90.3467 77.5607 91.1743C80.6295 92.6071 82.3973 95.0128 83.2946 98.2315C84.7346 103.383 84.7805 108.598 84.0431 113.823C83.6555 116.644 82.0295 118.909 79.709 121.048Z" fill="#F1C231"/>
</g>
<g id="Group_4">
<path id="Vector_4" d="M29.5689 52.1955C26.9738 54.3486 24.8085 56.0096 22.7789 57.8478C20.8552 59.5942 19.0922 61.4908 17.2045 63.3813C16.455 63.0121 15.7645 62.8485 15.3301 62.4324C11.9352 59.1785 8.55961 55.8825 5.23987 52.5482C4.51469 51.8201 3.90333 50.9273 3.38028 50.0366C2.23888 48.0458 2.29725 46.082 3.63803 44.1321C5.76587 41.0503 8.46165 38.6499 11.7657 36.8985C13.6985 35.8836 15.5797 35.9552 17.2954 37.2779C18.5267 38.2381 19.7596 39.2501 20.7751 40.4304C23.0661 43.1142 25.2512 45.8899 27.4112 48.6923C28.1719 49.7047 28.7402 50.8585 29.5689 52.1955Z" fill="#152045"/>
</g>
</g>
</svg>
