<svg width="167" height="137" viewBox="0 0 167 137" fill="none" xmlns="http://www.w3.org/2000/svg">
<g id="New_group_00000060747235658557754700000003581798017438316989_">
<g id="Layer_14_xA0_Image_00000115484489056649176560000006966622343037624991_">
<g id="Group">
<path id="Vector" d="M54.0849 20.3832C52.5332 20.6449 50.9254 20.8879 50.0094 21.4301C49.0559 22.0283 48.2521 23.1314 47.8221 24.1971C47.2612 25.6179 46.9995 27.1883 46.8312 28.7213C46.5134 31.4882 45.0178 33.1894 42.4939 33.9746C39.2036 35.0216 35.8758 35.9937 32.492 36.8163C26.4347 38.2746 20.3588 39.6392 14.2828 40.9479C11.572 41.5275 8.84253 42.1071 6.09433 42.294C1.90661 42.5931 0.149244 40.4244 0.298805 36.8724C0.579234 30.7403 1.60746 24.8513 4.37435 19.3175C7.57123 12.9051 12.5068 8.62391 19.5736 6.97873C22.9387 6.19353 26.3413 5.48312 29.7625 4.99704C45.0365 2.84709 60.4039 1.81885 75.7901 0.902784C86.5212 0.267146 97.2148 -0.237593 107.965 0.117616C120.472 0.547606 132.792 2.36096 145 5.05307C148.514 5.83827 151.936 7.18435 155.32 8.47432C161.938 11.0543 164.368 16.8498 165.695 23.3745C166.387 26.7583 167.228 30.3665 166.425 33.7503C165.322 38.4802 163.265 40.2001 158.348 40.1066C147.206 39.8823 136.849 36.7976 127.314 30.9834C124.416 29.2261 122.136 26.9452 121.649 23.3183C121.556 22.6453 121.257 21.9536 120.846 21.4488C120.584 21.1123 119.911 20.8879 119.481 20.9627C119.051 21.0375 118.453 21.4863 118.378 21.8602C117.761 25.244 118.097 28.497 120.752 30.9834C123.033 33.096 125.482 35.0403 127.95 36.9285C130.305 38.7045 132.848 40.2001 135.241 41.9388C139.597 45.0983 142.439 49.3421 143.841 54.5581C145.056 59.0823 146.122 63.5878 146.533 68.299C146.981 73.2906 147.954 78.2261 148.627 83.2178C150.197 95.1079 150.104 107.054 149.412 119C149.281 121.076 148.851 123.113 148.402 125.151C146.439 134.331 136.138 133.396 128.847 133.975C105.927 135.826 82.913 136.574 59.9365 136.611C47.8407 136.611 19.4053 139.827 20.0597 121.206C20.284 115 20.9009 108.774 21.7983 102.623C23.6678 89.7798 25.743 76.9549 27.949 64.1487C28.8277 59.0449 30.1177 53.9972 31.5198 49.0055C33.0155 43.7896 36.231 39.9197 41.2787 37.4893C44.3822 35.9937 47.2799 34.0307 50.1215 32.0864C54.1223 29.3569 54.6645 25.057 54.0849 20.3832Z" fill="#F87313"/>
</g>
</g>
<g id="Layer_15_xA0_Image_00000021094830364154838490000015418127534858999981_">
<path id="Vector_2" d="M91.6619 116.308C77.79 119.337 58.4031 110.587 54.9445 89.9852C52.1028 72.9539 63.1517 56.1655 81.3234 53.2117C98.9156 50.3513 115.218 61.8676 118.097 79.6467C121.331 99.4263 106.637 114.532 91.6619 116.308Z" fill="#E65700"/>
<path id="Vector_3" d="M124.902 35.9749C123.145 34.7784 121.425 33.5445 120.116 31.8807C117.891 29.039 116.975 25.3186 116.732 21.7852C116.601 19.7287 116.601 17.635 116.358 15.5598C116.153 13.7277 115.461 13.2789 113.535 13.3724C111.18 13.4658 110.152 14.0267 110.114 15.6905C109.983 18.794 109.946 21.8974 109.946 25.0008C109.946 26.5525 109.946 28.1042 110.002 29.6559C110.021 30.4972 110.208 32.4789 108.768 32.2172C107.31 31.9554 107.684 28.8894 107.702 27.9173C107.684 25.786 107.684 23.6547 107.684 21.5422C107.665 21.1122 107.684 20.6635 107.553 20.2522C106.861 18.0648 103.44 18.6258 101.739 18.6819C90.5216 18.9997 79.2297 18.8127 68.0312 19.3361C65.8065 19.4296 64.8717 21.0375 64.8343 23.1313C64.8156 24.1596 65.6382 26.8142 64.2174 27.3003C63.7126 27.4686 63.1144 27.2442 62.8153 26.8142C62.1422 25.8234 62.6844 23.2622 62.6844 22.1031C62.7031 20.2149 62.6657 18.3266 62.4787 16.4197C62.2918 14.6249 61.787 13.4098 59.8053 13.4098C57.0758 13.4098 56.4028 14.1575 56.3093 17.317C56.2719 18.364 56.4028 19.3923 56.3841 20.4205C56.328 24.4213 55.2997 28.4594 52.7946 31.6376C49.6912 35.5636 44.9426 36.947 40.9045 39.6765C38.0441 41.6022 35.595 43.9578 33.819 46.949C32.7907 48.669 32.2673 50.9311 30.6221 52.2024C30.5286 51.7163 30.3978 51.2115 30.0613 50.8563C29.5378 50.3515 28.7151 50.3702 28.0234 50.5197C24.8078 51.2863 21.4801 51.6976 18.1898 51.978C14.9742 52.2772 11.4408 52.651 8.2252 52.2771C3.19619 51.6789 0.354543 47.5473 0.0180288 42.7426C-0.000666415 41.9574 -0.0754404 37.7135 0.317159 38.1435C3.02797 41.2656 7.10348 41.9761 11.0856 41.49C15.3668 40.9479 19.3489 39.1718 23.5366 38.2931C28.1356 37.321 32.7159 36.3488 37.3149 35.3954C39.0536 35.0215 40.811 34.6662 42.4561 33.9371C43.9704 33.2641 45.84 31.918 46.4943 30.3102C47.1486 30.6467 47.5225 31.5254 48.1208 31.9367C48.2703 32.0489 48.4199 32.1237 48.5695 32.1424C48.7752 32.1611 48.9621 32.0489 49.1491 31.9367C52.3646 29.8241 53.8041 25.8421 54.0285 22.1217C54.1593 19.71 54.0285 17.2796 54.0472 14.868C54.0659 12.1385 54.552 11.5777 57.3189 11.2225C58.0106 11.1477 58.7023 11.1103 59.3941 11.1103C63.6566 11.0168 63.75 10.9981 64.8343 15.298C65.2269 16.8497 66.1804 17.2049 67.4703 17.1675C70.7607 17.1115 74.0511 16.9619 77.3414 16.8871C86.4273 16.7188 95.6441 16.9992 104.711 16.4197C105.683 16.3636 106.73 16.0271 107.291 15.2232C107.946 14.2884 107.908 13.0733 108.731 12.232C109.796 11.1477 111.591 11.0728 113.012 11.0167C114.04 10.9794 115.087 10.9794 116.115 11.1289C117.667 11.3533 118.62 12.3255 118.733 13.9146C118.864 15.9711 118.789 18.0835 118.976 20.14C119.181 22.5143 119.555 24.4774 122.303 25.6738C127.033 32.4415 133.707 33.9184 140.157 36.6479C145.579 38.9474 158.198 40.8917 162.218 39.6765C163.545 39.2653 164.386 38.3118 164.386 38.3118C164.592 38.8353 163.04 41.4713 162.704 42.0322C160.348 45.7899 156.815 49.1924 152.122 49.2485C149.673 49.2859 147.168 48.4259 144.794 47.8838C144.308 47.7716 143.523 47.4351 143.055 47.7903C142.55 48.1829 142.775 49.1364 142.793 49.6786C142.793 50.0712 142.793 50.4824 142.831 50.875C142.849 51.118 142.831 51.7537 142.999 51.9406C138.4 46.8368 133.259 41.8639 127.669 37.8632C126.715 37.1714 125.799 36.5919 124.902 35.9749Z" fill="#E65700"/>
<path id="Vector_4" d="M143.447 51.81C143.428 51.7912 143.409 51.7725 143.391 51.7537L143.447 51.81Z" fill="black"/>
</g>
<g id="Layer_25_xA0_Image_00000165938761910862377540000001907882566173123716_">
<g id="Group_2">
<path id="Vector_5" d="M62.0664 88.7516C59.8604 75.3284 68.6845 62.8027 81.8833 60.5405C95.4748 58.2223 108.58 67.1399 110.618 80.4696C112.805 94.7714 103.869 106.699 90.4831 109.092C76.9478 111.522 64.2911 102.212 62.0664 88.7516Z" fill="#172043"/>
</g>
</g>
<g id="New_group_00000079465284167554540320000000092693280387804048_">
<g id="Layer_26_xA0_Image_00000124138722377183276890000016950234692122649779_">
<g id="Group_3">
<path id="Vector_6" d="M84.2749 73.1359C91.0238 72.089 97.3615 76.632 98.2215 83.1566C99.1002 89.8121 94.445 95.8319 87.7334 96.7479C81.3023 97.6079 75.2638 93.0463 74.3851 86.6339C73.4503 80.1466 77.8437 74.1267 84.2749 73.1359Z" fill="#F7E5D5"/>
<path id="Vector_7" d="M72.9442 77.5294C73.206 79.4737 71.729 81.3245 69.766 81.5115C68.0087 81.6797 66.3074 80.4085 65.9148 78.7259C65.5035 76.8377 66.9057 74.7812 68.7939 74.5008C70.7382 74.1642 72.6825 75.6038 72.9442 77.5294Z" fill="#F7E5D5"/>
<path id="Vector_8" d="M100.313 69.9762C102.22 69.6771 104.165 71.1166 104.426 73.0235C104.688 74.9678 103.23 76.8374 101.267 77.0243C99.4908 77.1926 97.8456 75.9587 97.4903 74.2014C97.0604 72.2384 98.3877 70.2753 100.313 69.9762Z" fill="#F7E5D5"/>
<path id="Vector_9" d="M105.286 85.774C103.398 86.204 101.416 84.8767 101.042 82.9324C100.687 81.1751 101.771 79.3429 103.398 78.8381C105.249 78.2773 107.324 79.4737 107.828 81.362C108.333 83.325 107.193 85.3066 105.286 85.774Z" fill="#F7E5D5"/>
<path id="Vector_10" d="M102.409 87.5313C104.353 87.2883 106.204 88.7653 106.41 90.7283C106.615 92.6913 105.082 94.5047 103.119 94.6169C101.362 94.7291 99.7167 93.4204 99.4176 91.663C99.0998 89.7187 100.483 87.7744 102.409 87.5313Z" fill="#F7E5D5"/>
<path id="Vector_11" d="M97.4549 102.992C95.5106 103.273 93.6784 101.796 93.4728 99.8141C93.3045 98.0194 94.501 96.3369 96.2397 96.0004C98.1466 95.6078 100.147 96.9538 100.483 98.8981C100.801 100.805 99.3992 102.749 97.4549 102.992Z" fill="#F7E5D5"/>
<path id="Vector_12" d="M83.4502 62.8162C85.4132 62.5171 87.3201 63.8818 87.5631 65.77C87.8061 67.7143 86.3479 69.453 84.3289 69.6399C82.5154 69.8269 80.9076 68.6678 80.5337 66.9105C80.1411 64.9849 81.4685 63.1154 83.4502 62.8162Z" fill="#F7E5D5"/>
<path id="Vector_13" d="M97.1364 67.9201C97.4916 69.9018 96.1643 71.7152 94.1639 72.0143C92.1822 72.2948 90.4435 70.9301 90.2005 68.8923C89.9762 67.0975 91.1913 65.4523 92.93 65.0971C94.9117 64.7232 96.7999 65.9758 97.1364 67.9201Z" fill="#F7E5D5"/>
<path id="Vector_14" d="M66.962 83.2501C68.8502 82.764 70.9067 84.0165 71.3554 85.9047C71.8227 87.849 70.5515 89.7934 68.5885 90.1673C66.8498 90.4851 65.0737 89.4381 64.5503 87.7368C63.9146 85.8486 65.0738 83.6987 66.962 83.2501Z" fill="#F7E5D5"/>
<path id="Vector_15" d="M78.2341 104.694C76.2898 104.955 74.4016 103.516 74.196 101.59C74.009 99.7768 75.2055 98.1502 76.9629 97.795C78.9633 97.4024 80.8515 98.6363 81.2067 100.599C81.5806 102.562 80.2345 104.432 78.2341 104.694Z" fill="#F7E5D5"/>
<path id="Vector_16" d="M86.8727 100.02C88.8918 99.7019 90.7613 101.011 91.023 102.974C91.2848 104.899 89.8266 106.75 87.8449 106.937C86.0689 107.105 84.3675 105.909 83.9936 104.189C83.5449 102.282 84.8723 100.319 86.8727 100.02Z" fill="#F7E5D5"/>
<path id="Vector_17" d="M71.4493 98.4868C69.4863 98.8046 67.6728 97.4399 67.4111 95.4396C67.1867 93.5887 68.2711 92.0183 70.0471 91.6257C72.0475 91.1957 73.9544 92.3922 74.3283 94.3178C74.7209 96.2995 73.4309 98.169 71.4493 98.4868Z" fill="#F7E5D5"/>
<path id="Vector_18" d="M78.5899 69.0791C79.0199 70.9673 77.6926 72.9116 75.7483 73.2481C74.0283 73.5472 72.2335 72.5003 71.7287 70.8364C71.1492 68.9669 72.3083 66.9852 74.2526 66.5178C76.2343 66.0318 78.1786 67.1909 78.5899 69.0791Z" fill="#F7E5D5"/>
</g>
</g>
</g>
</g>
</svg>
