<svg width="197" height="176" viewBox="0 0 197 176" fill="none" xmlns="http://www.w3.org/2000/svg">
<g id="New_group_00000060747235658557754700000003581798017438316989_">
<g id="Layer_14_xA0_Image_00000115484489056649176560000006966622343037624991_">
<g id="Group">
<path id="Vector" d="M82.3787 33.6871C80.8122 33.5383 79.1963 33.3569 78.1711 33.6435C77.0953 33.9746 76.0333 34.8321 75.3422 35.7501C74.4327 36.9773 73.7734 38.4265 73.2141 39.8637C72.191 42.454 70.306 43.7102 67.665 43.8155C64.2157 43.9751 60.7498 44.0529 57.2683 43.9716C51.0401 43.8124 44.818 43.5581 38.6103 43.2496C35.8419 43.1078 33.0554 42.9612 30.3524 42.4305C26.23 41.6355 25.0938 39.0859 26.1576 35.6936C28.0156 29.843 30.533 24.4208 34.6378 19.7917C39.3854 14.4252 45.2608 11.5673 52.5126 11.8072C55.9663 11.9197 59.4368 12.1142 62.8673 12.5301C78.1773 14.4066 93.2872 17.3908 108.386 20.4882C118.916 22.6516 129.376 24.9318 139.668 28.0571C151.637 31.7096 163.068 36.6498 174.163 42.4098C177.355 44.078 180.311 46.2637 183.246 48.3855C188.971 52.5904 189.819 58.8175 189.412 65.4634C189.204 68.9109 189.083 72.6139 187.431 75.6744C185.141 79.9576 182.71 81.0866 177.985 79.7238C167.28 76.6232 158.074 70.9631 150.369 62.8793C148.025 60.4318 146.412 57.6383 146.881 54.0092C146.965 53.3349 146.855 52.5894 146.589 51.9954C146.423 51.6026 145.831 51.2116 145.396 51.1726C144.962 51.1335 144.268 51.4122 144.099 51.754C142.627 54.8628 142.11 58.0921 144.031 61.1809C145.687 63.8118 147.549 66.3237 149.444 68.7863C151.26 71.1115 153.329 73.2142 155.19 75.5129C158.58 79.6922 160.227 84.5269 160.231 89.928C160.234 94.6126 160.097 99.2404 159.275 103.898C158.416 108.835 158.078 113.854 157.436 118.85C155.876 130.741 152.694 142.256 148.933 153.616C148.27 155.587 147.327 157.444 146.366 159.296C142.094 167.655 132.386 164.086 125.194 162.759C102.575 158.614 80.1521 153.38 57.9489 147.469C46.2652 144.339 17.9665 140.085 23.4179 122.269C25.241 116.331 27.4482 110.478 29.9069 104.769C35.0369 92.8466 40.3607 80.9958 45.8061 69.1969C47.9757 64.4944 50.5282 59.9525 53.1745 55.4939C55.9692 50.8428 60.0768 47.937 65.5815 46.8959C68.9663 46.2545 72.2733 45.1083 75.5214 43.9657C80.0923 42.3647 81.7289 38.3516 82.3787 33.6871Z" fill="#F299BA"/>
</g>
</g>
<g id="Layer_15_xA0_Image_00000021094830364154838490000015418127534858999981_">
<path id="Vector_2" d="M93.848 136.069C79.665 135.404 63.2031 121.935 65.1946 101.14C66.8578 83.9534 81.8753 70.5967 100.192 72.4467C117.925 74.237 130.692 89.5802 128.871 107.499C126.876 127.441 108.772 138.229 93.848 136.069Z" fill="#E676A1"/>
<path id="Vector_3" d="M146.747 67.0764C145.36 65.4659 144.018 63.8289 143.184 61.883C141.771 58.5623 141.849 54.7316 142.529 51.2557C142.934 49.2354 143.476 47.213 143.779 45.1456C144.054 43.3227 143.502 42.7102 141.618 42.3021C139.319 41.7827 138.18 42.0583 137.713 43.6558C136.784 46.6196 135.944 49.6077 135.141 52.6053C134.74 54.1042 134.338 55.603 133.991 57.1163C133.791 57.9338 133.459 59.8963 132.136 59.2709C130.795 58.6407 131.95 55.776 132.219 54.8418C132.753 52.7783 133.305 50.7196 133.851 48.679C133.945 48.2589 134.079 47.8303 134.059 47.3991C133.957 45.1073 130.507 44.7636 128.849 44.3775C117.932 41.7813 107.073 38.6781 96.1209 36.2853C93.9478 35.7998 92.6287 37.1109 92.0507 39.1238C91.7665 40.1121 91.874 42.8893 90.3758 42.9911C89.8446 43.0229 89.3249 42.6514 89.1472 42.1586C88.7536 41.0273 89.9401 38.6938 90.2401 37.5742C90.7469 35.7551 91.1995 33.9215 91.5125 32.0312C91.7964 30.2492 91.6233 28.9448 89.7091 28.4319C87.0726 27.7254 86.229 28.2735 85.321 31.3012C85.0139 32.3027 84.8742 33.3299 84.59 34.3182C83.5004 38.1682 81.462 41.8026 78.2196 44.2241C74.2058 47.2131 69.261 47.3204 64.654 48.9117C61.3927 50.0314 58.4174 51.6729 55.9277 54.1025C54.4893 55.4978 53.3982 57.5473 51.4801 58.3495C51.5156 57.8558 51.5199 57.3343 51.2867 56.9041C50.9118 56.281 50.1123 56.0862 49.4054 56.0516C46.1011 55.9598 42.7803 55.4958 39.5294 54.9151C36.346 54.3717 32.8362 53.8183 29.827 52.6249C25.1242 50.7455 23.4487 46.0192 24.3672 41.2911C24.5524 40.5278 25.5785 36.4092 25.8465 36.9262C27.6568 40.6435 31.4096 42.3846 35.3818 42.9457C39.6574 43.5301 43.9635 42.8452 48.236 43.0803C52.9299 43.3316 57.6058 43.5781 62.2948 43.8474C64.071 43.9363 65.8605 44.0479 67.6383 43.7695C69.2752 43.5113 71.4294 42.695 72.4776 41.3113C73.0225 41.8057 73.1562 42.7512 73.6277 43.3033C73.7431 43.4504 73.8682 43.5614 74.0078 43.6182C74.2016 43.6895 74.4113 43.6294 74.6209 43.5695C78.2737 42.3612 80.6948 38.8873 81.8744 35.3518C82.6249 33.0562 83.1276 30.6747 83.7698 28.3501C84.4943 25.7184 85.109 25.3026 87.8735 25.6756C88.561 25.7824 89.2389 25.9253 89.9071 26.1043C94.0485 27.1173 94.1436 27.1234 94.0781 31.5574C94.0557 33.1578 94.8847 33.7477 96.1404 34.0455C99.3332 34.8429 102.55 35.55 105.748 36.3294C114.568 38.5185 123.398 41.1748 132.306 42.9618C133.259 43.1592 134.358 43.1051 135.108 42.4737C135.982 41.7402 136.26 40.5568 137.272 39.957C138.582 39.1855 140.335 39.5777 141.722 39.8913C142.725 40.1213 143.736 40.3923 144.691 40.8029C146.132 41.4212 146.801 42.607 146.498 44.171C146.092 46.1913 145.473 48.2124 145.121 50.2472C144.706 52.5938 144.559 54.5868 146.904 56.4538C149.721 64.215 155.785 67.369 161.309 71.6749C165.951 75.2992 177.637 80.4434 181.834 80.3099C183.222 80.2562 184.282 79.553 184.282 79.553C184.345 80.1118 182.164 82.2564 181.693 82.7111C178.446 85.7311 174.152 88.1031 169.605 86.9428C167.229 86.3451 165.032 84.866 162.879 83.7278C162.439 83.4937 161.767 82.9655 161.224 83.1876C160.635 83.4362 160.605 84.4152 160.482 84.9437C160.381 85.323 160.274 85.7201 160.209 86.109C160.164 86.3486 159.981 86.9578 160.096 87.1819C156.974 81.0617 153.295 74.9277 148.931 69.6165C148.189 68.7015 147.455 67.9046 146.747 67.0764Z" fill="#E676A1"/>
<path id="Vector_4" d="M160.562 87.1718C160.549 87.1488 160.536 87.1258 160.522 87.1028L160.562 87.1718Z" fill="black"/>
</g>
<g id="Layer_25_xA0_Image_00000165938761910862377540000001907882566173123716_">
<g id="Group_2">
<path id="Vector_5" d="M72.3928 101.792C73.7361 88.2549 85.5015 78.4398 98.8361 79.6709C112.564 80.9494 122.915 92.955 121.433 106.358C119.845 120.739 108.126 129.947 94.5768 128.794C80.8736 127.638 71.0579 115.369 72.3928 101.792Z" fill="#172043"/>
</g>
</g>
<g id="New_group_00000079465284167554540320000000092693280387804048_">
<g id="Layer_26_xA0_Image_00000124138722377183276890000016950234692122649779_">
<g id="Group_3">
<path id="Vector_6" d="M97.9065 92.4812C104.696 93.2167 109.642 99.2452 108.784 105.77C107.91 112.426 101.856 117.036 95.1359 116.184C88.7013 115.35 84.0492 109.381 84.8601 102.96C85.6362 96.4514 91.438 91.7737 97.9065 92.4812Z" fill="#F7E5D5"/>
<path id="Vector_7" d="M85.8247 93.7924C85.5742 95.7382 83.6686 97.1437 81.7241 96.8162C79.9831 96.5239 78.6688 94.8557 78.7251 93.1288C78.8165 91.1985 80.7031 89.575 82.5996 89.7928C84.5647 89.971 86.0702 91.8647 85.8247 93.7924Z" fill="#F7E5D5"/>
<path id="Vector_8" d="M114.216 93.5803C116.135 93.7849 117.641 95.6786 117.4 97.5883C117.15 99.5341 115.257 100.963 113.313 100.635C111.554 100.338 110.284 98.7202 110.396 96.9308C110.488 94.9234 112.278 93.3708 114.216 93.5803Z" fill="#F7E5D5"/>
<path id="Vector_9" d="M114.931 110.127C112.996 110.053 111.425 108.258 111.567 106.284C111.679 104.494 113.201 103.005 114.902 102.939C116.835 102.876 118.53 104.569 118.529 106.523C118.508 108.55 116.894 110.169 114.931 110.127Z" fill="#F7E5D5"/>
<path id="Vector_10" d="M111.697 111.08C113.638 111.348 115.043 113.254 114.734 115.203C114.425 117.152 112.475 118.507 110.549 118.108C108.823 117.761 107.572 116.071 107.738 114.296C107.935 112.336 109.774 110.816 111.697 111.08Z" fill="#F7E5D5"/>
<path id="Vector_11" d="M102.91 124.732C100.96 124.499 99.5722 122.598 99.8865 120.631C100.188 118.854 101.78 117.538 103.546 117.663C105.49 117.778 107.074 119.596 106.895 121.561C106.709 123.485 104.851 125 102.91 124.732Z" fill="#F7E5D5"/>
<path id="Vector_12" d="M99.7812 82.2998C101.755 82.5189 103.243 84.3306 102.989 86.2174C102.721 88.1583 100.862 89.4604 98.8638 89.1184C97.0638 88.8296 95.8107 87.2939 95.9044 85.4997C96.0236 83.5381 97.7896 82.0758 99.7812 82.2998Z" fill="#F7E5D5"/>
<path id="Vector_13" d="M111.68 90.7721C111.51 92.7782 109.758 94.1863 107.749 93.9575C105.762 93.7155 104.436 91.9473 104.729 89.916C104.976 88.1244 106.576 86.8497 108.347 86.9566C110.358 87.1084 111.858 88.807 111.68 90.7721Z" fill="#F7E5D5"/>
<path id="Vector_14" d="M78.5654 97.7698C80.515 97.789 82.1773 99.5311 82.122 101.471C82.0702 103.47 80.339 105.019 78.3461 104.872C76.5844 104.729 75.1399 103.258 75.0746 101.479C74.9493 99.4911 76.6254 97.7145 78.5654 97.7698Z" fill="#F7E5D5"/>
<path id="Vector_15" d="M83.9039 121.4C81.9581 121.15 80.5068 119.271 80.8065 117.357C81.0953 115.557 82.672 114.296 84.4614 114.408C86.4953 114.546 87.9998 116.227 87.8348 118.215C87.6879 120.208 85.9039 121.665 83.9039 121.4Z" fill="#F7E5D5"/>
<path id="Vector_16" d="M93.4576 119.121C95.4901 119.337 96.9572 121.085 96.702 123.049C96.4564 124.977 94.5689 126.387 92.6063 126.055C90.8472 125.757 89.5136 124.161 89.5975 122.403C89.6577 120.445 91.4479 118.893 93.4576 119.121Z" fill="#F7E5D5"/>
<path id="Vector_17" d="M78.9566 113.649C76.9782 113.448 75.5798 111.66 75.8447 109.66C76.107 107.814 77.5609 106.578 79.378 106.658C81.4215 106.761 82.9538 108.41 82.8166 110.367C82.6829 112.383 80.953 113.855 78.9566 113.649Z" fill="#F7E5D5"/>
<path id="Vector_18" d="M93.4651 87.0911C93.3917 89.0263 91.6064 90.5608 89.6413 90.3826C87.9025 90.2264 86.4398 88.7506 86.3829 87.0128C86.3069 85.057 87.9395 83.4428 89.9385 83.4946C91.9784 83.538 93.5565 85.1608 93.4651 87.0911Z" fill="#F7E5D5"/>
</g>
</g>
</g>
</g>
</svg>
