<svg width="289" height="195" viewBox="0 0 289 195" fill="none" xmlns="http://www.w3.org/2000/svg">
<path d="M193.219 60.0239C195.696 62.3531 194.909 65.6336 195.729 68.4549C196.205 70.046 194.958 71.6699 193.531 72.2276C192.071 72.8181 190.48 72.3916 189.25 71.0958C185.871 67.5364 185.494 64.7151 187.872 59.9419C187.314 59.3022 186.675 58.6461 186.133 57.9243C185.067 56.4973 184.723 54.8406 184.87 53.0855C185.051 50.8547 186.215 49.7886 188.479 49.8542C189.266 49.8706 190.054 50.0182 190.808 50.1822C194.876 51.0844 196.385 54.1517 194.564 57.8587C194.22 58.564 193.744 59.2037 193.219 60.0239Z" fill="#F097B8"/>
<path d="M50.2206 138.724C47.8094 138.265 46.1692 136.986 45.6279 134.525C45.0702 131.983 45.9395 129.883 47.793 128.21C49.3513 126.816 52.0905 126.816 53.9605 128.21C56.1748 129.851 57.3886 132.081 57.3558 134.886C57.323 137.658 56.0272 138.987 53.3044 139.02C52.2874 139.02 51.254 138.823 50.2206 138.724Z" fill="#F097B8"/>
<path d="M72.6923 26.6606C72.5282 27.0378 72.2986 27.7924 71.9377 28.4649C70.3138 31.4338 68.4275 31.9095 65.5406 30.1216C64.8845 29.7115 64.2612 29.2358 63.6543 28.7273C61.8008 27.1855 60.8659 25.2663 61.6696 22.8715C62.5225 20.3291 64.3268 18.7052 67.0169 18.3444C67.837 18.2295 68.8376 18.5084 69.5757 18.9185C72.069 20.2635 73.3156 23.298 72.6923 26.6606Z" fill="#F097B8"/>
<path d="M31.1272 16.2776C30.7007 16.1136 29.9298 15.9331 29.2408 15.5723C27.6334 14.7193 26.8297 13.3579 27.4202 11.7012C28.0599 9.8969 28.8964 8.02698 30.143 6.61634C32.2262 4.23794 36.13 4.74643 38.4264 7.40368C40.5424 9.8477 40.2963 12.8822 37.7211 14.9654C35.884 16.4416 33.7352 16.8189 31.1272 16.2776Z" fill="#F097B8"/>
<path d="M196.237 97.9143C195.532 101.047 192.366 102.769 189.315 101.556C186.74 100.522 185.067 98.5868 184.444 95.8639C183.952 93.748 184.723 92.2717 186.724 91.5172C187.692 91.1399 188.725 90.8939 189.742 90.7463C194.318 90.1394 197.254 93.4035 196.237 97.9143Z" fill="#F097B8"/>
<path d="M186.281 36.3874C186.675 36.5022 187.314 36.6662 187.921 36.8959C190.037 37.6996 191.448 39.1267 191.612 41.5051C191.809 44.1295 190.579 46.0486 188.397 47.3609C186.937 48.2466 185.379 48.0334 183.903 47.246C180.72 45.5237 179.392 40.8326 181.213 37.6668C182.148 36.0429 183.378 35.7149 186.281 36.3874Z" fill="#F097B8"/>
<path d="M181.951 66.5195C181.279 68.7831 179.606 70.6366 176.866 71.4239C174.783 72.0144 173.225 71.3255 172.388 69.3736C171.88 68.1926 171.536 66.8968 171.322 65.6337C170.945 63.3046 171.88 61.5166 173.897 60.4341C175.997 59.3023 178.162 59.2531 180.229 60.4997C181.918 61.5166 182.591 63.7802 181.951 66.5195Z" fill="#F097B8"/>
<path d="M65.2776 161.623C64.5067 165.215 62.4727 166.33 59.2414 164.952C58.29 164.542 57.3387 164.05 56.5021 163.443C54.4518 161.934 53.8777 159.458 54.8946 157.145C55.8624 154.963 58.0604 153.323 60.0451 153.503C62.3251 153.717 63.867 155.062 64.8019 157.112C65.4745 158.588 65.6548 160.13 65.2776 161.623Z" fill="#F097B8"/>
<path d="M221.744 53.2003C221.055 56.7105 216.971 58.7936 213.264 57.6454C209.737 56.5464 208.786 54.2664 210.557 51.0515C211 50.2478 211.508 49.4768 212.099 48.7879C213.624 47.0164 215.658 46.4751 217.758 47.2789C220.005 48.1318 221.416 49.7393 221.777 52.1669C221.859 52.5605 221.76 52.9542 221.744 53.2003Z" fill="#F097B8"/>
<path d="M184.657 30.499C183.854 33.2219 182.541 34.8129 180.425 35.5018C179.523 35.7971 178.309 35.7479 177.44 35.3706C173.356 33.6319 172.339 27.4973 175.636 24.5284C176.226 23.9871 177.325 23.5606 178.08 23.7082C180.425 24.1511 182.558 25.3157 183.854 27.3661C184.493 28.383 184.493 29.7937 184.657 30.499Z" fill="#F097B8"/>
<path d="M94.9671 188.622C94.393 190.869 93.0971 192.575 90.9648 193.592C89.2261 194.412 87.9795 194.199 86.8313 192.673C86.0604 191.64 85.3879 190.475 84.945 189.278C83.8952 186.473 84.9122 184.095 87.5858 182.782C89.4557 181.864 91.4077 181.683 93.13 182.979C94.9671 184.373 95.4591 186.358 94.9671 188.622Z" fill="#F097B8"/>
<path d="M59.4054 50.8219C60.0287 48.0663 62.6039 46.5408 65.3759 47.2954C67.9348 47.9843 70.0836 50.6579 70.2148 53.3316C70.2968 54.775 69.7883 56.0544 68.3777 56.4481C66.6554 56.9238 64.7855 57.3666 63.0468 57.2026C60.4059 56.9238 58.7492 53.7252 59.4054 50.8219Z" fill="#F097B8"/>
<path d="M197.337 83.9228C196.549 87.2198 193.252 88.7125 190.3 87.0558C187.971 85.76 186.56 83.808 186.576 81.036C186.576 79.3301 187.298 78.3131 188.955 77.8702C190.087 77.575 191.284 77.3945 192.432 77.4109C195.86 77.493 198.14 80.5603 197.337 83.9228Z" fill="#F097B8"/>
<path d="M140.846 182.208C139.632 181.519 138.467 181.109 137.664 180.322C137.09 179.764 136.581 178.632 136.745 177.927C137.286 175.581 138.517 173.548 140.78 172.449C143.175 171.3 146.39 172.793 147.571 175.45C148.604 177.796 147.538 180.502 144.93 181.519C143.634 182.028 142.158 182.011 140.846 182.208Z" fill="#F097B8"/>
<path d="M176.046 139.725C175.407 139.397 174.39 139.036 173.569 138.429C170.191 135.92 170.519 132.77 174.275 130.851C177.572 129.162 180.081 129.752 181.558 132.655C182.427 134.345 182.788 136.149 181.574 137.822C180.311 139.577 178.441 139.987 176.046 139.725Z" fill="#F097B8"/>
<path d="M151.261 172.941C150.375 172.498 149.49 172.186 148.768 171.661C146.832 170.267 146.521 168.528 147.882 166.576C148.473 165.723 149.211 164.936 150.014 164.296C152.36 162.426 155.444 162.918 157.232 165.362C159.462 168.413 158.052 172.137 154.345 172.875C153.361 173.072 152.294 172.924 151.261 172.941Z" fill="#F097B8"/>
<path d="M64.9826 13.7188C64.5397 16.1137 62.1613 18.4756 59.7337 18.9185C58.2411 19.1974 57.1584 18.7873 56.4695 17.4423C55.9446 16.4089 55.5018 15.2935 55.3049 14.1617C54.5832 10.0938 58.1754 7.09213 62.1121 8.38795C64.1952 9.06046 65.4254 11.3404 64.9826 13.7188Z" fill="#F097B8"/>
<path d="M54.9111 151.912C52.0734 151.076 50.1543 150.256 49.7442 147.779C49.3833 145.663 50.023 143.891 51.6469 142.497C52.5819 141.693 53.6645 141.349 54.9275 141.546C58.6837 142.136 61.0621 147.254 59.061 150.485C58.1589 151.994 56.6006 152.371 54.9111 151.912Z" fill="#F097B8"/>
<path d="M192.515 110.758C192.104 113.07 190.185 114.514 187.709 114.366C185.051 114.202 182.492 111.988 181.869 109.363C181.558 108.084 181.836 106.952 182.952 106.296C184.051 105.656 185.281 105.148 186.511 104.787C190.349 103.655 193.072 107.411 192.515 110.758Z" fill="#F097B8"/>
<path d="M163.203 19.9519C163.466 19.4762 163.908 18.3772 164.647 17.4915C166.566 15.1787 168.583 15.1951 170.519 17.4751C171.191 18.2624 171.765 19.1646 172.192 20.0995C172.914 21.6742 172.569 23.1504 171.486 24.4791C169.994 26.3326 167.419 27.1035 165.532 26.2506C163.646 25.414 162.613 23.0192 163.203 19.9519Z" fill="#F097B8"/>
<path d="M72.2003 173.285C71.8394 173.908 71.413 174.876 70.7733 175.68C69.9859 176.68 68.7885 177.189 67.6567 176.566C66.1969 175.762 64.6878 174.86 63.6053 173.629C61.8994 171.71 62.8015 168.463 65.1963 166.888C67.3779 165.444 69.8547 165.92 71.331 168.085C72.3151 169.562 72.4627 171.218 72.2003 173.285Z" fill="#F097B8"/>
<path d="M10.0499 40.8162C9.55782 43.0798 7.31063 44.5232 4.96504 44.0803C2.48822 43.621 0.257415 41.0294 0.224609 38.4542C0.224609 37.8473 0.421471 37.1256 0.765929 36.6335C1.73369 35.2556 5.63754 34.4683 7.35983 35.2064C9.32816 36.0594 10.5256 38.5854 10.0499 40.8162Z" fill="#F097B8"/>
<path d="M160.972 162.459C160.398 162.213 159.906 162.049 159.447 161.803C155.986 159.999 155.723 157.276 158.758 154.799C161.759 152.339 164.892 152.929 166.467 156.259C167.73 158.9 166.467 161.606 163.597 162.262C162.727 162.459 161.809 162.394 160.972 162.459Z" fill="#F097B8"/>
<path d="M182.017 126.767C181.771 126.685 181.525 126.619 181.279 126.521C178.933 125.553 177.096 122.863 177.605 121.124C178.097 119.418 181.673 117.663 183.871 118.057C186.249 118.483 187.922 121.141 187.446 123.716C187.02 126.029 184.576 127.406 182.017 126.767Z" fill="#F097B8"/>
<path d="M81.746 182.307C81.0899 184.16 80.2533 185.915 78.2522 186.26C76.169 186.621 74.9716 184.947 73.889 183.488C72.6424 181.815 72.7081 180.027 73.8727 178.436C74.9881 176.91 77.0548 176.024 78.6295 176.402C80.2369 176.795 81.6312 178.518 81.8116 180.437C81.8772 181.093 81.7788 181.733 81.746 182.307Z" fill="#F097B8"/>
<path d="M152.902 29.7935C151.016 29.3178 149.474 27.7431 149.293 26.1192C149.113 24.4626 150.245 22.6255 152.016 21.7561C152.475 21.5265 152.984 21.3624 153.492 21.264C155.51 20.8212 157.708 21.4445 158.397 22.7895C159.43 24.8234 158.397 26.6113 157.38 28.2516C156.445 29.7771 154.723 30.2527 152.902 29.7935Z" fill="#F097B8"/>
<path d="M271.117 16.655C266.983 15.9168 265.901 13.112 268.099 10.1759C270.411 7.07574 273.872 6.99373 275.89 10.0118C277.415 12.2918 276.841 14.785 274.348 15.9168C273.2 16.4417 271.838 16.5073 271.117 16.655Z" fill="#F097B8"/>
<path d="M281.352 8.634C280.843 8.32234 279.908 7.84665 279.154 7.17414C278.711 6.78047 278.416 6.07516 278.333 5.46826C278.12 3.56554 280.745 0.399798 282.746 0.0553395C284.96 -0.338327 287.421 1.41676 288.028 3.77876C288.356 5.02538 288.011 6.10797 287.175 7.04293C285.748 8.6668 283.878 8.97846 281.352 8.634Z" fill="#F097B8"/>
<path d="M49.22 123.814C47.3173 123.371 46.3003 122.272 45.9887 120.337C45.677 118.418 46.5464 116.466 48.0882 115.629C49.5481 114.826 51.3688 115.072 52.845 116.269C54.6657 117.729 55.6007 120.534 54.8462 122.223C54.1737 123.699 51.7133 124.388 49.22 123.814Z" fill="#F097B8"/>
<path d="M258.65 24.069C258.306 23.8721 257.338 23.4457 256.567 22.806C256.124 22.4287 255.78 21.7234 255.714 21.1329C255.485 19.2958 257.945 16.3925 259.913 16.048C262.193 15.6543 264.654 17.4094 265.146 19.7714C265.425 21.0673 264.851 22.0842 264.014 22.9372C262.702 24.2658 261.078 24.5447 258.65 24.069Z" fill="#F097B8"/>
<path d="M9.86916 30.2365C7.44155 29.7608 5.39122 27.4152 5.63726 25.3813C5.8341 23.6918 9.22946 21.9367 11.3618 22.4124C13.3794 22.8716 14.872 25.4305 14.4128 27.6121C14.0027 29.5312 12.0507 30.663 9.86916 30.2365Z" fill="#F097B8"/>
<path d="M67.0169 42.7191C63.966 42.1614 62.6046 39.1268 64.1793 36.4204C64.983 35.0262 66.2624 34.288 67.7879 34.7637C68.854 35.0918 69.9367 35.7315 70.6912 36.5352C72.0362 37.9622 72.2002 40.3242 71.3473 41.6365C70.6584 42.637 68.9525 43.0799 67.0169 42.7191Z" fill="#F097B8"/>
<path d="M247.349 31.8602C246.939 31.5814 246.053 31.0565 245.299 30.3839C244.954 30.0723 244.741 29.4982 244.692 29.0061C244.528 27.333 246.89 24.6594 248.743 24.3477C250.711 24.0033 252.86 25.5779 253.303 27.6775C253.566 28.9405 253.123 29.9575 252.221 30.8104C251.138 31.8602 249.399 32.3195 247.349 31.8602Z" fill="#F097B8"/>
<path d="M153.427 55.0375C149.605 54.1681 148.276 50.7727 150.72 48.1155C152.082 46.6228 154.017 46.4588 155.592 47.7382C156.904 48.788 157.462 50.215 157.478 51.8389C157.495 54.4306 155.969 55.6116 153.427 55.0375Z" fill="#F097B8"/>
<path d="M131.431 180.83C133.645 181.339 134.859 183.127 134.367 185.111C133.809 187.375 131.365 188.654 128.79 188.064C126.92 187.621 126.182 186.489 126.575 184.636C127.231 181.667 129.003 180.273 131.431 180.83Z" fill="#F097B8"/>
<path d="M48.1207 5.71417C50.1546 6.23906 51.188 7.87934 50.6959 9.81487C50.1218 12.062 47.481 13.6531 45.2174 13.0954C43.5279 12.6854 42.7898 10.8646 43.3967 8.58466C44.0036 6.28827 45.8735 5.14007 48.1207 5.71417Z" fill="#F097B8"/>
<path d="M202.537 62.9929C199.945 62.3532 199.273 61.2706 199.797 59.3515C200.011 58.6134 200.306 57.8588 200.716 57.2027C201.536 55.9397 203.078 55.3656 204.489 55.7593C205.981 56.1693 207.015 57.1207 207.376 58.6462C207.687 59.9584 206.998 61.6151 205.588 62.2384C204.456 62.7633 203.144 62.8617 202.537 62.9929Z" fill="#F097B8"/>
<path d="M107.203 190.984C106.727 193.083 104.185 194.855 102.217 194.445C100.675 194.133 99.625 191.722 100.084 189.557C100.494 187.654 102.545 186.424 104.611 186.85C106.465 187.227 107.646 189.081 107.203 190.984Z" fill="#F097B8"/>
<path d="M166.483 62.222C166.171 64.0427 164.547 65.6993 163.186 65.5681C161.283 65.3877 159.167 62.6156 159.479 60.7293C159.807 58.761 161.956 57.2191 163.777 57.6128C165.548 57.9736 166.827 60.1552 166.483 62.222Z" fill="#F097B8"/>
<path d="M236.719 39.8157C234.997 39.4056 233.701 37.9294 233.915 36.6007C234.193 34.7308 236.555 32.7625 238.327 32.9429C240.344 33.1398 242.034 35.0425 241.837 36.8796C241.624 38.8971 239.032 40.3734 236.719 39.8157Z" fill="#F097B8"/>
<path d="M53.8784 89.0077C55.9615 89.467 57.6182 91.6485 57.3722 93.5841C57.159 95.1259 54.6985 96.2741 52.5333 95.8312C50.565 95.4376 49.4168 93.4036 49.9581 91.2877C50.4174 89.4998 51.9921 88.5812 53.8784 89.0077Z" fill="#F097B8"/>
<path d="M169.075 150.075C167.074 149.583 165.499 147.812 165.745 146.335C166.008 144.761 168.878 142.956 170.65 143.268C172.552 143.596 173.963 145.663 173.618 147.631C173.274 149.583 171.322 150.633 169.075 150.075Z" fill="#F097B8"/>
<path d="M114.126 188.769C114.552 186.752 116.209 185.538 118.095 185.85C119.949 186.161 121.146 187.802 120.769 189.507C120.31 191.525 118.03 192.968 115.963 192.526C114.454 192.197 113.716 190.688 114.126 188.769Z" fill="#F097B8"/>
<path d="M19.8919 20.1814C17.9563 19.6894 16.7917 18.3607 16.9558 17.1469C17.169 15.5887 19.2522 13.7844 20.8268 13.768C22.4671 13.7516 24.1238 15.2606 24.2714 16.9173C24.419 18.4591 23.2544 19.8698 21.5157 20.165C20.8924 20.2635 20.2363 20.1814 19.8919 20.1814Z" fill="#F097B8"/>
<path d="M225.943 47.7217C223.974 47.3773 222.859 46.0979 223.204 44.6216C223.663 42.6041 225.73 40.9966 227.436 41.3247C229.24 41.6691 230.7 43.7195 230.322 45.3762C229.912 47.0656 227.993 48.099 225.943 47.7217Z" fill="#F097B8"/>
<path d="M64.3102 66.7161C64.0477 68.0776 62.0138 69.1438 60.2423 68.8485C58.5528 68.5697 57.5195 66.8966 57.8803 65.0431C58.2084 63.4028 59.701 62.4022 61.3249 62.7467C63.1128 63.1403 64.6054 65.1251 64.3102 66.7161Z" fill="#F097B8"/>
<path d="M57.5028 76.1641C59.3235 76.6398 60.7997 78.805 60.3077 80.2812C59.8976 81.5442 57.5356 82.4628 55.9117 81.9871C54.4519 81.5607 53.4841 79.8056 53.8286 78.2473C54.173 76.7218 55.8953 75.7377 57.5028 76.1641Z" fill="#F097B8"/>
<path d="M149.015 41.0131C147.374 40.6687 146.308 38.8152 146.767 37.0601C147.145 35.6166 148.522 34.8129 150.13 35.1245C152.065 35.4854 153.575 37.3717 153.23 38.9956C152.935 40.3242 150.77 41.374 149.015 41.0131Z" fill="#F097B8"/>
<path d="M50.3674 109.003C48.7108 108.609 47.6774 106.723 48.1859 105.05C48.6124 103.655 50.0886 102.786 51.5484 103.098C53.2871 103.475 54.7798 105.476 54.5173 107.116C54.2713 108.527 52.2538 109.446 50.3674 109.003Z" fill="#F097B8"/>
</svg>
