<svg xmlns="http://www.w3.org/2000/svg" width="236" height="197" viewBox="0 0 236 197" fill="none">
  <path d="M204.188 107.325C203.728 107.325 203.256 107.313 202.967 107.426C202.665 107.551 202.382 107.828 202.206 108.111C201.973 108.488 201.822 108.928 201.696 109.355C201.47 110.128 200.954 110.543 200.193 110.644C199.199 110.782 198.199 110.895 197.192 110.964C195.386 111.084 193.581 111.172 191.775 111.247C190.97 111.279 190.159 111.31 189.366 111.228C188.152 111.109 187.755 110.399 187.976 109.393C188.359 107.652 188.944 106.018 190.008 104.572C191.241 102.894 192.864 101.913 194.965 101.794C195.965 101.737 196.978 101.7 197.978 101.731C202.457 101.869 206.905 102.334 211.353 102.831C214.454 103.177 217.543 103.56 220.601 104.195C224.161 104.937 227.596 106.062 230.956 107.432C231.924 107.828 232.837 108.381 233.743 108.922C235.51 109.984 235.919 111.763 235.976 113.692C236.007 114.692 236.07 115.767 235.674 116.697C235.127 117.998 234.453 118.388 233.05 118.117C229.874 117.501 227.061 116.112 224.621 113.975C223.878 113.328 223.337 112.567 223.375 111.505C223.381 111.31 223.331 111.096 223.237 110.933C223.18 110.826 222.998 110.726 222.872 110.726C222.746 110.726 222.551 110.826 222.513 110.927C222.167 111.863 222.104 112.812 222.74 113.655C223.287 114.371 223.891 115.05 224.507 115.71C225.092 116.332 225.747 116.885 226.344 117.501C227.433 118.62 228.037 119.972 228.181 121.537C228.307 122.888 228.389 124.233 228.276 125.597C228.156 127.049 228.194 128.507 228.137 129.966C227.999 133.441 227.382 136.854 226.596 140.236C226.458 140.821 226.231 141.386 226.005 141.946C224.992 144.473 222.085 143.699 219.972 143.505C213.322 142.901 206.698 141.983 200.117 140.858C196.657 140.261 188.359 139.777 189.467 134.485C189.838 132.719 190.322 130.971 190.882 129.255C192.052 125.673 193.279 122.109 194.543 118.557C195.047 117.143 195.663 115.76 196.311 114.403C196.997 112.982 198.11 112.039 199.671 111.593C200.633 111.316 201.558 110.902 202.47 110.487C203.76 109.89 204.125 108.689 204.188 107.325Z" fill="#BD4230"/>
  <path d="M210.208 136.609C206.087 136.792 200.973 133.335 200.998 127.269C201.023 122.26 205.018 118.004 210.365 118.055C215.543 118.105 219.638 122.203 219.588 127.426C219.531 133.247 214.58 136.842 210.208 136.609Z" fill="#912D23"/>
  <path d="M223.69 115.276C223.243 114.849 222.815 114.409 222.519 113.868C222.022 112.944 221.947 111.838 222.048 110.814C222.111 110.216 222.217 109.619 222.249 109.016C222.28 108.482 222.104 108.318 221.551 108.249C220.871 108.161 220.55 108.268 220.456 108.746C220.267 109.626 220.104 110.512 219.946 111.398C219.871 111.844 219.795 112.284 219.733 112.731C219.695 112.97 219.651 113.548 219.254 113.403C218.852 113.259 219.11 112.398 219.16 112.121C219.261 111.511 219.368 110.902 219.468 110.298C219.487 110.172 219.512 110.047 219.493 109.921C219.405 109.261 218.399 109.255 217.908 109.186C214.681 108.721 211.46 108.111 208.226 107.709C207.585 107.627 207.239 108.042 207.125 108.639C207.069 108.934 207.176 109.733 206.742 109.802C206.591 109.827 206.427 109.733 206.364 109.594C206.22 109.28 206.503 108.57 206.559 108.243C206.66 107.702 206.742 107.162 206.779 106.609C206.817 106.087 206.729 105.716 206.163 105.615C205.383 105.483 205.15 105.659 204.968 106.558C204.905 106.854 204.892 107.155 204.836 107.451C204.622 108.595 204.131 109.695 203.256 110.48C202.174 111.448 200.746 111.612 199.457 112.19C198.545 112.599 197.727 113.152 197.072 113.919C196.695 114.359 196.431 114.981 195.896 115.264C195.896 115.119 195.883 114.968 195.802 114.849C195.676 114.679 195.443 114.641 195.235 114.654C194.279 114.717 193.304 114.667 192.348 114.585C191.411 114.509 190.385 114.447 189.479 114.176C188.07 113.755 187.46 112.435 187.598 111.046C187.63 110.82 187.818 109.601 187.913 109.745C188.536 110.77 189.668 111.178 190.832 111.235C192.084 111.291 193.31 110.977 194.556 110.933C195.921 110.883 197.28 110.832 198.645 110.782C199.161 110.763 199.683 110.744 200.186 110.619C200.652 110.499 201.256 110.21 201.52 109.783C201.69 109.908 201.753 110.179 201.904 110.33C201.942 110.367 201.979 110.399 202.023 110.411C202.08 110.424 202.143 110.405 202.2 110.38C203.225 109.934 203.835 108.865 204.081 107.815C204.238 107.13 204.32 106.433 204.445 105.741C204.584 104.962 204.754 104.824 205.559 104.861C205.76 104.874 205.962 104.899 206.157 104.93C207.383 105.113 207.409 105.113 207.509 106.395C207.547 106.86 207.799 107.005 208.17 107.061C209.113 107.206 210.063 107.325 211.007 107.47C213.618 107.872 216.241 108.406 218.864 108.689C219.147 108.721 219.462 108.677 219.663 108.475C219.896 108.243 219.946 107.891 220.223 107.69C220.582 107.432 221.098 107.501 221.507 107.551C221.802 107.589 222.104 107.646 222.387 107.734C222.821 107.872 223.048 108.199 222.998 108.658C222.935 109.255 222.809 109.852 222.758 110.449C222.702 111.14 222.708 111.719 223.438 112.196C224.457 114.365 226.294 115.119 228.005 116.213C229.446 117.137 232.956 118.319 234.17 118.168C234.573 118.117 234.856 117.885 234.856 117.885C234.887 118.042 234.315 118.721 234.189 118.865C233.327 119.821 232.151 120.625 230.805 120.405C230.1 120.292 229.427 119.928 228.773 119.651C228.641 119.594 228.433 119.462 228.282 119.538C228.118 119.626 228.137 119.909 228.112 120.066C228.093 120.179 228.074 120.298 228.062 120.412C228.055 120.481 228.018 120.663 228.055 120.726C226.992 119.041 225.766 117.363 224.363 115.943C224.149 115.71 223.916 115.496 223.69 115.276Z" fill="#912D23"/>
  <path d="M162.906 105.678C162.906 105.697 162.9 105.71 162.9 105.729C162.843 106.187 162.761 106.627 163.214 106.898C163.799 107.25 164.391 107.463 165.07 107.193C165.58 106.986 165.334 106.514 165.108 106.213C164.775 105.773 164.517 105.276 164.353 104.748C164.303 104.591 164.259 104.434 164.265 104.27C164.284 103.453 165.246 103.441 165.712 103.893C165.995 104.164 166.14 104.547 166.215 104.93C166.341 105.534 166.272 106.225 166.693 106.722C167.071 107.162 167.668 107.25 168.216 107.231C169.191 107.199 168.235 106.118 168.04 105.779C167.788 105.339 167.467 104.591 167.58 104.069C167.687 103.573 168.266 103.485 168.656 103.698C169.134 103.962 169.512 104.434 169.694 104.943C169.952 105.678 169.707 106.565 170.26 107.181C170.676 107.646 171.374 107.841 171.959 107.577C172.072 107.526 172.192 107.212 172.135 107.111C171.971 106.81 171.669 106.571 171.518 106.269C171.279 105.785 171.028 105.276 170.933 104.748C170.877 104.409 171.003 104.076 171.336 103.931C171.544 103.843 171.783 103.843 172.003 103.893C173.198 104.17 173.33 105.421 173.368 106.439C173.393 107.155 173.469 107.313 174.129 107.507C174.419 107.595 174.721 107.658 175.016 107.665C175.199 107.671 175.444 107.589 175.538 107.457C175.74 107.181 175.205 106.546 175.067 106.345C174.897 106.093 174.727 105.842 174.639 105.546C174.406 104.786 174.934 104.277 175.689 104.528C176.249 104.717 176.608 105.15 176.784 105.697C176.897 106.049 176.922 106.401 176.992 106.766C177.042 107.03 177.174 107.306 177.426 107.394C177.816 107.526 178.413 107.143 178.715 106.935C179.074 106.684 179.087 106.332 178.898 105.961C178.734 105.634 178.508 105.345 178.338 105.018C178.111 104.591 177.891 103.755 178.546 103.566C178.904 103.466 179.332 103.629 179.546 104.057C179.722 104.409 179.867 104.805 179.886 105.188C179.917 105.917 180.269 106.257 180.949 106.439C181.653 106.627 182.245 106.521 182.742 106.005C182.842 105.898 182.867 105.609 182.792 105.471C182.628 105.163 182.352 104.924 182.175 104.622C182.006 104.321 181.855 103.994 181.785 103.661C181.678 103.152 182.006 102.592 182.584 102.724C182.817 102.774 183.012 102.932 183.157 103.12C183.622 103.711 183.647 104.352 183.805 105.05C183.836 105.194 183.887 105.345 183.987 105.452C184.113 105.59 184.302 105.653 184.49 105.691C185.126 105.804 186.126 105.251 185.522 104.534C185.264 104.233 184.981 103.944 184.786 103.604C184.616 103.296 184.736 102.888 185.094 102.812C185.843 102.668 185.956 103.403 186.34 103.805C186.717 104.201 187.277 104.302 187.793 104.384C188.139 104.44 188.46 104.591 188.8 104.666C190.379 104.993 189.888 105.226 189.611 105.383C189.504 105.44 189.114 105.333 189.001 105.301C188.548 105.176 187.818 104.949 187.353 104.893C187.139 104.868 186.913 104.861 186.711 104.943C186.409 105.069 186.233 105.377 186.051 105.647C185.805 106.018 185.484 106.244 185.038 106.301C184.459 106.376 183.943 106.024 183.39 106.313C183.144 106.439 182.93 106.627 182.691 106.766C182.232 107.036 181.678 107.137 181.156 107.055C180.615 106.973 180.099 106.621 179.571 106.954C179.326 107.111 179.124 107.331 178.898 107.507C178.237 108.017 177.583 107.916 176.816 107.947C175.998 107.979 175.224 108.369 174.4 108.155C174.079 108.073 173.771 107.935 173.444 107.866C172.921 107.759 172.575 107.979 172.11 108.161C171.412 108.438 170.701 108.029 170.046 107.803C169.128 107.482 168.228 107.991 167.329 107.696C167.046 107.602 166.788 107.438 166.492 107.382C165.806 107.25 165.366 107.847 164.718 107.922C164.315 107.973 163.913 107.853 163.548 107.677C163.34 107.577 163.139 107.457 162.912 107.382C162.195 107.143 161.617 107.784 160.906 107.771C160.497 107.765 160.107 107.602 159.704 107.495C158.981 107.3 158.502 107.658 157.804 107.715C157.03 107.771 156.584 107.174 155.892 107.042C155.269 106.923 154.696 107.369 154.067 107.262C152.966 107.08 152.438 105.791 151.199 106.049C150.066 106.288 148.965 105.138 148.393 104.289C147.846 103.478 147.493 102.554 147.154 101.637C146.946 101.077 146.738 100.512 146.537 99.9523C146.493 99.8266 146.449 99.6946 146.474 99.5626C146.499 99.4306 146.631 99.3111 146.764 99.3489C146.87 99.3803 146.927 99.4997 146.965 99.6065C147.575 101.304 148.104 102.957 149.217 104.402C149.62 104.924 150.173 105.377 150.828 105.446C151.413 105.509 151.582 105.15 151.425 104.648C151.299 104.239 151.136 103.843 151.06 103.422C150.922 102.655 151.28 101.473 152.293 101.825C152.595 101.932 152.841 102.171 152.992 102.454C153.237 102.9 153.281 103.441 153.199 103.944C153.111 104.484 152.469 105.37 152.897 105.848C153.306 106.307 153.816 106.684 154.464 106.646C154.722 106.627 155.017 106.495 155.049 106.244C155.061 106.137 155.024 106.037 154.992 105.936C154.74 105.226 154.445 104.446 154.615 103.686C154.659 103.485 154.734 103.29 154.879 103.145C155.539 102.466 156.345 103.302 156.445 104C156.502 104.402 156.433 104.811 156.357 105.207C156.219 105.98 156.175 106.583 156.986 106.961C157.244 107.08 157.521 107.168 157.804 107.149C158.339 107.118 158.679 106.778 158.477 106.263C158.263 105.704 158.012 105.157 157.848 104.578C157.754 104.252 157.76 103.881 157.817 103.548C157.886 103.139 158.276 102.869 158.679 102.969C159.314 103.126 159.736 103.793 159.849 104.396C159.962 104.968 159.842 105.521 159.761 106.087C159.666 106.759 159.931 107.143 160.597 107.199C160.836 107.218 161.094 107.162 161.327 107.086C161.642 106.986 161.761 106.646 161.585 106.363C161.239 105.791 160.868 105.213 160.66 104.572C160.446 103.937 160.484 102.925 161.421 102.988C161.755 103.013 162.051 103.208 162.264 103.466C162.478 103.724 162.617 104.032 162.736 104.34C162.906 104.761 162.95 105.232 162.906 105.678ZM162.497 105.735C162.504 105.559 162.472 105.383 162.434 105.213C162.327 104.717 162.151 104.138 161.874 103.78C161.491 103.284 160.994 103.466 161.076 104.22C161.126 104.729 161.34 105.295 161.56 105.716C161.661 105.905 161.774 106.087 161.912 106.206C162.183 106.426 162.447 106.288 162.497 105.829C162.491 105.798 162.497 105.766 162.497 105.735ZM152.602 103.805C152.602 103.34 152.501 102.083 151.979 102.272C151.362 102.498 151.67 104.729 152.067 105.125C152.142 105.201 152.249 105.182 152.325 105.113C152.4 105.044 152.451 104.93 152.488 104.817C152.551 104.641 152.602 104.239 152.602 103.805ZM173.022 106.464C173.148 105.716 172.601 104.836 172.047 104.553C171.707 104.384 171.519 104.604 171.506 104.993C171.5 105.15 171.537 105.301 171.581 105.446C171.701 105.823 172.594 107.809 172.978 106.634C172.997 106.583 173.016 106.527 173.022 106.464ZM158.295 104.063C158.301 104.189 158.314 104.321 158.333 104.428C158.402 104.824 158.716 106.458 159.15 106.301C159.415 106.206 159.402 105.427 159.364 105.125C159.314 104.641 159.15 104.157 158.924 103.786C158.66 103.328 158.276 103.422 158.295 104.063ZM155.118 104.308C155.118 104.981 155.294 105.961 155.634 105.942C156.062 105.917 155.867 104.208 155.772 103.868C155.653 103.428 155.313 103.315 155.162 103.799C155.137 103.906 155.118 104.094 155.118 104.308ZM169.606 106.263C169.688 105.704 169.411 105.106 169.084 104.673C168.75 104.233 167.933 103.78 168.008 104.679C168.065 105.32 168.493 106.326 169.185 106.527C169.285 106.552 169.398 106.552 169.48 106.495C169.556 106.439 169.593 106.357 169.606 106.263ZM176.501 106.615C176.545 106.363 176.488 106.043 176.419 105.873C176.256 105.465 175.903 105.062 175.507 104.943C175.236 104.861 175.01 104.974 175.023 105.301C175.029 105.496 175.136 105.666 175.236 105.823C175.438 106.137 175.627 106.458 175.834 106.759C175.916 106.879 176.035 106.979 176.168 106.967C176.375 106.948 176.47 106.803 176.501 106.615ZM164.85 104.113C164.529 104.302 165.014 105.691 165.234 105.993C165.46 106.301 165.831 106.407 165.932 105.949C166.033 105.446 165.567 104.434 165.215 104.201C165.039 104.088 164.919 104.069 164.85 104.113ZM182.144 103.692C182.163 104.069 182.943 105.264 183.182 105.025C183.434 104.767 183.088 103.705 182.943 103.485C182.786 103.233 182.257 103.089 182.15 103.585C182.144 103.623 182.144 103.654 182.144 103.692ZM178.489 104.428C178.501 104.534 178.539 104.635 178.583 104.723C178.709 105.006 178.841 105.295 179.024 105.509C179.892 106.514 179.797 104.585 179.149 104.094C179.017 103.994 178.86 103.937 178.722 103.988C178.59 104.038 178.476 104.208 178.489 104.428ZM185.076 103.598C185.094 103.673 185.138 103.742 185.182 103.799C185.315 103.988 185.447 104.182 185.617 104.314C186.416 104.93 186.132 103.541 185.566 103.271C185.453 103.214 185.321 103.196 185.214 103.246C185.113 103.302 185.044 103.441 185.076 103.598Z" fill="#BD4230"/>
  <path d="M228.213 120.72C228.206 120.713 228.206 120.707 228.2 120.701L228.213 120.72Z" fill="black"/>
  <path d="M203.099 127.269C203.131 123.322 206.276 120.173 210.164 120.179C214.171 120.185 217.48 123.385 217.405 127.294C217.323 131.493 214.178 134.46 210.227 134.485C206.232 134.516 203.068 131.229 203.099 127.269Z" fill="#172043"/>
  <path d="M210.239 123.913C212.221 123.944 213.813 125.559 213.737 127.464C213.662 129.412 212.032 130.902 210.063 130.833C208.182 130.764 206.679 129.161 206.742 127.282C206.798 125.383 208.352 123.881 210.239 123.913Z" fill="#F9E7D7"/>
  <path d="M206.779 124.61C206.761 125.182 206.245 125.635 205.672 125.591C205.163 125.553 204.735 125.107 204.71 124.604C204.685 124.045 205.188 123.523 205.741 123.535C206.314 123.542 206.798 124.045 206.779 124.61Z" fill="#F9E7D7"/>
  <path d="M214.989 123.799C215.549 123.806 216.033 124.315 216.015 124.874C215.996 125.446 215.486 125.905 214.914 125.861C214.398 125.823 213.989 125.39 213.97 124.868C213.945 124.29 214.423 123.793 214.989 123.799Z" fill="#F9E7D7"/>
  <path d="M215.631 128.564C215.071 128.595 214.568 128.118 214.555 127.539C214.542 127.018 214.939 126.546 215.429 126.483C215.989 126.414 216.524 126.861 216.574 127.426C216.625 128.017 216.197 128.526 215.631 128.564Z" fill="#F9E7D7"/>
  <path d="M214.719 128.922C215.285 128.947 215.744 129.463 215.706 130.035C215.669 130.607 215.14 131.047 214.574 130.984C214.064 130.927 213.662 130.475 213.662 129.959C213.662 129.387 214.159 128.897 214.719 128.922Z" fill="#F9E7D7"/>
  <path d="M212.536 133.102C211.963 133.083 211.517 132.574 211.554 131.996C211.592 131.474 212.02 131.053 212.536 131.04C213.102 131.022 213.605 131.505 213.605 132.077C213.605 132.643 213.108 133.127 212.536 133.102Z" fill="#F9E7D7"/>
  <path d="M210.516 120.921C211.095 120.933 211.573 121.417 211.548 121.97C211.523 122.536 211.02 122.964 210.428 122.92C209.9 122.882 209.497 122.473 209.478 121.952C209.459 121.38 209.931 120.908 210.516 120.921Z" fill="#F9E7D7"/>
  <path d="M214.178 123.058C214.184 123.642 213.712 124.095 213.127 124.082C212.548 124.063 212.114 123.586 212.146 122.995C212.171 122.473 212.599 122.058 213.114 122.046C213.699 122.033 214.178 122.486 214.178 123.058Z" fill="#F9E7D7"/>
  <path d="M204.785 125.949C205.351 125.905 205.874 126.364 205.911 126.923C205.949 127.502 205.49 127.998 204.911 128.004C204.395 128.011 203.942 127.621 203.873 127.112C203.785 126.546 204.225 125.987 204.785 125.949Z" fill="#F9E7D7"/>
  <path d="M206.956 132.643C206.383 132.624 205.918 132.115 205.955 131.556C205.993 131.028 206.415 130.619 206.937 130.607C207.528 130.594 208.006 131.04 208.012 131.619C208.019 132.197 207.541 132.662 206.956 132.643Z" fill="#F9E7D7"/>
  <path d="M209.654 131.732C210.246 131.738 210.718 132.209 210.699 132.781C210.68 133.347 210.17 133.8 209.591 133.756C209.076 133.718 208.648 133.291 208.623 132.781C208.591 132.209 209.069 131.719 209.654 131.732Z" fill="#F9E7D7"/>
  <path d="M205.32 130.531C204.741 130.525 204.288 130.047 204.313 129.463C204.339 128.922 204.729 128.526 205.257 128.501C205.848 128.476 206.339 128.916 206.352 129.482C206.364 130.066 205.899 130.538 205.32 130.531Z" fill="#F9E7D7"/>
  <path d="M208.811 122.473C208.843 123.033 208.365 123.523 207.792 123.523C207.283 123.523 206.823 123.133 206.761 122.637C206.685 122.071 207.119 121.562 207.698 121.524C208.289 121.486 208.786 121.914 208.811 122.473Z" fill="#F9E7D7"/>
  <path d="M108.722 21.6851C108.879 21.4085 108.968 21.2954 109.018 21.1634C110.817 16.531 114.22 13.6019 118.851 12.0494C122.128 10.9494 125.544 10.5032 128.979 10.874C133.622 11.3769 137.56 13.3065 140.271 17.2978C141.668 19.3469 142.763 21.5342 143.411 23.9416C144.467 27.8763 145.411 31.8488 145.694 35.9155C146.009 40.4725 146.355 45.042 145.896 49.6179C145.461 53.9172 145.09 58.2227 144.7 62.522C144.405 65.8282 144.134 69.1281 144.21 72.4531C144.335 77.909 145.927 82.9311 148.67 87.6075C149.689 89.3423 150.708 91.0771 151.381 92.9816C151.853 94.3141 152.168 95.6655 151.941 97.1112C151.727 98.4688 151.155 99.6128 150.085 100.455C148.984 101.329 147.883 102.24 146.663 102.913C143.341 104.742 139.856 106.162 136.006 106.433C134.282 106.552 132.59 106.414 130.98 105.716C129.627 105.131 128.621 104.208 127.998 102.869C127.419 101.624 127.042 100.329 126.979 98.9529C126.922 97.6517 126.903 96.3444 126.859 95.0433C126.815 93.585 126.695 92.1331 126.733 90.6748C126.777 88.9212 126.947 87.1675 127.067 85.4139C127.23 83.0568 127.457 80.706 127.57 78.3489C127.784 73.8297 128.01 69.3104 128.098 64.7911C128.199 59.813 128.193 54.8349 128.136 49.863C128.117 48.3168 127.822 46.7643 127.557 45.2369C127.325 43.8855 126.771 42.6473 125.972 41.5222C125.091 40.2839 123.99 40.2085 122.82 40.9439C122.279 41.2833 121.782 41.7484 121.373 42.245C119.864 44.0741 118.989 46.2237 118.681 48.5494C118.36 50.9881 118.121 53.4458 118.083 55.9034C118.033 59.2159 118.203 62.5346 118.297 65.8471C118.41 69.8635 118.492 73.8862 118.693 77.9027C118.882 81.6677 119.134 85.4264 119.486 89.1789C119.763 92.0765 120.291 94.949 120.612 97.8403C120.813 99.638 120.902 101.448 120.939 103.252C120.99 105.691 119.668 107.432 117.806 108.796C117.127 109.293 116.322 109.651 115.516 109.921C113.082 110.738 110.622 111.448 108.036 111.624C106.42 111.731 104.822 111.719 103.23 111.398C99.5311 110.65 97.3544 107.652 97.8892 103.887C98.103 102.404 98.4365 100.92 98.8643 99.4808C99.8582 96.1684 100.255 92.8119 99.9526 89.3549C99.7576 87.1549 99.7324 84.9362 99.5122 82.7425C99.1222 78.8958 98.6755 75.049 98.1848 71.2149C97.8074 68.2733 97.3859 65.338 96.8763 62.4215C96.2724 59.0084 95.53 55.6205 94.8883 52.2138C94.0265 47.6254 93.108 43.0432 92.3846 38.4297C91.68 33.9544 91.4472 29.4351 91.7177 24.9033C91.8121 23.3507 92.0071 21.8045 92.4537 20.3023C93.0577 18.2532 94.1712 16.5435 95.9264 15.3304C97.3293 14.3562 98.8013 13.4825 100.299 12.6591C100.991 12.2757 101.796 12.062 102.57 11.8734C104.444 11.4334 105.627 11.9363 106.728 13.5076C108.018 15.343 108.483 17.4298 108.628 19.6171C108.678 20.252 108.691 20.8868 108.722 21.6851Z" fill="#172043"/>
  <path d="M19.1891 109.946C19.1325 106.621 19.5728 103.334 19.944 100.04C20.592 94.2387 22.0137 88.5755 22.9259 82.8242C23.1084 81.6866 23.2531 80.5363 23.3537 79.3861C23.511 77.5318 23.6305 75.6776 23.7438 73.8234C23.8381 72.2709 23.9262 70.712 23.9891 69.1595C24.2093 63.974 23.2594 58.9582 21.6552 54.0555C21.0135 52.1007 20.3403 50.1522 19.6483 48.2099C19.0255 46.4563 18.4027 44.7026 18.1133 42.8547C17.868 41.2582 17.7673 39.6554 18.2392 38.0777C18.7173 36.4749 19.5917 35.1361 21.0701 34.319C22.2528 33.6653 23.4858 33.0744 24.7566 32.6344C26.0463 32.1819 27.0465 31.4213 27.9084 30.4031C30.4059 27.4426 32.8657 24.457 35.4198 21.5468C39.7417 16.6253 44.9758 12.9608 51.0592 10.5346C54.6513 9.1015 58.3504 8.70552 62.1564 9.5792C66.5727 10.5912 69.8817 13.1431 72.2597 16.9081C75.0718 21.3645 75.4744 26.2232 74.4049 31.2768C73.7947 34.1492 72.6749 36.8332 71.379 39.4542C69.6993 42.8547 67.5289 45.9157 65.1698 48.8762C62.2571 52.5281 59.1368 56.0291 56.6015 59.9764C55.7333 61.3278 54.9658 62.742 54.2298 64.1688C53.261 66.0356 53.0345 68.0973 52.8961 70.1589C52.8269 71.1835 53.217 72.1263 53.6636 73.044C55.4817 76.7964 57.9163 80.1089 60.9989 82.9122C63.5279 85.2127 66.1575 87.4001 68.7431 89.6377C69.391 90.1971 70.0579 90.7314 70.6807 91.3159C74.3798 94.7415 75.3234 98.9466 74.0212 103.698C72.9077 107.753 70.3724 110.814 66.9313 113.146C64.157 115.031 61.087 116.276 57.8157 117.011C56.5826 117.288 55.3307 117.376 54.0725 117.175C52.5942 116.942 51.4555 116.219 50.6943 114.905C49.9834 113.68 49.4487 112.379 49.1152 111.008C48.2785 107.533 47.8696 103.994 47.5614 100.436C47.2154 96.3821 46.7184 92.3405 45.7747 88.3743C45.3092 86.4007 44.4914 84.559 43.4093 82.8557C42.9312 82.1077 42.3399 81.3723 41.6416 80.8317C40.6287 80.0397 39.597 80.3917 39.0749 81.5671C38.5024 82.8619 38.5087 84.2259 38.7855 85.5647C39.1 87.0858 39.4775 88.6006 39.9116 90.0966C41.2956 94.8798 43.0948 99.5185 44.8625 104.17C45.3784 105.534 45.7999 106.929 46.3095 108.293C47.2217 110.719 46.1082 113.623 44.1705 115C41.8114 116.678 39.2384 117.929 36.4327 118.639C33.8471 119.293 31.23 119.77 28.5564 119.915C27.3548 119.978 26.1658 120.11 24.9516 119.928C21.7369 119.45 19.3778 116.967 19.1954 113.717C19.1262 112.46 19.1891 111.203 19.1891 109.946ZM38.9427 44.6272C38.8924 46.23 39.251 47.7448 39.6851 49.247C39.7983 49.6305 39.9619 50.0013 40.1443 50.3596C40.7357 51.4973 41.6542 52.1069 42.9627 51.9498C43.6044 51.8681 44.2586 51.7361 44.8563 51.4972C46.3158 50.919 47.6494 50.1019 48.8321 49.0648C54.1103 44.4386 58.0862 38.8948 60.5145 32.295C60.9108 31.2202 61.1373 30.07 61.3512 28.9386C61.521 28.0523 61.5147 27.1409 61.2379 26.2547C60.7472 24.677 59.7533 24.0862 58.1428 24.4256C56.5386 24.765 55.1168 25.513 53.7517 26.3741C50.1092 28.662 46.8316 31.4025 44.0699 34.7024C42.818 36.2046 41.6479 37.7886 40.5658 39.4165C39.5278 40.9816 38.8295 42.7101 38.9427 44.6272Z" fill="#172043"/>
  <path d="M147.531 56.224C147.626 50.4727 148.167 44.778 149.626 39.2028C150.677 35.2052 152.168 31.3585 154.156 27.7317C157.018 22.5085 161.151 18.4229 166.033 15.0916C168.858 13.1619 171.777 11.3768 174.67 9.56034C177.954 7.49869 181.163 5.33648 184.151 2.85999C184.616 2.47658 185.132 2.14972 185.579 1.75374C187.227 0.276643 189.215 -0.094199 191.329 0.0189402C194.21 0.169792 196.871 1.04348 199.23 2.69028C200.124 3.31255 200.96 4.08566 201.652 4.9342C203.508 7.22213 205.018 9.72376 205.446 12.6968C206.031 16.7572 204.999 20.3211 202.156 23.3885C199.161 26.6192 195.45 28.2912 191.159 28.7563C187.661 29.1334 184.151 29.4163 180.641 29.6551C176.904 29.9128 173.374 30.7865 170.311 33.0179C166.914 35.4943 164.259 38.5868 162.774 42.597C161.107 47.0911 160.321 51.7361 160.692 56.5068C161.032 60.8438 162.051 65.0488 164.095 68.9333C165.486 71.5732 167.279 73.9428 169.449 75.9982C171.915 78.3364 174.796 79.2038 178.193 78.5375C182.314 77.733 185.912 76.0107 188.85 72.9811C189.165 72.6543 189.473 72.3212 189.744 71.9629C191.53 69.6372 192.958 67.0979 194.147 64.4265C194.707 63.1757 195.047 61.8621 194.921 60.473C194.72 58.2165 193.682 56.6074 191.455 55.8343C189.693 55.2309 187.907 55.1806 186.095 55.4383C183.597 55.7903 181.182 56.4942 178.797 57.3051C177.218 57.8456 175.62 58.2605 173.941 58.317C171.569 58.3987 169.908 57.3176 168.839 55.2434C168.254 54.112 167.939 52.8926 167.782 51.6481C167.461 49.0962 167.43 46.5317 167.757 43.9798C168.115 41.1765 169.531 38.9765 171.827 37.38C173.381 36.2989 175.167 35.9972 177.017 36.3115C178.2 36.5126 179.363 36.8583 180.521 37.1914C181.729 37.5371 182.924 37.9268 184.119 38.3228C186.019 38.964 187.97 38.9702 189.939 38.8257C192.996 38.5931 196.053 38.3291 199.117 38.1971C200.872 38.1217 202.64 38.2788 204.364 38.6748C207.277 39.3411 209.378 41.1639 211.045 43.5272C212.762 45.966 213.63 48.7505 214.046 51.6607C214.876 57.4748 214.354 63.1883 212.574 68.7887C211.907 70.8943 211.341 73.0314 210.435 75.0616C208.956 78.3615 206.887 81.2403 204.452 83.8865C200.136 88.5755 195.097 92.2651 189.19 94.7101C186.913 95.653 184.56 96.4009 182.1 96.7341C178.822 97.1803 175.583 97.0232 172.381 96.1558C167.794 94.905 163.712 92.7239 160.094 89.6314C157.282 87.2241 154.797 84.559 152.96 81.322C151.639 78.9838 150.771 76.4696 149.985 73.924C148.701 69.7755 147.902 65.5454 147.77 61.1958C147.732 59.5301 147.619 57.877 147.531 56.224Z" fill="#172043"/>
  <path d="M118.379 125.962C121.002 122.448 124.456 120.965 128.652 120.965C131.15 120.965 133.559 121.292 135.817 122.461C138.088 123.642 139.737 125.365 140.781 127.722C141.762 129.934 142.058 132.26 142.171 134.623C142.467 140.657 141.593 146.547 139.969 152.348C138.982 155.881 138.007 159.419 137.013 162.952C135.868 167.012 135.868 171.092 136.874 175.171C137.101 176.095 137.503 176.975 137.78 177.886C138.132 179.036 138.523 180.187 138.736 181.368C138.875 182.135 138.812 182.971 138.692 183.751C138.51 184.901 137.843 185.793 136.799 186.334C135.817 186.837 134.836 187.384 133.792 187.717C131.577 188.421 129.306 188.898 126.966 188.672C126.073 188.584 125.167 188.433 124.311 188.169C122.273 187.535 121.178 186.089 120.99 183.958C120.876 182.638 121.052 181.35 121.354 180.074C121.77 178.314 122.223 176.566 122.619 174.806C123.619 170.344 124.651 165.887 125.576 161.412C126.469 157.081 127.293 152.738 128.042 148.382C128.268 147.062 128.218 145.679 128.168 144.328C128.149 143.699 127.903 143.046 127.639 142.467C127.255 141.625 126.651 141.342 125.783 141.675C125.148 141.921 124.525 142.323 124.028 142.788C123.103 143.655 122.443 144.724 121.965 145.912C121.097 148.068 120.581 150.324 120.21 152.606C119.549 156.622 118.964 160.645 118.391 164.674C118.008 167.358 117.63 170.048 117.36 172.745C117.121 175.139 117.045 177.553 116.856 179.96C116.737 181.463 116.586 182.959 116.366 184.448C116.045 186.611 114.56 187.824 112.597 188.301C109.936 188.942 107.219 189.005 104.52 188.383C104.13 188.295 103.74 188.188 103.362 188.05C100.588 187.044 99.6192 185.02 100.255 182.198C100.462 181.28 100.833 180.363 101.299 179.539C102.802 176.899 103.4 174.014 103.752 171.054C104.268 166.761 104.532 162.449 104.683 158.131C104.771 155.673 104.897 153.209 104.897 150.745C104.904 148.483 104.74 146.226 104.702 143.963C104.671 141.751 104.639 139.538 104.721 137.326C104.86 133.605 105.18 129.903 106.168 126.295C106.432 125.333 106.803 124.39 107.206 123.473C107.772 122.184 108.716 121.191 109.999 120.619C111.327 120.028 112.711 119.557 114.082 119.085C114.497 118.941 114.975 118.916 115.422 118.928C116.643 118.953 117.53 119.506 117.995 120.669C118.536 122.002 118.75 123.372 118.549 124.805C118.486 125.176 118.429 125.572 118.379 125.962Z" fill="#172043"/>
  <path d="M65.5661 177.987C65.7612 175.183 65.9625 172.374 66.1638 169.571C66.3148 167.465 66.4406 165.347 66.0065 163.26C65.78 162.185 65.434 161.129 65.0566 160.098C64.893 159.646 64.5596 159.218 64.2136 158.873C63.7103 158.37 63.1001 158.445 62.6408 159.005C62.1438 159.608 61.8922 160.325 61.8922 161.098C61.8922 162.355 61.823 163.624 61.9992 164.856C62.5339 168.584 63.1693 172.292 63.7669 176.013C63.8864 176.755 63.9934 177.503 64.094 178.251C64.3897 180.419 63.4964 182.079 61.5085 183.022C60.137 183.675 58.6838 184.103 57.1803 184.291C54.6765 184.599 52.1601 184.675 49.6751 184.165C46.4793 183.518 44.7871 181.324 44.8626 178.031C44.9066 176.101 45.3847 174.241 45.9635 172.43C47.0266 169.131 48.0584 165.818 49.3543 162.606C51.3548 157.641 52.808 152.537 53.802 147.295C54.2927 144.711 54.3556 142.115 54.0285 139.494C53.6825 136.704 53.4246 133.9 53.1792 131.103C53.0597 129.739 53.2673 128.394 53.7454 127.106C54.343 125.484 55.5509 124.485 57.1425 123.913C57.6144 123.743 58.105 123.63 58.602 123.535C59.7218 123.315 60.6466 122.756 61.5148 122.033C63.6788 120.236 65.8366 118.425 68.0762 116.716C71.5677 114.051 75.4933 112.278 79.8089 111.467C83.3507 110.801 86.7541 111.241 89.7298 113.428C92.5921 115.534 94.146 118.432 94.492 121.977C94.8317 125.484 93.7497 128.633 91.9505 131.568C90.0695 134.636 87.7104 137.288 84.9738 139.633C82.4574 141.789 79.9976 144.02 77.5567 146.264C76.7829 146.974 76.1413 147.823 75.4807 148.646C74.7195 149.595 74.2351 150.695 73.8451 151.852C73.4236 153.096 73.4361 154.303 73.8325 155.541C74.6251 158.055 75.7323 160.419 77.3177 162.524C78.8275 164.53 80.438 166.459 82.0107 168.427C82.4196 168.936 82.8411 169.439 83.2312 169.96C85.1688 172.594 85.3387 175.435 84.0993 178.383C82.9544 181.104 80.9161 183.009 78.2991 184.266C75.7261 185.504 72.9958 186.127 70.1208 186.001C67.5981 185.888 66.4972 184.989 65.9121 182.512C65.7863 181.978 65.7108 181.425 65.692 180.878C65.6542 179.923 65.6794 178.967 65.6794 178.012C65.6353 177.987 65.5976 177.987 65.5661 177.987ZM67.0194 134.711C67.0194 135.44 66.9942 135.893 67.0256 136.345C67.164 138.671 68.265 139.501 70.5108 138.954C71.7376 138.652 72.914 138.193 73.9457 137.458C75.3738 136.44 76.8144 135.421 78.1355 134.271C80.4946 132.209 82.5014 129.834 83.8917 126.999C84.2818 126.201 84.6026 125.321 84.7221 124.447C84.9738 122.611 84.0679 121.776 82.2687 122.09C81.5767 122.209 80.8909 122.385 80.2367 122.63C75.8896 124.258 72.1087 126.754 68.9255 130.135C67.6233 131.512 66.6545 132.989 67.0194 134.711Z" fill="#172043"/>
  <path d="M139.787 163.738C140.177 155.981 141.693 148.514 145.411 141.587C148.607 135.629 153.319 131.386 159.56 128.809C161.51 128.004 163.498 127.275 165.435 126.433C167.782 125.409 170.097 124.309 172.425 123.227C173.154 122.888 173.853 122.479 174.589 122.159C176.407 121.367 178.187 121.474 179.961 122.385C183.44 124.164 185.541 126.986 186.183 130.783C186.762 134.202 185.749 137.15 182.968 139.369C180.854 141.059 178.464 141.939 175.721 141.933C173.4 141.927 171.103 141.732 168.807 141.437C167.562 141.279 166.31 141.103 165.058 141.066C163.491 141.022 161.944 141.248 160.472 141.814C157.32 143.014 154.772 144.963 153.023 147.892C149.708 153.442 148.934 159.369 150.425 165.611C150.909 167.628 151.885 169.451 152.998 171.205C154.69 173.864 157.125 174.888 160.214 174.593C163.938 174.234 167.084 172.776 169.512 169.872C170.122 169.137 170.783 168.439 171.324 167.653C171.833 166.912 172.318 166.126 172.62 165.29C173.576 162.644 171.877 159.947 169.071 159.677C167.272 159.507 165.46 159.545 163.655 159.841C162.422 160.048 161.164 160.174 159.918 160.262C159.377 160.299 158.817 160.174 158.282 160.061C156.993 159.797 156.156 158.979 155.684 157.773C155.294 156.773 155.112 155.717 155.244 154.668C155.439 153.121 155.703 151.588 156.024 150.067C156.332 148.602 157.106 147.383 158.245 146.383C159.773 145.051 161.503 144.642 163.441 145.22C164.158 145.434 164.85 145.755 165.53 146.082C166.253 146.434 166.939 146.855 167.65 147.232C169.266 148.087 170.952 148.646 172.802 148.791C175.406 148.992 178.011 149.256 180.553 149.916C183.61 150.714 185.699 152.556 186.674 155.585C187.265 157.421 187.422 159.306 187.296 161.236C186.881 167.465 184.409 172.883 180.735 177.817C179.464 179.527 177.784 180.828 176.08 182.085C172.884 184.436 169.348 186.108 165.504 187.088C158.163 188.961 151.878 187 146.606 181.689C144.361 179.426 142.53 176.849 141.41 173.82C140.617 171.676 140.278 169.445 140.039 167.195C139.894 166.063 139.862 164.907 139.787 163.738Z" fill="#172043"/>
  <path d="M82.5329 55.4068C83.3318 55.4823 84.1371 55.5326 84.9297 55.6457C87.1001 55.9663 88.4212 57.3051 89.1132 59.3039C89.799 61.2775 90.0758 63.3203 89.7801 65.3882C89.3712 68.267 88.956 71.1583 88.3709 74.0057C87.3958 78.7387 88.5533 82.9625 91.1389 86.8972C92.6047 89.1223 94.146 91.2971 95.6433 93.497C96.4737 94.7164 97.0147 96.0552 97.3292 97.5009C97.7633 99.4997 97.3733 101.348 96.0773 102.888C93.41 106.049 90.1135 108.249 85.9678 109.003C84.4894 109.274 83.011 109.538 81.4823 109.362C79.1169 109.085 77.4749 107.897 76.5313 105.722C75.8519 104.164 75.5877 102.542 75.8267 100.864C76.0909 98.978 76.4369 97.0986 76.7263 95.213C77.1164 92.6736 77.3428 90.1217 77.1541 87.5572C76.9968 85.4453 76.4369 83.4088 75.8267 81.3848C74.9082 78.3552 73.9709 75.3382 73.0901 72.3023C72.4044 69.9326 72.1087 67.4939 71.7942 65.0488C71.3412 61.5289 73.5871 57.3805 78.0726 56.0794C79.5132 55.6394 81.0042 55.3943 82.5329 55.4068Z" fill="#172043"/>
  <path d="M90.9502 184.165C90.2079 184.065 89.453 184.015 88.7169 183.857C85.7476 183.216 84.8354 180.771 85.1562 178.421C85.3135 177.239 85.7853 176.101 86.1313 174.951C86.6661 173.172 87.2448 171.412 87.7355 169.621C88.1948 167.949 88.1193 166.227 87.962 164.53C87.7796 162.581 87.421 160.645 87.2826 158.697C87.1253 156.497 86.9743 154.278 87.1064 152.084C87.2952 148.967 89.497 146.767 92.5607 146.377C94.1775 146.17 95.7754 146.364 97.3167 146.892C98.902 147.439 99.7701 148.545 99.9777 150.211C100.179 151.839 99.9778 153.423 99.4745 154.963C99.0215 156.346 98.4553 157.691 97.9898 159.074C97.5494 160.406 97.1217 161.745 96.8008 163.109C96.6435 163.775 96.675 164.511 96.7631 165.196C96.9833 166.949 97.4677 168.634 98.2163 170.243C98.8894 171.701 99.55 173.166 100.173 174.649C100.588 175.623 100.846 176.654 100.796 177.729C100.72 179.401 99.9337 180.702 98.5749 181.639C96.285 183.21 93.7874 184.178 90.9502 184.165Z" fill="#172043"/>
  <path d="M86.6157 44.998C86.6157 46.6071 86.6786 48.2162 86.6031 49.819C86.4647 52.8046 85.8105 53.6029 82.9041 54.244C81.3879 54.5772 79.8403 54.8097 78.2928 54.9229C77.3051 54.9983 76.2797 54.86 75.3046 54.6589C73.9017 54.3697 72.9958 53.452 72.7127 52.0378C72.5302 51.1076 72.3793 50.1522 72.3541 49.203C72.3038 47.3488 72.3289 45.4883 72.3667 43.6341C72.3793 42.9867 72.4988 42.3393 72.5932 41.6919C72.8574 39.8691 73.8136 38.5114 75.4681 37.7131C76.6382 37.1412 77.8524 36.6446 79.0729 36.192C80.1549 35.7898 81.2684 35.4629 82.3756 35.1424C84.4139 34.5515 85.7161 35.2744 86.2005 37.3486C86.427 38.3165 86.5402 39.3285 86.578 40.3279C86.6409 41.8804 86.5968 43.4392 86.5968 44.998C86.6031 44.998 86.6094 44.998 86.6157 44.998Z" fill="#172043"/>
  <path d="M95.1274 145.956C93.9887 145.78 92.8312 145.692 91.7177 145.409C90.0191 144.982 89.5033 144.221 89.4907 142.499C89.4718 140.211 89.9814 138.011 90.6545 135.849C91.0383 134.617 91.8561 133.762 93.0954 133.372C94.8821 132.813 96.7253 132.543 98.5811 132.436C99.8268 132.367 100.437 132.901 100.689 134.12C100.77 134.51 100.802 134.925 100.764 135.314C100.5 138.068 100.022 140.783 99.3486 143.467C99.2983 143.662 99.2417 143.85 99.1788 144.045C98.8391 145.132 98.0716 145.698 96.9581 145.78C96.3604 145.824 95.7502 145.786 95.1463 145.786C95.14 145.843 95.1337 145.899 95.1274 145.956Z" fill="#172043"/>
  <path d="M194.707 169.753C194.953 169.602 195.167 169.388 195.425 169.326C195.808 169.238 196.223 169.256 196.626 169.225C199.778 169.005 201.923 166.899 202.187 163.725C202.263 162.826 202.244 161.915 202.301 161.016C202.326 160.57 202.401 160.124 202.521 159.69C202.558 159.552 202.816 159.388 202.974 159.394C203.131 159.394 203.376 159.57 203.414 159.709C203.508 160.092 203.515 160.501 203.546 160.897C203.634 161.997 203.672 163.103 203.804 164.197C203.968 165.535 204.572 166.692 205.509 167.654C206.27 168.433 207.22 168.86 208.321 168.967C209.12 169.043 209.925 169.131 210.718 169.269C210.919 169.307 211.196 169.527 211.246 169.715C211.341 170.061 211.045 170.268 210.743 170.338C210.303 170.432 209.85 170.495 209.403 170.507C208.447 170.545 207.491 170.507 206.534 170.558C205.037 170.633 204.358 171.205 204.062 172.695C203.917 173.43 203.854 174.184 203.81 174.932C203.729 176.384 203.697 177.842 203.641 179.301C203.628 179.552 203.628 179.804 203.59 180.049C203.54 180.363 203.395 180.64 203.037 180.658C202.672 180.677 202.502 180.401 202.452 180.093C202.363 179.496 202.294 178.898 202.257 178.301C202.131 176.497 202.074 174.687 201.892 172.889C201.728 171.262 200.961 170.62 199.306 170.551C198.199 170.507 197.092 170.526 195.984 170.495C195.481 170.476 194.965 170.444 194.707 169.753Z" fill="#EDC751"/>
  <path d="M16.4653 29.2279C16.2451 29.8501 15.7795 29.9067 15.3329 29.9319C14.5276 29.9696 13.7224 29.9696 12.9234 29.9821C12.5208 29.9884 12.1182 29.9696 11.7156 30.001C10.168 30.1204 9.46971 30.7364 9.17403 32.2764C9.07967 32.7666 9.04821 33.2695 9.02304 33.7723C8.93497 35.4757 8.85948 37.179 8.7777 38.8887C8.76511 39.0898 8.80915 39.3224 8.72737 39.4795C8.60155 39.7184 8.41282 40.0264 8.19263 40.0892C7.85292 40.1898 7.65161 39.8567 7.59499 39.555C7.51321 39.115 7.48175 38.6624 7.45659 38.2099C7.35593 36.5568 7.26786 34.9037 7.16721 33.2506C7.14834 32.8986 7.12317 32.5466 7.05397 32.2009C6.77716 30.793 6.02225 30.0953 4.5942 30.0073C3.59394 29.9444 2.58109 29.9821 1.58082 29.9507C1.18449 29.9381 0.769285 29.9067 0.398118 29.7873C0.21568 29.7307 0.0584123 29.4542 0.00179352 29.2467C-0.0233704 29.1525 0.221972 28.9136 0.379246 28.8696C0.762995 28.769 1.16562 28.7439 1.56195 28.6873C2.10927 28.6119 2.66917 28.5993 3.19761 28.4485C5.59447 27.7696 7.14833 25.796 7.3811 23.1247C7.46917 22.1253 7.43771 21.1196 7.47546 20.1139C7.51321 19.2025 7.78372 18.7059 8.18006 18.8379C8.80286 19.0391 8.7022 19.6111 8.73365 20.1013C8.82173 21.3521 8.80915 22.6155 9.01676 23.8475C9.15516 24.6646 9.52632 25.4754 9.93523 26.2108C10.6084 27.4051 11.6653 28.1531 13.043 28.3731C13.7853 28.4925 14.5339 28.5553 15.2826 28.637C15.7355 28.6748 16.201 28.6748 16.4653 29.2279Z" fill="#EDC751"/>
  <path d="M203.993 186.108C203.773 186.736 203.307 186.793 202.854 186.818C202.099 186.856 201.344 186.856 200.596 186.868C200.143 186.875 199.69 186.856 199.237 186.887C197.696 187.007 196.985 187.623 196.695 189.163C196.582 189.753 196.563 190.357 196.525 190.96C196.437 192.613 196.368 194.273 196.286 195.926C196.28 196.077 196.312 196.259 196.242 196.372C196.098 196.605 195.928 196.919 195.701 196.982C195.362 197.082 195.167 196.749 195.104 196.448C195.022 196.058 194.99 195.656 194.965 195.253C194.865 193.55 194.77 191.847 194.676 190.143C194.657 189.841 194.638 189.54 194.594 189.244C194.336 187.679 193.55 186.963 191.958 186.887C191.002 186.843 190.046 186.875 189.096 186.843C188.699 186.831 188.284 186.799 187.913 186.68C187.731 186.623 187.567 186.347 187.517 186.139C187.492 186.045 187.737 185.806 187.894 185.762C188.278 185.662 188.681 185.636 189.077 185.58C189.624 185.504 190.184 185.492 190.713 185.341C193.109 184.662 194.663 182.689 194.902 180.017C194.99 179.018 194.959 178.012 194.997 177.006C195.034 176.101 195.311 175.599 195.701 175.731C196.324 175.938 196.223 176.51 196.255 176.994C196.343 178.245 196.33 179.508 196.538 180.74C196.676 181.557 197.048 182.368 197.463 183.103C198.136 184.298 199.193 185.046 200.571 185.259C201.263 185.366 201.961 185.442 202.659 185.517C203.15 185.555 203.678 185.505 203.993 186.108Z" fill="#EDC751"/>
</svg>