<svg width="156" height="128" viewBox="0 0 156 128" fill="none" xmlns="http://www.w3.org/2000/svg">
<g id="Group">
<g id="Group_2">
<path id="Vector" d="M117.533 37.7634C117.483 33.1707 117.451 28.6435 117.401 23.9523C120.321 23.7882 122.47 25.5269 124.93 26.1338C127.456 26.7735 129.966 27.5609 132.41 28.463C134.821 29.3488 137.56 29.234 139.972 30.9399C139.119 32.2029 138.348 33.3839 137.528 34.5321C135.74 37.0745 133.952 39.6169 132.065 42.2742C127.194 40.7651 122.519 39.3053 117.533 37.7634Z" fill="#4169DF"/>
</g>
<g id="Group_3">
<path id="Vector_2" d="M114.366 23.2634C114.448 23.3126 123.765 17.0959 123.765 17.0959L139.38 22.066L142.497 32.3013C137.757 30.8087 128.669 27.9382 123.945 26.4127C122.322 25.9042 115.842 24.0015 114.366 23.2634Z" fill="#173D98"/>
<g id="Group_4">
<path id="Vector_3" d="M145.58 12.6179C144.547 14.455 143.185 16.0461 141.693 17.5223C141.217 17.998 140.692 18.4409 140.151 18.8346C139.577 19.261 138.921 19.5563 138.281 19.0314C137.641 18.5065 137.855 17.8176 138.068 17.1451C138.117 16.981 138.183 16.817 138.265 16.6694C138.954 15.4392 139.577 14.1598 140.397 13.0116C141.315 11.7321 142.349 10.5183 143.448 9.37015C144.104 8.68123 144.908 8.09074 145.744 7.66427C146.745 7.13938 147.581 7.8447 147.368 8.9765C147.253 9.5834 147.024 10.1739 146.745 10.7316C146.417 11.4041 145.974 11.9946 145.58 12.6179Z" fill="#173D98"/>
<path id="Vector_4" d="M133.951 12.9296C133.688 13.2412 133.606 13.3396 133.524 13.4217C132.704 14.1926 131.753 13.8973 131.507 12.782C131.425 12.4047 131.392 11.9946 131.408 11.6009C131.654 8.15637 132.524 4.89221 134.066 1.80849C134.361 1.21799 134.837 0.676701 135.345 0.250228C135.903 -0.225452 136.657 0.00418462 136.838 0.709504C137.035 1.46403 137.116 2.28418 137.051 3.05511C136.887 5.38431 136.247 7.63148 135.427 9.81305C135.148 10.5512 134.82 11.2893 134.492 11.9946C134.295 12.4211 134.033 12.7984 133.951 12.9296Z" fill="#173D98"/>
<path id="Vector_5" d="M122.387 3.13718C122.535 3.38322 122.797 3.74407 122.994 4.15414C124.323 6.79499 125.208 9.59987 125.651 12.5196C125.733 13.0773 125.75 13.6514 125.717 14.2091C125.7 14.7503 125.471 15.2096 124.929 15.4064C124.372 15.6197 123.913 15.3572 123.584 14.9472C123.158 14.4223 122.731 13.881 122.436 13.2905C121.124 10.7152 120.222 7.97598 119.73 5.1219C119.631 4.5642 119.631 3.99011 119.664 3.43241C119.697 2.80911 119.795 2.13659 120.534 1.93976C121.173 1.75933 121.6 2.16939 121.977 2.62867C122.075 2.72709 122.174 2.87473 122.387 3.13718Z" fill="#173D98"/>
</g>
<path id="Vector_6" d="M127.275 29.48L125.208 36.1067C124.896 37.1073 126.455 37.5994 126.766 36.5988L128.833 29.9721C129.145 28.9551 127.586 28.463 127.275 29.48Z" fill="#173D98"/>
<path id="Vector_7" d="M133.131 31.7436L129.424 37.6158C128.867 38.5015 130.244 39.3873 130.818 38.4851L134.525 32.613C135.083 31.7272 133.689 30.8579 133.131 31.7436Z" fill="#173D98"/>
<path id="Vector_8" d="M120.386 28.5943L120.944 35.5163C121.026 36.566 122.666 36.4348 122.584 35.385L122.026 28.4631C121.928 27.4133 120.304 27.5445 120.386 28.5943Z" fill="#173D98"/>
</g>
<g id="Group_5">
<path id="Vector_9" d="M97.1766 125.469C76.099 119.334 59.1878 95.5503 67.7993 68.5842C77.0012 39.7481 105.378 33.269 123.552 39.092C144.745 45.8827 161.082 69.5191 153.028 95.7472C145.04 121.762 118.484 132.571 97.1766 125.469ZM75.7054 70.9462C69.1443 90.8592 80.8395 110.871 98.6693 116.825C115.925 122.582 138.249 114.889 145.253 93.1555C152.192 71.6023 138.889 52.7391 122.257 47.2606C102.704 40.8143 81.6924 51.6893 75.7054 70.9462Z" fill="#F1C231"/>
</g>
<g id="Group_6">
<path id="Vector_10" d="M65.8143 12.3227C89.4343 19.3267 108.248 45.686 98.7511 75.7195C89.8608 103.817 61.1067 116.644 35.6004 108.656C9.61838 100.52 -6.39077 73.1934 2.45033 45.2923C11.8819 15.5541 42.2599 4.35096 65.8143 12.3227ZM82.0366 69.8308C87.6628 52.6571 77.7555 34.6797 61.1395 29.3324C44.7859 24.0671 26.0376 33.0394 20.5426 50.1639C15.1297 67.0588 24.3645 85.5939 41.6366 90.892C58.8595 96.1573 76.6565 86.9389 82.0366 69.8308Z" fill="#F1C231"/>
</g>
</g>
</svg>
