<svg width="297" height="310" viewBox="0 0 297 310" fill="none" xmlns="http://www.w3.org/2000/svg">
<path d="M168.553 108.241C168.094 108.11 167.355 107.913 166.601 107.7C164.173 107.044 162.845 105.387 162.599 102.959C162.336 100.384 163.517 98.3994 165.6 96.9887C166.749 96.2178 168.061 96.2014 169.373 96.6115C172.785 97.6776 175.081 101.942 174.097 105.42C173.425 107.782 171.801 108.668 168.553 108.241Z" fill="#F097B8"/>
<path d="M257.85 292.28C260.425 292.543 262.016 293.953 262.525 296.184C263.279 299.497 261.36 303.286 258.243 304.631C256.505 305.386 255.275 305.206 254.028 303.729C253.273 302.844 252.683 301.794 252.142 300.76C251.108 298.776 250.862 296.774 252.338 294.872C253.815 292.985 255.734 292.034 257.85 292.28Z" fill="#F097B8"/>
<path d="M19.2873 145.393C22.0594 145.738 24.1097 146.459 25.1267 148.805C26.0944 151.052 25.75 153.152 24.3229 155.104C23.1091 156.76 21.4524 157.335 19.4841 156.99C15.6623 156.318 12.8902 151.577 14.104 147.887C14.4485 146.82 15.121 146.017 16.2364 145.771C17.3846 145.541 18.5656 145.475 19.2873 145.393Z" fill="#F097B8"/>
<path d="M189.138 174.377C184.102 173.934 181.921 170.965 182.987 166.799C183.905 163.19 187.268 161.697 190.581 163.403C193.075 164.699 194.912 168.16 194.535 170.932C194.321 172.491 193.55 173.655 191.976 174C190.86 174.246 189.679 174.311 189.138 174.377Z" fill="#F097B8"/>
<path d="M185.219 160.845C180.478 160.664 178.625 157.367 179.543 153.381C180.38 149.724 183.857 148.182 187.187 149.904C189.779 151.249 191.534 154.546 191.206 157.466C190.992 159.401 189.893 160.582 187.958 160.812C187.056 160.927 186.137 160.845 185.219 160.845Z" fill="#F097B8"/>
<path d="M162.73 79.0439C162.402 82.3409 161.09 83.4399 157.858 83.0134C156.956 82.8986 156.054 82.7182 155.201 82.4229C153.102 81.6848 151.543 80.4054 151.33 77.9942C151.1 75.3041 152.019 73.0897 154.365 71.6627C156.103 70.5965 157.908 70.8425 159.531 71.9579C161.975 73.6638 163.042 76.0586 162.73 79.0439Z" fill="#F097B8"/>
<path d="M6.55907 77.6663C9.28194 78.0763 10.791 79.1917 11.4963 81.2421C12.2672 83.4892 12.1196 85.7036 10.4465 87.4751C8.95388 89.0498 6.95275 89.2466 5.00082 88.5085C2.22875 87.4587 0.539257 85.3919 0.063576 82.4394C-0.198868 80.7664 0.342417 79.487 1.85147 78.9129C3.54096 78.2896 5.34527 77.9779 6.55907 77.6663Z" fill="#F097B8"/>
<path d="M218.991 272.039C219.286 269.152 221.96 266.495 224.47 266.38C226.701 266.265 229.03 268.25 229.751 270.891C230.375 273.187 230.047 275.353 228.57 277.206C228.046 277.846 227.111 278.403 226.29 278.518C223.764 278.896 219.697 275.861 219.155 273.351C219.024 272.843 219.024 272.318 218.991 272.039Z" fill="#F097B8"/>
<path d="M283.569 309.159C282.979 308.962 282.208 308.781 281.503 308.437C277.779 306.649 277.271 304.057 279.993 300.957C280.338 300.564 280.715 300.186 281.093 299.842C282.782 298.3 284.668 297.644 286.85 298.661C289.015 299.678 290.327 301.4 290.59 303.828C290.737 305.238 290.098 306.37 289.146 307.338C287.67 308.863 285.767 309.224 283.569 309.159Z" fill="#F097B8"/>
<path d="M234.787 288.967C231.966 288.655 228.653 285.309 228.472 282.898C228.292 280.503 230.26 277.911 232.819 277.058C234.328 276.566 235.64 276.829 236.854 277.764C240.135 280.273 240.036 285.949 236.608 288.294C236.018 288.721 235.198 288.819 234.787 288.967Z" fill="#F097B8"/>
<path d="M46.6963 5.54313C47.0572 2.31178 48.1397 0.88474 50.3541 0.277837C52.6997 -0.378274 54.8321 0.113818 56.4231 1.90172C57.8666 3.542 57.7518 5.57593 56.784 7.41304C55.5538 9.75864 53.487 11.0709 50.8462 11.3333C48.8779 11.5302 47.5492 10.6444 47.0735 8.70886C46.7783 7.46225 46.7619 6.15003 46.6963 5.54313Z" fill="#F097B8"/>
<path d="M9.82342 105.633C13.4812 105.977 15.466 108.126 15.2527 111.128C15.1215 113.03 14.3506 114.687 12.4971 115.54C10.6764 116.377 8.92126 116.098 7.363 114.868C5.75553 113.605 4.77136 111.948 4.50892 109.914C4.23007 107.716 5.11582 106.387 7.24818 105.928C8.26515 105.731 9.31493 105.682 9.82342 105.633Z" fill="#F097B8"/>
<path d="M12.808 119.296C16.8595 119.69 18.9427 122.921 17.6304 126.317C16.5479 129.089 13.8906 130.188 11.2334 128.826C10.3312 128.367 9.49467 127.629 8.88777 126.809C7.54274 125.021 7.06706 122.921 8.14965 120.904C9.19942 118.985 11.2662 119.296 12.808 119.296Z" fill="#F097B8"/>
<path d="M195.224 200.556C190.697 200.129 188.647 196.849 190.303 193.158C191.55 190.402 194.519 189.517 197.16 191.223C198.997 192.404 200.112 194.142 200.276 196.373C200.489 199.178 199.276 200.523 196.487 200.589C195.962 200.621 195.454 200.572 195.224 200.556Z" fill="#F097B8"/>
<path d="M144.424 58.9669C143.145 58.4748 142.029 58.1304 140.98 57.6219C139.192 56.7525 138.06 55.3091 138.158 53.2752C138.257 51.192 139.306 49.5189 141.193 48.5348C141.849 48.1903 142.718 48.0099 143.44 48.0919C145.769 48.3871 147.131 49.9126 147.836 52.0614C148.541 54.1937 148.459 56.2605 146.786 57.9007C146.212 58.4748 145.211 58.6225 144.424 58.9669Z" fill="#F097B8"/>
<path d="M181.773 146.837C178.05 146.509 176.196 144.278 176.787 140.85C177.426 137.093 181.232 135.551 184.201 137.946C185.087 138.652 185.841 139.685 186.3 140.718C187.957 144.606 185.989 147.214 181.773 146.837Z" fill="#F097B8"/>
<path d="M17.4835 42.7774C17.3195 44.6965 16.1877 45.8283 14.4654 46.4516C11.8082 47.403 8.42919 46.1072 7.01855 43.6468C6.44445 42.6462 6.39525 41.6292 7.01855 40.6943C8.15034 39.054 9.643 37.791 11.5949 37.2497C14.613 36.4131 17.7624 39.4313 17.4835 42.7774Z" fill="#F097B8"/>
<path d="M99.6779 14.0889C99.9075 11.6613 102.204 9.57815 104.713 9.49614C106.698 9.43052 108.453 10.9888 109.011 13.318C109.585 15.6636 108.486 18.5669 106.485 19.7971C105.977 20.1087 105.255 20.322 104.664 20.2728C102.351 20.0759 99.4482 16.4181 99.6779 14.0889Z" fill="#F097B8"/>
<path d="M13.0707 55.5552C12.8575 58.1304 11.5945 59.5574 9.60972 59.8527C7.85463 60.1151 6.23076 59.6887 4.82012 58.6061C1.86762 56.3425 2.04805 53.6524 5.27939 51.8317C7.05089 50.8312 8.9044 50.2079 10.8071 51.4545C12.4966 52.5535 13.1527 54.1773 13.0707 55.5552Z" fill="#F097B8"/>
<path d="M287.178 293.576C287.325 291.099 289.605 288.589 292.115 288.278C292.705 288.196 293.444 288.327 293.952 288.606C295.412 289.442 296.445 292.592 296.035 294.56C295.674 296.282 294.198 297.595 292.197 297.972C289.343 298.513 286.997 296.463 287.178 293.576Z" fill="#F097B8"/>
<path d="M17.6309 33.8872C17.3848 33.8216 16.7287 33.7232 16.1382 33.4771C13.6286 32.4109 13.0217 30.4426 14.4979 28.1626C14.7768 27.7361 15.1048 27.3261 15.4493 26.9324C16.6303 25.6038 18.0573 24.6852 19.9108 25.2101C21.7972 25.735 23.011 27.0308 23.6343 28.8843C24.1099 30.295 23.5359 31.4268 22.6337 32.4437C21.3871 33.8216 19.7796 34.1496 17.6309 33.8872Z" fill="#F097B8"/>
<path d="M192.222 186.679C188.089 186.367 186.137 183.152 187.892 179.839C188.975 177.772 191.107 176.919 193.157 178.035C194.24 178.625 195.208 179.659 195.864 180.708C196.717 182.037 197.061 183.645 196.176 185.154C195.241 186.777 193.617 186.728 192.222 186.679Z" fill="#F097B8"/>
<path d="M78.3207 9.88981C78.0747 9.8242 77.7795 9.8078 77.5826 9.67657C75.6963 8.42996 74.8434 6.56005 74.6629 4.39488C74.5317 2.65618 75.9095 1.06512 77.8451 0.376203C80.6828 -0.624367 83.2088 1.0159 83.4384 4.01761C83.6516 6.83889 80.814 10.1194 78.3207 9.88981Z" fill="#F097B8"/>
<path d="M249.058 292.493C248.877 292.953 248.648 293.855 248.188 294.626C246.581 297.365 244.449 297.545 242.267 295.167C240.167 292.887 239.823 290.804 241.25 288.901C242.447 287.277 244.793 286.408 246.384 286.998C248.221 287.671 249.386 289.836 249.058 292.493Z" fill="#F097B8"/>
<path d="M198.226 213.481C196.52 213.416 194.847 212.825 194.059 210.857C193.37 209.151 193.6 207.527 194.732 206.067C195.503 205.067 196.503 204.542 197.766 204.542C201.08 204.509 203.95 208.97 202.556 211.956C201.933 213.235 200.752 213.694 198.226 213.481Z" fill="#F097B8"/>
<path d="M8.13387 92.6746C10.2006 92.9207 11.4636 94.0525 11.9065 96.07C12.333 97.9563 11.5784 100.039 10.1022 100.909C8.46192 101.877 6.85445 101.663 5.31259 100.63C3.37706 99.3342 2.19607 96.6933 2.75376 94.889C3.22944 93.2979 5.50943 92.363 8.13387 92.6746Z" fill="#F097B8"/>
<path d="M155.037 66.2169C154.84 68.9562 153.38 70.088 150.805 69.6451C146.704 68.9562 144.998 65.8069 146.967 62.6247C148.525 60.0987 151.576 59.8362 153.544 62.067C154.643 63.2972 155.086 64.7735 155.037 66.2169Z" fill="#F097B8"/>
<path d="M126.546 36.5609C124.085 36.3805 121.641 33.8216 121.92 31.6729C122.199 29.5241 124.249 27.7526 126.201 27.9822C128.35 28.2283 129.892 30.3442 129.744 32.8375C129.613 34.9862 128.17 36.6757 126.546 36.5609Z" fill="#F097B8"/>
<path d="M167.126 91.2477C166.929 93.1832 165.961 94.0361 164.026 93.9213C163.255 93.8721 162.467 93.7409 161.729 93.5112C160.105 92.9699 159.187 91.6741 159.105 89.9846C159.023 88.3444 160.171 86.5893 161.713 85.966C163.123 85.3919 164.698 85.8839 165.895 87.2618C166.88 88.41 167.29 89.7386 167.126 91.2477Z" fill="#F097B8"/>
<path d="M35.034 11.4153C35.3457 7.67544 38.2161 5.88753 41.2507 7.52781C43.1534 8.56119 43.7275 10.6443 42.6285 12.5143C41.7756 13.9741 40.4305 14.7122 38.8231 14.9583C36.297 15.3519 34.8208 13.9413 35.034 11.4153Z" fill="#F097B8"/>
<path d="M201.785 226.472C200.276 226.374 198.734 225.882 198.013 224.028C197.389 222.404 197.717 220.977 198.833 219.698C199.866 218.517 201.244 218.222 202.704 218.812C204.262 219.452 205.213 220.633 205.64 222.207C206.444 225.111 205.049 226.751 201.785 226.472Z" fill="#F097B8"/>
<path d="M173.9 119.641C171.029 119.428 169.258 117.705 169.438 115.278C169.586 113.145 171.292 111.571 173.26 111.702C175.737 111.866 177.591 114.212 177.394 116.918C177.246 118.837 176.032 119.805 173.9 119.641Z" fill="#F097B8"/>
<path d="M65.9208 0.0645405C67.9547 0.261374 69.2833 1.81963 69.1029 3.78797C68.9061 6.08435 66.3144 8.31514 64.2477 7.98709C62.755 7.75745 61.492 5.37903 61.7052 3.19746C61.9185 1.17992 63.7064 -0.165098 65.9208 0.0645405Z" fill="#F097B8"/>
<path d="M206.23 239.578C204.639 239.414 203.13 239.086 202.326 237.446C201.621 236.002 201.9 234.657 202.802 233.427C203.917 231.901 205.672 231.541 207.264 232.558C208.953 233.624 209.675 235.248 209.56 237.2C209.462 238.922 208.248 239.726 206.23 239.578Z" fill="#F097B8"/>
<path d="M6.13296 72.8602C3.96779 72.7126 1.78623 70.4162 1.93385 68.4151C2.04867 66.7912 4.27945 65.4134 6.49382 65.5938C8.51136 65.7578 10.0368 67.5785 9.8892 69.6617C9.77438 71.5644 8.10129 72.9915 6.13296 72.8602Z" fill="#F097B8"/>
<path d="M214.218 249.206C213.989 251.88 212.676 252.848 210.659 252.438C207.821 251.864 206.427 249.633 207.477 247.32C208.002 246.188 208.805 245.352 210.085 245.188C211.528 245.007 212.693 245.663 213.398 246.861C213.907 247.73 214.087 248.78 214.218 249.206Z" fill="#F097B8"/>
<path d="M26.997 22.6348C25.1271 22.4872 23.8641 21.2405 24.0117 19.6823C24.2413 17.3695 26.0785 15.4832 28.014 15.598C29.9003 15.7128 31.557 17.4351 31.475 19.1902C31.393 21.2077 29.3098 22.8152 26.997 22.6348Z" fill="#F097B8"/>
<path d="M217.433 264.986C215.022 264.641 213.333 262.87 213.513 260.901C213.694 258.884 215.35 257.358 217.122 257.572C219.254 257.818 220.812 260.196 220.402 262.558C220.107 264.215 218.926 265.199 217.433 264.986Z" fill="#F097B8"/>
<path d="M27.3254 164.273C27.1942 166.29 25.5867 167.849 23.8316 167.668C21.7977 167.471 20.0426 165.077 20.2722 162.829C20.4363 161.255 21.4368 160.5 23.2739 160.582C25.8984 160.681 27.4566 162.108 27.3254 164.273Z" fill="#F097B8"/>
<path d="M118.902 23.5534C118.705 25.4561 117.442 26.8176 116.015 26.6371C114.096 26.4075 112.242 24.3571 112.39 22.6185C112.554 20.7649 114.473 19.1247 116.163 19.3871C117.869 19.6331 119.115 21.5031 118.902 23.5534Z" fill="#F097B8"/>
<path d="M177.886 132.205C175.737 131.959 174.409 130.532 174.507 128.597C174.605 126.76 176.164 125.398 177.935 125.611C179.969 125.857 181.577 128.121 181.216 130.237C180.97 131.664 179.707 132.402 177.886 132.205Z" fill="#F097B8"/>
<path d="M95.3801 9.10258C95.1668 10.9233 93.5922 12.5636 92.1323 12.4651C90.4264 12.3503 88.7206 9.95551 89.0322 8.1184C89.3275 6.47812 91.0826 5.1495 92.7556 5.31353C94.3467 5.47755 95.5933 7.26546 95.3801 9.10258Z" fill="#F097B8"/>
<path d="M29.0639 173.704C30.1957 173.836 31.3603 174.311 31.9344 175.673C32.5905 177.247 31.8196 179.331 30.3598 180.036C28.9983 180.708 27.2596 180.118 26.3247 178.625C26.0458 178.199 25.849 177.69 25.7178 177.198C25.1109 174.82 26.4067 173.376 29.0639 173.704Z" fill="#F097B8"/>
<path d="M267.216 302.926C267.347 301.089 268.758 299.858 270.595 299.99C272.284 300.121 273.465 301.466 273.334 303.122C273.203 304.992 271.136 306.747 269.315 306.567C267.987 306.436 267.068 304.845 267.216 302.926Z" fill="#F097B8"/>
<path d="M135.501 45.8611C133.5 45.5987 131.909 43.9584 132.056 42.3017C132.204 40.563 133.943 39.1196 135.534 39.3984C137.24 39.7101 138.453 41.662 138.142 43.5811C137.896 45.0574 136.78 46.0252 135.501 45.8611Z" fill="#F097B8"/>
<path d="M15.7776 134.452C17.9264 134.616 19.2386 135.978 19.091 137.897C18.9597 139.603 17.6147 140.8 15.9908 140.636C14.0553 140.439 12.5626 138.586 12.7103 136.552C12.8251 135.027 13.8749 134.305 15.7776 134.452Z" fill="#F097B8"/>
</svg>
