<svg width="49" height="63" viewBox="0 0 49 63" fill="none" xmlns="http://www.w3.org/2000/svg">
<g id="Group">
<path id="Vector" d="M9.66141 62.9867C9.41537 62.2158 9.02166 61.5925 9.10367 61.0348C9.2677 59.8866 9.57942 58.7384 9.98949 57.6394C11.9578 52.4889 13.9918 47.3713 15.9437 42.2372C16.5014 40.7773 16.9114 39.2519 17.2559 37.71C18.2729 33.2485 16.9935 30.4272 12.8928 28.3112C10.334 26.999 7.66026 25.8836 5.03582 24.6862C3.96964 24.1941 2.87065 23.7349 1.85367 23.128C1.19756 22.7343 0.607131 22.1602 0.180659 21.5369C-0.0489804 21.1924 -0.0653992 20.4543 0.16424 20.1098C0.393879 19.7654 1.09919 19.4537 1.49286 19.5522C3.52681 20.0771 5.52792 20.684 7.51265 21.3565C16.567 24.391 23.8334 20.6347 28.3114 14.4509C30.2141 11.8265 31.5591 8.77553 33.1009 5.88864C33.7735 4.62563 34.2656 3.24779 34.9545 1.98477C35.3153 1.32866 35.873 0.705362 36.4799 0.246084C37.3821 -0.426429 38.8584 0.377307 38.6944 1.47629C38.5139 2.75571 38.1531 4.03513 37.6938 5.24894C36.7096 7.82417 35.5778 10.3338 34.5444 12.8926C32.9697 16.7637 32.7402 20.7824 33.3799 24.8831C34.0196 28.9838 36.037 32.2643 39.4488 34.6099C41.3843 35.9385 43.5167 36.9883 45.5179 38.2349C46.502 38.8418 47.519 39.4979 48.3228 40.3017C49.1593 41.1382 48.5524 42.6473 47.3878 42.5981C46.1084 42.5489 44.7798 42.3192 43.5988 41.8435C40.6791 40.6954 37.825 39.3339 34.9217 38.1037C33.8391 37.6444 32.7237 37.1852 31.5919 36.9719C28.3278 36.3486 25.5393 37.2179 23.7678 40.154C21.7994 43.4018 19.8967 46.6988 18.158 50.0613C16.4686 53.3255 15.0251 56.7044 13.4176 60.0014C12.9747 60.92 12.3679 61.8057 11.6462 62.5274C11.2525 62.9047 10.4651 62.8227 9.66141 62.9867Z" fill="#F1C231"/>
</g>
</svg>
