<svg width="219" height="257" viewBox="0 0 219 257" fill="none" xmlns="http://www.w3.org/2000/svg">
<g id="Group">
<g id="Group_2">
<path id="Vector" d="M63.7411 101.662C66.0701 103.333 67.6048 104.457 69.9642 105.165C78.9951 107.873 88.1968 109.095 97.6291 108.436C98.8821 108.346 100.114 108.054 101.365 107.859C102.063 107.742 104.514 106.184 104.514 106.184C104.936 106.873 103.313 109.761 102.859 110.323C102.031 111.375 101.199 112.442 100.381 113.513C98.8433 115.513 97.218 117.445 95.7682 119.514C91.6297 125.446 87.3158 131.239 82.3841 136.564C80.5048 138.594 78.9895 140.965 77.1206 143.013C75.0956 145.248 73.5974 145.969 71.3801 148.015C70.4737 148.849 68.6472 150.909 67.4976 151.405C66.1582 151.987 65.0319 152.793 63.8762 153.652C61.9249 155.101 62.2293 154.758 60.1536 155.992C56.6702 158.063 52.4912 159.22 48.9723 157.063C48.6978 156.898 48.4356 156.631 48.2839 156.347C46.9435 153.818 46.7271 150.832 46.9271 147.82C47.1952 143.932 46.8499 140.577 48.0316 136.903C49.7203 131.62 51.593 126.386 53.5856 121.215C55.9532 115.097 59.3229 109.43 62.4736 103.674C62.8418 102.923 63.257 102.336 63.7411 101.662Z" fill="#F1C231"/>
</g>
<g id="Group_3">
<path id="Vector_2" d="M53.0078 133.791C54.8908 126.254 58.8236 119.448 63.5127 113.33C64.1198 112.536 65.8385 111.389 66.1943 113.062C66.2901 113.497 66.1867 113.94 66.087 114.368C65.3405 117.325 63.9013 120.034 62.7518 122.852C59.8145 130.077 59.1615 138.459 54.6825 144.982C54.4347 145.341 54.0905 145.719 53.6686 145.652C51.7685 145.325 51.8943 141.231 52.0016 139.925C52.1532 137.886 52.4936 135.823 53.0078 133.791Z" fill="#FFDE79"/>
</g>
<g id="Group_4">
<path id="Vector_3" d="M96.3857 102.033C98.7396 102.649 101.329 103.403 103.434 104.665C103.983 104.995 104.673 105.589 104.684 106.229C104.696 106.809 104.097 107.286 103.605 107.594C101.636 108.827 98.3169 108.757 96.0782 108.9C93.2702 109.074 90.455 109.047 87.6569 108.844C82.1495 108.446 76.6843 107.436 71.3537 106.038C69.3538 105.518 67.234 104.935 65.4538 103.82C63.934 102.867 62.9385 101.599 65.5087 100.558C66.8868 100.001 68.4297 99.7925 69.9216 99.6612C75.3441 99.1871 80.6834 99.6467 86.0556 100.267C89.5332 100.652 93.0267 101.148 96.3857 102.033Z" fill="#CFA012"/>
</g>
<g id="Group_5">
<path id="Vector_4" d="M25.324 220.236C25.0664 220.121 24.6041 219.921 24.1493 219.693C19.4806 217.41 14.8754 214.947 10.5331 212.069C8.12474 210.468 -0.92721 205.63 3.83499 202.354C4.97168 201.566 6.26179 201.168 7.64112 201.174C10.4923 201.179 13.368 201.206 16.2 201.51C16.6578 201.557 17.1298 201.607 17.5765 201.469C18.6277 201.113 19.2553 199.734 19.8209 198.869C20.7185 197.501 21.6161 196.133 22.5137 194.765C24.3089 192.029 26.1182 189.297 27.9134 186.562C31.4706 181.157 35.042 175.756 38.5993 170.352C40.4928 167.476 42.3618 164.578 44.1289 161.607C45.0182 160.1 45.7566 158.477 46.3392 156.812C46.6831 155.812 46.8346 154.624 46.6244 153.596C45.6024 148.406 46.4516 143.368 47.6415 138.361C48.95 132.855 50.8983 127.566 53.1081 122.377C61.5306 102.496 72.8183 84.3228 86.0382 67.3203C86.8702 66.2535 87.674 65.1791 88.5307 64.1341C89.0715 63.4748 89.4348 62.7983 89.5246 61.8968C89.9094 58.2521 97.1066 61.971 98.8201 62.8246C105.269 65.9942 111.383 70.0753 116.528 75.1107C117.717 76.279 118.732 77.6435 119.705 78.9966C120.403 79.9576 120.732 81.3354 119.506 81.9476C118.965 82.2123 118.022 84.3722 117.364 85.6375C107.314 105.082 95.2736 123.175 80.496 139.366C76.7401 143.473 72.775 147.342 68.4251 150.834C64.7311 153.805 60.8505 156.452 56.3443 158.037C53.3615 159.088 51.1687 161.156 49.4615 163.734C46.608 168.098 43.7544 172.462 41.0168 176.902C36.2105 184.703 31.4674 192.551 26.7242 200.4C25.854 201.836 25.0893 203.33 24.2294 204.784C23.6845 205.685 23.9977 206.725 24.3462 207.349C25.7132 209.779 27.2352 212.084 28.2187 214.699C28.549 215.561 28.8576 216.448 28.9953 217.35C29.3946 219.824 27.9524 221.016 25.324 220.236ZM48.4037 138.065C47.7336 140.283 47.0135 143.989 46.9212 147.788C46.8727 149.611 47.0187 151.502 47.4546 153.272C48.3237 156.768 50.7124 158.272 54.2525 157.688C55.7285 157.447 57.2395 157.017 58.5593 156.339C60.8652 155.151 63.1449 153.835 65.2606 152.338C70.6834 148.465 75.4227 143.803 79.9489 138.916C91.2976 126.631 100.922 113.081 109.373 98.6999C112.268 93.7856 114.853 88.6669 117.537 83.6352C118.212 82.3596 118.082 82.0517 116.677 81.6903C114.121 81.0358 111.768 79.9652 109.478 78.7144C102.588 74.9259 96.1078 70.6254 90.8827 64.6429C90.1398 63.7914 89.8584 63.8222 89.0974 64.6804C88.8147 64.9992 88.5707 65.3435 88.3164 65.6699C75.7024 81.3174 65.0516 98.189 56.5046 116.383C53.4152 122.929 50.7353 129.646 48.4037 138.065ZM25.1891 219.38C25.7336 219.556 26.3009 219.648 26.8768 219.65C27.1789 219.655 27.5066 219.622 27.7617 219.462C28.0527 219.282 28.2221 218.933 28.281 218.6C28.4778 217.469 28.0517 216.172 27.6139 215.144C27.1319 213.998 26.528 212.911 26.0781 211.758C25.6414 210.67 24.9487 209.574 24.2862 208.593C23.0102 206.673 22.8978 205.11 24.1972 203.319C24.4885 202.911 24.692 202.435 24.9587 202.005C30.5352 192.802 36.0203 183.545 41.7269 174.422C44.9204 169.299 47.7733 163.918 52.1478 159.598C52.6213 159.133 52.4868 158.672 51.8253 158.48C50.6012 158.121 49.4565 157.693 48.4615 156.82C47.6627 156.12 47.4293 156.255 47.0053 157.158C46.2007 158.915 45.4631 160.705 44.4897 162.356C42.923 165.031 41.2224 167.641 39.5076 170.246C33.4336 179.437 27.3492 188.611 21.261 197.798C20.5204 198.92 19.7516 200.034 19.1166 201.214C18.6871 202.024 18.0664 202.359 17.1676 202.315C16.0876 202.269 14.9973 202.204 13.9249 202.129C11.7659 201.976 9.60312 201.836 7.44387 201.91C6.01726 201.968 4.40508 202.492 3.46529 203.621C3.19678 203.943 3.00838 204.363 3.07963 204.777C3.11425 205.044 3.25935 205.295 3.41202 205.518C4.10666 206.493 5.24903 207.27 6.21495 207.969C11.0294 211.52 16.1617 214.564 21.382 217.45C22.2556 217.926 23.1586 218.35 24.0247 218.856C24.3907 219.075 24.7861 219.242 25.1891 219.38ZM115.326 80.6152C116.278 80.9157 117.252 81.1311 118.247 81.155C118.503 81.1628 118.776 81.1603 119.002 81.0539C119.4 80.8722 119.547 80.3805 119.379 79.9866C119.078 79.2989 118.752 78.5895 118.26 78.048C117.094 76.7343 115.897 75.4271 114.587 74.2568C111.256 71.2855 107.653 68.6509 103.823 66.3503C101.353 64.8688 98.8203 63.4468 96.1328 62.3777C94.8013 61.854 93.2905 61.2064 91.85 61.0329C90.7324 60.9003 89.9309 61.6263 90.5093 62.7524C90.8879 63.4911 91.3666 64.196 91.9286 64.8169C93.011 65.987 94.1114 67.1468 95.3063 68.1801C98.5997 71.0654 102.14 73.6528 105.888 75.9165C107.757 77.0394 109.706 78.0321 111.656 79.0248C112.847 79.6172 114.057 80.1993 115.326 80.6152Z" fill="#A68E80"/>
</g>
<g id="Group_6">
<path id="Vector_5" d="M168.238 103.822C165.386 104.104 163.495 104.311 161.097 103.744C151.922 101.574 143.343 98.0308 135.504 92.7439C134.463 92.0402 133.543 91.1715 132.557 90.3763C132.01 89.9263 130.667 87.3511 130.667 87.3511C129.956 87.7373 129.918 91.0501 130.031 91.763C130.222 93.0888 130.409 94.4287 130.582 95.7648C130.913 98.2661 131.355 100.752 131.576 103.269C132.194 110.475 133.033 117.649 134.642 124.726C135.254 127.424 135.381 130.235 135.976 132.943C136.612 135.891 137.549 137.265 138.446 140.145C138.814 141.321 139.366 144.018 140.113 145.022C140.983 146.196 141.555 147.457 142.126 148.779C143.092 151.01 143 150.56 144.18 152.667C146.161 156.202 149.202 159.293 153.328 159.185C153.648 159.179 154.009 159.079 154.282 158.909C156.707 157.389 158.388 154.911 159.72 152.203C161.433 148.702 163.409 145.969 164.223 142.196C165.402 136.777 166.397 131.308 167.257 125.833C168.265 119.351 168.181 112.758 168.33 106.198C168.387 105.363 168.321 104.648 168.238 103.822Z" fill="#F1C231"/>
</g>
<g id="Group_7">
<path id="Vector_6" d="M161.473 136.999C163.611 129.53 163.608 121.669 162.606 114.026C162.477 113.036 161.563 111.182 160.418 112.454C160.117 112.783 159.986 113.218 159.858 113.639C159.026 116.572 158.918 119.638 158.504 122.653C157.436 130.378 153.81 137.965 154.427 145.853C154.463 146.288 154.572 146.787 154.971 146.94C156.78 147.607 158.718 143.999 159.278 142.814C160.166 140.973 160.899 139.03 161.473 136.999Z" fill="#FFDE79"/>
</g>
<g id="Group_8">
<path id="Vector_7" d="M139.782 87.8208C137.436 87.1769 134.816 86.5356 132.362 86.5761C131.722 86.5867 130.827 86.7565 130.498 87.3056C130.198 87.8018 130.477 88.514 130.75 89.027C131.838 91.0788 134.748 92.6779 136.615 93.9216C138.96 95.4756 141.411 96.8606 143.936 98.0834C148.905 100.492 154.143 102.351 159.458 103.805C161.45 104.354 163.578 104.909 165.677 104.834C167.469 104.768 168.966 104.168 167.26 101.981C166.345 100.81 165.113 99.8582 163.887 98.9986C159.428 95.8768 154.574 93.6051 149.612 91.456C146.411 90.037 143.134 88.734 139.782 87.8208Z" fill="#CFA012"/>
</g>
<g id="Group_9">
<path id="Vector_8" d="M140.466 221.348C141.036 220.636 141.747 220.022 142.464 219.44C144.62 217.681 147.094 216.432 149.493 215.012C150.103 214.659 150.894 213.915 150.877 212.848C150.855 211.174 150.944 209.483 150.908 207.804C150.71 198.632 150.537 189.481 150.279 180.308C150.129 175.094 149.854 169.891 149.55 164.682C149.375 161.6 148.509 158.713 146.438 156.306C143.332 152.667 141.28 148.43 139.577 144.029C137.567 138.847 136.057 133.496 134.858 128.061C130.141 106.647 128.774 84.9621 129.793 63.097C129.856 61.6724 130.119 59.3304 129.783 58.8306C129.027 57.6873 130.001 56.6585 131.086 56.1754C132.619 55.4937 134.166 54.8158 135.78 54.3986C142.754 52.6103 150.089 52.1329 157.259 52.6126C159.166 52.7442 167.258 53.1221 165.773 56.4568C165.4 57.2824 165.391 58.0538 165.515 58.8913C165.72 60.2209 165.893 61.5569 166.081 62.8969C169.024 84.2456 169.713 105.628 167.071 127.042C166.376 132.637 165.429 138.21 163.813 143.619C162.339 148.55 160.552 153.351 157.076 157.321C156.394 158.109 155.913 159.225 155.715 160.249C155.391 161.968 155.215 163.756 155.232 165.506C155.281 168.948 155.446 172.407 155.648 175.844C156.026 182.303 156.419 188.766 156.797 195.225C156.998 198.496 157.185 201.763 157.372 205.03C157.465 206.663 157.559 208.296 157.652 209.93C157.709 210.962 157.563 212.47 158.296 213.304C158.599 213.643 159.048 213.839 159.468 214.027C162.072 215.181 164.576 216.595 167.048 218.016C168.231 218.697 169.149 219.687 169.754 220.941C172.24 226.159 161.996 225.827 159.095 226.006C153.896 226.327 148.676 226.158 143.491 225.8C142.984 225.77 142.483 225.712 142.203 225.683C139.557 225.08 138.908 223.313 140.466 221.348ZM167.161 120.193C168.856 100.163 168.068 80.2263 164.968 60.3682C164.896 59.9546 164.857 59.5344 164.786 59.1208C164.56 57.9829 164.328 57.8297 163.259 58.1957C155.742 60.7641 147.966 61.2447 140.119 61.0843C137.511 61.0226 134.919 60.7835 132.397 60.062C130.999 59.6723 130.732 59.874 130.68 61.3166C130.484 67.03 130.167 72.7415 130.217 78.4449C130.36 95.1283 131.919 111.676 135.591 127.985C137.053 134.476 138.826 140.884 141.6 146.953C142.68 149.321 143.986 151.583 145.404 153.768C146.207 155.016 147.301 156.143 148.459 157.091C151.232 159.366 154.053 159.257 156.554 156.665C157.817 155.35 158.888 153.786 159.758 152.183C161.563 148.843 162.811 145.262 163.336 143.02C165.511 134.56 166.549 127.403 167.161 120.193ZM144.053 225.177C145.056 225.172 146.05 225.257 147.045 225.28C153.023 225.395 158.975 225.321 164.92 224.653C166.11 224.517 167.47 224.426 168.573 223.933C168.817 223.816 169.068 223.671 169.231 223.457C169.486 223.13 169.547 222.676 169.476 222.263C169.212 220.811 168.096 219.541 166.885 218.792C165.052 217.648 163.092 216.698 161.163 215.741C160.183 215.266 159.22 214.781 158.262 214.281C157.476 213.873 157.091 213.269 157.124 212.353C157.165 211.013 157.07 209.668 156.975 208.322C156.311 197.325 155.614 186.335 154.949 175.338C154.763 172.239 154.595 169.129 154.58 166.014C154.562 164.097 154.822 162.164 155 160.255C155.084 159.261 154.95 159.027 153.908 159.234C152.624 159.496 151.404 159.291 150.165 158.989C149.496 158.825 149.149 159.157 149.327 159.796C150.959 165.711 150.721 171.808 150.939 177.845C151.306 188.595 151.441 199.359 151.669 210.117C151.686 210.622 151.624 211.137 151.672 211.635C151.888 213.832 151.023 215.133 148.958 216.158C147.908 216.681 146.746 217.28 145.823 218.004C144.858 218.777 143.777 219.413 142.801 220.168C141.908 220.839 140.89 221.75 140.495 222.827C140.375 223.16 140.351 223.532 140.513 223.834C140.655 224.099 140.922 224.292 141.186 224.439C141.686 224.725 142.223 224.929 142.782 225.049C143.186 225.127 143.612 225.18 144.053 225.177ZM138.053 60.2425C140.238 60.3575 142.422 60.4724 144.602 60.4344C148.976 60.3623 153.34 59.8775 157.635 59.0254C159.19 58.7138 160.733 58.2776 162.241 57.8017C163.035 57.559 163.806 57.1738 164.503 56.7234C165.567 56.0374 165.25 55.0117 164.201 54.5639C162.881 53.9977 161.239 53.7852 159.82 53.5871C156.958 53.1692 154.054 53.1346 151.174 53.1822C146.721 53.2637 142.269 53.7398 137.899 54.6476C136.179 55.0061 134.488 55.5394 132.822 56.0945C132.122 56.3315 131.471 56.7792 130.884 57.2137C130.542 57.4711 130.423 57.9704 130.677 58.3266C130.833 58.5354 131.055 58.6707 131.28 58.7918C132.154 59.2687 133.105 59.5691 134.079 59.7846C135.397 60.0769 136.739 60.1635 138.053 60.2425Z" fill="#A68E80"/>
</g>
<g id="Group_10">
<path id="Vector_9" d="M131.099 31.2036C130.433 34.257 129.201 37.0982 127.736 39.8466C127.27 40.7383 126.712 41.575 126.115 42.3862C125.493 43.2361 124.695 43.948 123.562 43.4774C122.425 43.021 122.429 41.9296 122.442 40.9166C122.45 40.6607 122.458 40.4049 122.522 40.1642C122.98 38.117 123.282 36.0281 123.934 34.0481C124.664 31.8313 125.611 29.6572 126.659 27.556C127.281 26.3114 128.162 25.121 129.17 24.1319C130.363 22.9645 131.849 23.5904 132.052 25.2683C132.158 26.1766 132.089 27.114 131.938 28.0145C131.735 29.1132 131.38 30.156 131.099 31.2036Z" fill="#F1C231"/>
<path id="Vector_10" d="M114.002 32.6616C113.843 33.2562 113.811 33.4299 113.756 33.5818C113.157 35.136 111.689 35.3495 110.634 34.0199C110.272 33.5587 109.971 33.0382 109.767 32.4979C107.917 27.7384 107.012 22.7921 107.119 17.6922C107.135 16.7254 107.426 15.6958 107.846 14.8069C108.307 13.8228 109.448 13.6428 110.148 14.483C110.884 15.3628 111.513 16.4115 111.925 17.4779C113.183 20.713 113.755 24.1285 114.031 27.571C114.125 28.7494 114.158 29.9267 114.164 31.0965C114.152 31.7611 114.031 32.4417 114.002 32.6616Z" fill="#F1C231"/>
<path id="Vector_11" d="M92.5338 30.6725C92.915 30.8354 93.5587 31.0382 94.1578 31.3505C98.0744 33.3255 101.576 35.8873 104.691 38.9829C105.279 39.5652 105.797 40.2352 106.266 40.9221C106.713 41.5731 106.847 42.322 106.394 43.0503C105.919 43.8031 105.139 43.8824 104.388 43.6814C103.426 43.4234 102.435 43.1579 101.55 42.7235C97.7067 40.8137 94.225 38.3482 91.1215 35.3772C90.5161 34.8053 90.0156 34.125 89.551 33.4239C89.0307 32.6472 88.5512 31.7752 89.2594 30.8876C89.8589 30.1227 90.7387 30.2371 91.5815 30.4325C91.7977 30.4753 92.0383 30.5398 92.5338 30.6725Z" fill="#F1C231"/>
</g>
</g>
</svg>
