<svg width="181" height="155" viewBox="0 0 181 155" fill="none" xmlns="http://www.w3.org/2000/svg">
<g id="New_group_00000060747235658557754700000003581798017438316989_">
<g id="Layer_14_xA0_Image_00000115484489056649176560000006966622343037624991_">
<g id="Group">
<path id="Vector" d="M56.0041 32.6951C54.4908 33.1265 52.9197 33.5455 52.0691 34.1855C51.1875 34.8853 50.5103 36.0704 50.2005 37.177C49.8 38.651 49.7132 40.2407 49.7151 41.7829C49.7047 44.568 48.406 46.4239 45.9842 47.4829C42.8295 48.8866 39.6294 50.2202 36.3571 51.4113C30.4978 53.5292 24.6096 55.5562 18.7152 57.5275C16.085 58.4028 13.4361 59.2801 10.7254 59.7693C6.59624 60.5288 4.61023 58.5674 4.36679 55.0205C3.96865 48.895 4.34055 42.9284 6.47971 37.123C8.94925 30.3969 13.3821 25.5971 20.2241 23.1819C23.482 22.0301 26.7853 20.9484 30.132 20.0877C45.0753 16.2649 60.2354 13.5467 75.4264 10.9379C86.0217 9.12162 96.5943 7.43959 107.318 6.60606C119.796 5.65288 132.241 6.09524 144.671 7.42337C148.251 7.81581 151.8 8.77603 155.306 9.68461C162.168 11.5183 165.223 17.0102 167.263 23.3484C168.324 26.6352 169.558 30.1285 169.133 33.5803C168.559 38.4031 166.705 40.3395 161.807 40.7893C150.708 41.7962 140.074 39.8737 129.956 35.1474C126.882 33.7207 124.363 31.7055 123.48 28.1544C123.313 27.4958 122.939 26.8414 122.474 26.3851C122.177 26.0795 121.484 25.9308 121.064 26.0526C120.645 26.1744 120.1 26.6864 120.067 27.0663C119.828 30.4976 120.521 33.6935 123.434 35.8718C125.934 37.7197 128.583 39.3817 131.244 40.986C133.781 42.4912 136.473 43.697 139.044 45.1609C143.722 47.8203 147.014 51.7245 148.984 56.7538C150.691 61.1163 152.247 65.4766 153.176 70.1136C154.173 75.0252 155.684 79.8233 156.904 84.7101C159.777 96.3542 161.003 108.238 161.634 120.187C161.733 122.264 161.531 124.337 161.31 126.412C160.372 135.752 150.031 135.96 142.848 137.341C120.272 141.71 97.4813 144.994 74.6494 147.567C62.6275 148.902 34.7208 155.237 33.3158 136.658C32.8536 130.464 32.7796 124.209 32.9926 117.997C33.433 105.025 34.0799 92.0496 34.8589 79.0781C35.1688 73.9085 35.8937 68.7492 36.7363 63.6333C37.6471 58.2841 40.4158 54.083 45.1644 51.1103C48.0838 49.2812 50.7471 47.0103 53.3568 44.7643C57.0318 41.6098 57.0961 37.2763 56.0041 32.6951Z" fill="#FEFBFB"/>
</g>
</g>
<g id="Layer_15_xA0_Image_00000021094830364154838490000015418127534858999981_">
<path id="Vector_2" d="M103.941 123.886C90.4879 128.427 70.2537 121.871 64.5421 101.777C59.8379 85.1632 68.9661 67.2578 86.7007 62.3162C103.87 57.5314 121.344 67.1779 126.167 84.5306C131.565 103.832 118.628 120.468 103.941 123.886Z" fill="#E4E4E4"/>
<path id="Vector_3" d="M128.11 40.3746C126.231 39.3794 124.386 38.3429 122.901 36.8336C120.376 34.2549 119.055 30.6583 118.424 27.1734C118.067 25.1439 117.836 23.0629 117.365 21.0273C116.958 19.229 116.221 18.8593 114.318 19.1648C111.987 19.5177 111.027 20.1886 111.173 21.8465C111.386 24.9453 111.691 28.034 112.034 31.1184C112.205 32.6607 112.376 34.2029 112.603 35.7389C112.715 36.573 113.119 38.5219 111.66 38.4207C110.181 38.3215 110.215 35.233 110.126 34.2647C109.872 32.1485 109.637 30.0302 109.404 27.9306C109.338 27.5053 109.307 27.0573 109.131 26.6629C108.202 24.5653 104.864 25.5004 103.179 25.744C92.0657 27.298 80.8222 28.3586 69.75 30.1149C67.5492 30.4534 66.7975 32.1546 66.9915 34.2398C67.0864 35.2638 68.197 37.8115 66.8385 38.4514C66.3554 38.6744 65.7361 38.5174 65.3913 38.1231C64.613 37.2126 64.8692 34.6072 64.7412 33.4552C64.5514 31.5764 64.3058 29.7038 63.9095 27.8292C63.5256 26.0661 62.8897 24.914 60.9201 25.1328C58.2073 25.4341 57.621 26.2515 57.8768 29.402C57.9552 30.4467 58.1988 31.4543 58.2937 32.4783C58.6796 36.4608 58.1033 40.5878 55.9643 44.0231C53.3132 48.2676 48.7464 50.1668 45.0342 53.3253C42.4038 55.5549 40.2297 58.1665 38.7947 61.3355C37.9626 63.1584 37.692 65.4645 36.1972 66.9096C36.0507 66.4368 35.8649 65.9495 35.4912 65.6336C34.9153 65.1897 34.0997 65.2991 33.4287 65.5241C30.3174 66.6408 27.0554 67.417 23.8161 68.0589C20.6532 68.7111 17.1827 69.4727 13.9455 69.4561C8.88114 69.4166 5.60081 65.6239 4.73601 60.8857C4.63076 60.1074 4.088 55.8977 4.52566 56.2817C7.56453 59.0855 11.6936 59.3418 15.5977 58.4192C19.7929 57.4078 23.5546 55.203 27.6197 53.8674C32.0833 52.3936 36.5284 50.9218 40.994 49.4665C42.6808 48.903 44.3882 48.3559 45.9428 47.4497C47.3736 46.6136 49.0831 45.0694 49.556 43.3992C50.2435 43.6615 50.7121 44.4935 51.3521 44.8362C51.5131 44.9312 51.67 44.9891 51.8207 44.9912C52.0272 44.9871 52.2006 44.8548 52.374 44.7227C55.3368 42.2681 56.3279 38.1515 56.1403 34.4291C56.0041 32.0177 55.6058 29.6166 55.3582 27.2176C55.0755 24.5027 55.4967 23.8917 58.2075 23.2333C58.8867 23.0826 59.5701 22.9691 60.2576 22.8927C64.4837 22.3293 64.5745 22.3004 66.1269 26.4544C66.6883 27.9533 67.6752 28.201 68.9531 28.0215C72.2172 27.6026 75.4709 27.0907 78.7329 26.6532C87.7447 25.483 96.9361 24.7444 105.884 23.1675C106.844 23.0045 107.847 22.5544 108.316 21.6935C108.863 20.6923 108.692 19.4887 109.417 18.5617C110.356 17.3664 112.132 17.0939 113.537 16.8814C114.555 16.7307 115.596 16.6151 116.634 16.6503C118.201 16.702 119.256 17.563 119.543 19.13C119.9 21.1595 120.059 23.2673 120.472 25.2906C120.938 27.6277 121.527 29.5375 124.39 30.4233C129.838 36.6275 136.635 37.3587 143.346 39.3596C148.989 41.0466 161.745 41.5861 165.606 39.9346C166.88 39.3793 167.611 38.3389 167.611 38.3389C167.873 38.8365 166.622 41.6276 166.349 42.2222C164.423 46.217 161.287 49.9887 156.629 50.5624C154.199 50.8699 151.614 50.2918 149.195 50.015C148.699 49.9572 147.882 49.7094 147.456 50.114C146.998 50.5599 147.326 51.4828 147.405 52.0196C147.448 52.4098 147.493 52.8185 147.574 53.2046C147.619 53.4441 147.671 54.0779 147.859 54.2451C142.724 49.6802 137.066 45.3052 131.068 41.9459C130.044 41.3636 129.07 40.8887 128.11 40.3746Z" fill="#E4E4E4"/>
<path id="Vector_4" d="M148.29 54.0659C148.269 54.0493 148.248 54.0327 148.228 54.0161L148.29 54.0659Z" fill="black"/>
</g>
<g id="Layer_25_xA0_Image_00000165938761910862377540000001907882566173123716_">
<g id="Group_2">
<path id="Vector_5" d="M71.4834 99.7646C67.8092 86.667 75.1968 73.2438 88.0653 69.5386C101.318 65.7343 115.327 73.1508 118.824 86.1741C122.577 100.147 115.011 112.988 101.972 116.844C88.7873 120.754 75.1803 112.897 71.4834 99.7646Z" fill="#172043"/>
</g>
</g>
<g id="New_group_00000079465284167554540320000000092693280387804048_">
<g id="Layer_26_xA0_Image_00000124138722377183276890000016950234692122649779_">
<g id="Group_3">
<path id="Vector_6" d="M91.8064 81.7777C98.3986 79.9922 105.199 83.8079 106.774 90.1977C108.382 96.7155 104.42 103.212 97.8502 104.864C91.5532 106.428 85.0481 102.561 83.467 96.2848C81.8219 89.9404 85.5239 83.4723 91.8064 81.7777Z" fill="#F7E5D5"/>
<path id="Vector_7" d="M81.0306 87.3949C81.5053 89.2984 80.2417 91.301 78.3113 91.7035C76.5833 92.0647 74.7521 90.989 74.1762 89.36C73.559 87.5288 74.7256 85.3301 76.5713 84.8429C78.4666 84.2939 80.5579 85.51 81.0306 87.3949Z" fill="#F7E5D5"/>
<path id="Vector_8" d="M107.399 76.867C109.261 76.3592 111.352 77.5753 111.823 79.4417C112.298 81.3452 111.055 83.3643 109.124 83.7668C107.378 84.13 105.606 83.0853 105.059 81.3779C104.415 79.4743 105.518 77.3768 107.399 76.867Z" fill="#F7E5D5"/>
<path id="Vector_9" d="M114.084 92.0193C112.255 92.6551 110.139 91.5546 109.553 89.6635C109.006 87.9561 109.881 86.0155 111.442 85.3342C113.22 84.5725 115.414 85.5326 116.124 87.3536C116.843 89.2488 115.928 91.3443 114.084 92.0193Z" fill="#F7E5D5"/>
<path id="Vector_10" d="M111.419 94.0834C113.324 93.6273 115.327 94.8909 115.748 96.8192C116.169 98.7475 114.845 100.719 112.907 101.047C111.173 101.353 109.393 100.234 108.902 98.52C108.371 96.6227 109.532 94.5375 111.419 94.0834Z" fill="#F7E5D5"/>
<path id="Vector_11" d="M108.202 109.997C106.3 110.49 104.317 109.224 103.893 107.278C103.528 105.512 104.532 103.708 106.222 103.182C108.074 102.581 110.211 103.698 110.76 105.593C111.286 107.453 110.108 109.541 108.202 109.997Z" fill="#F7E5D5"/>
<path id="Vector_12" d="M89.8486 71.6119C91.7666 71.098 93.8124 72.2438 94.2624 74.0937C94.7186 75.9993 93.4612 77.8883 91.4751 78.2969C89.6934 78.6829 87.9675 77.7084 87.4019 76.0031C86.7991 74.1326 87.912 72.128 89.8486 71.6119Z" fill="#F7E5D5"/>
<path id="Vector_13" d="M104.014 75.1741C104.586 77.1044 103.467 79.0533 101.512 79.5714C99.5732 80.0689 97.6946 78.9044 97.2281 76.9059C96.807 75.1469 97.8332 73.3776 99.522 72.8326C101.45 72.2423 103.465 73.2788 104.014 75.1741Z" fill="#F7E5D5"/>
<path id="Vector_14" d="M75.7156 93.7411C77.5386 93.0495 79.7208 94.0674 80.3752 95.8946C81.0543 97.7754 80.0054 99.8482 78.0957 100.437C76.4027 100.944 74.5219 100.1 73.8139 98.4666C72.9737 96.6601 73.8884 94.3954 75.7156 93.7411Z" fill="#F7E5D5"/>
<path id="Vector_15" d="M89.2865 113.809C87.3829 114.284 85.3474 113.062 84.9304 111.171C84.5444 109.389 85.5541 107.64 87.2615 107.093C89.2063 106.482 91.2192 107.5 91.7889 109.412C92.3772 111.322 91.2457 113.328 89.2865 113.809Z" fill="#F7E5D5"/>
<path id="Vector_16" d="M97.3559 108.21C99.3276 107.672 101.33 108.766 101.807 110.688C102.28 112.573 101.035 114.574 99.0857 114.978C97.3391 115.341 95.5161 114.34 94.9546 112.672C94.2982 110.826 95.4008 108.728 97.3559 108.21Z" fill="#F7E5D5"/>
<path id="Vector_17" d="M81.8574 108.389C79.9415 108.922 77.9885 107.766 77.5076 105.807C77.0803 103.992 77.9846 102.311 79.7065 101.725C81.6472 101.077 83.6745 102.056 84.2587 103.928C84.8677 105.854 83.7919 107.855 81.8574 108.389Z" fill="#F7E5D5"/>
<path id="Vector_18" d="M85.7082 78.3731C86.344 80.2023 85.2394 82.2812 83.3441 82.8303C81.6677 83.3175 79.7683 82.4751 79.083 80.8771C78.3006 79.083 79.2339 76.9854 81.1147 76.3063C83.0306 75.6044 85.091 76.5418 85.7082 78.3731Z" fill="#F7E5D5"/>
</g>
</g>
</g>
</g>
</svg>
